{
.appVersion = "1352";
DisplayStrings = (
"OÓ/Obreve/space/caroncomb/Ocaron/circumflexcomb.case Ô/space/Ocircumflexacute/Ocircumflexdotbelow/Ocircumflexgrave/Ocircumflexhookabove/Ocircumflextilde/Odblgrave Ö/Odieresismacron/Odotaccentmacron/Odotbelow Ò/Ohookabove/Ohorn/Ohornacute/Ohorndotbelow/Ohorngrave/Ohornhookabove/Ohorntilde/Ohungarumlaut/Oinvertedbreve/Omacron/Oogonek Ø/Oslashacute Õ/Otildemacron",
"aá/abreve/abreveacute/abrevedotbelow/abrevegrave/abrevehookabove/abrevetilde/acaron â/acircumflexacute/acircumflexdotbelow/acircumflexgrave/acircumflexhookabove/acircumflextilde/adblgrave ä/adotbelow à/ahookabove/brevecomb/breveinvertedcomb/breveinvertedcomb/ainvertedbreve/amacron/aogonek å/ringcomb/aringacute ã",
"/dieresiscomb.case/dotaccentcomb.case/gravecomb.case/acutecomb.case/hungarumlautcomb.case/caroncomb.alt.case/circumflexcomb.case/brevecomb.case/ringcomb.case/tildecomb.case/macroncomb.case/hookabovecomb.case/dblgravecomb.case/breveinvertedcomb.case/commaturnedabovecomb.case/brevecomb_acutecomb/brevecomb_gravecomb/brevecomb_hookabovecomb/brevecomb_tildecomb/circumflexcomb_acutecomb/circumflexcomb_gravecomb/circumflexcomb_hookabovecomb/circumflexcomb_tildecomb/brevecomb_acutecomb.case/brevecomb_gravecomb.case/brevecomb_hookabovecomb.case/brevecomb_tildecomb.case/circumflexcomb_acutecomb.case/circumflexcomb_gravecomb.case/circumflexcomb_hookabovecomb.case/circumflexcomb_tildecomb.case",

glyphs = (
{
color = 3;
glyphname = .notdef;
lastChange = "2021-08-18 15:15:43 +0000";
layers = (
{
layerId = "57DEED6F-9A00-47D0-BD9B-6FE09716AB2D";
paths = (
{
closed = 1;
nodes = (
"481 -250 LINE",
"481 610 LINE",
"50 610 LINE",
"50 -250 LINE"
);
},
{
closed = 1;
nodes = (
"266 139 LINE",
"422 -207 LINE",
"109 -207 LINE"
);
},
{
closed = 1;
nodes = (
"101 502 LINE",
"247 180 LINE",
"101 -143 LINE"
);
},
{
closed = 1;
nodes = (
"284 180 LINE",
"430 502 LINE",
"430 -143 LINE"
);
},
{
closed = 1;
nodes = (
"109 567 LINE",
"422 567 LINE",
"266 221 LINE"
);
}
);
width = 531;
},
{
layerId = "A9A9B55F-A222-44B0-A0B6-968BE501F3F8";
paths = (
{
closed = 1;
nodes = (
"481 -250 LINE",
"481 610 LINE",
"50 610 LINE",
"50 -250 LINE"
);
},
{
closed = 1;
nodes = (
"266 139 LINE",
"422 -207 LINE",
"109 -207 LINE"
);
},
{
closed = 1;
nodes = (
"101 502 LINE",
"247 180 LINE",
"101 -143 LINE"
);
},
{
closed = 1;
nodes = (
"284 180 LINE",
"430 502 LINE",
"430 -143 LINE"
);
},
{
closed = 1;
nodes = (
"109 567 LINE",
"422 567 LINE",
"266 221 LINE"
);
}
);
width = 531;
},
{
layerId = "AFE3E0A9-A514-4B93-8E4E-B7D18C88F31C";
paths = (
{
closed = 1;
nodes = (
"481 -250 LINE",
"481 610 LINE",
"50 610 LINE",
"50 -250 LINE"
);
},
{
closed = 1;
nodes = (
"266 139 LINE",
"422 -207 LINE",
"109 -207 LINE"
);
},
{
closed = 1;
nodes = (
"101 502 LINE",
"247 180 LINE",
"101 -143 LINE"
);
},
{
closed = 1;
nodes = (
"284 180 LINE",
"430 502 LINE",
"430 -143 LINE"
);
},
{
closed = 1;
nodes = (
"109 567 LINE",
"422 567 LINE",
"266 221 LINE"
);
}
);
width = 531;
}
);
note = .notdef;
},
{
glyphname = A;
lastChange = "2021-08-19 07:37:37 +0000";
layers = (
{
anchors = (
{
name = bottom;
position = "{445, 0}";
},
{
name = ogonek;
position = "{646, -36}";
},
{
name = top;
position = "{793, 586}";
}
);
layerId = "57DEED6F-9A00-47D0-BD9B-6FE09716AB2D";
paths = (
{
closed = 1;
nodes = (
"194 -56 OFFCURVE",
"247 -38 OFFCURVE",
"298 0 CURVE SMOOTH",
"327 22 OFFCURVE",
"354 46 OFFCURVE",
"421 118 CURVE SMOOTH",
"455 154 OFFCURVE",
"480 183 OFFCURVE",
"500 208 CURVE",
"545 207 OFFCURVE",
"584 205 OFFCURVE",
"618 200 CURVE",
"601 118 OFFCURVE",
"593 56 OFFCURVE",
"593 13 CURVE SMOOTH",
"593 -29 OFFCURVE",
"606 -50 OFFCURVE",
"631 -50 CURVE SMOOTH",
"640 -50 OFFCURVE",
"651 -46 OFFCURVE",
"664 -38 CURVE SMOOTH",
"678 -30 OFFCURVE",
"683 -23 OFFCURVE",
"683 -16 CURVE SMOOTH",
"683 -9 OFFCURVE",
"680 -5 OFFCURVE",
"674 -5 CURVE SMOOTH",
"672 -5 OFFCURVE",
"666 -9 OFFCURVE",
"655 -18 CURVE SMOOTH",
"645 -26 OFFCURVE",
"637 -30 OFFCURVE",
"631 -30 CURVE SMOOTH",
"624 -30 OFFCURVE",
"621 -19 OFFCURVE",
"621 4 CURVE SMOOTH",
"621 51 OFFCURVE",
"631 114 OFFCURVE",
"650 194 CURVE",
"653 193 OFFCURVE",
"661 191 OFFCURVE",
"672 186 CURVE SMOOTH",
"678 184 OFFCURVE",
"688 180 OFFCURVE",
"690 180 CURVE SMOOTH",
"697 180 OFFCURVE",
"701 183 OFFCURVE",
"701 190 CURVE SMOOTH",
"701 198 OFFCURVE",
"686 207 OFFCURVE",
"656 216 CURVE",
"693 355 OFFCURVE",
"740 471 OFFCURVE",
"797 566 CURVE SMOOTH",
"800 571 OFFCURVE",
"802 575 OFFCURVE",
"802 577 CURVE SMOOTH",
"802 583 OFFCURVE",
"799 586 OFFCURVE",
"793 586 CURVE SMOOTH",
"788 586 OFFCURVE",
"777 581 OFFCURVE",
"762 572 CURVE SMOOTH",
"745 562 OFFCURVE",
"737 556 OFFCURVE",
"735 551 CURVE SMOOTH",
"715 511 OFFCURVE",
"704 486 OFFCURVE",
"695 463 CURVE SMOOTH",
"666 389 OFFCURVE",
"642 310 OFFCURVE",
"623 225 CURVE",
"591 232 OFFCURVE",
"558 237 OFFCURVE",
"525 239 CURVE",
"550 271 OFFCURVE",
"614 357 OFFCURVE",
"631 379 CURVE SMOOTH",
"693 462 LINE",
"694 465 OFFCURVE",
"695 467 OFFCURVE",
"695 469 CURVE SMOOTH",
"695 477 OFFCURVE",
"691 481 OFFCURVE",
"682 481 CURVE SMOOTH",
"679 481 OFFCURVE",
"676 479 OFFCURVE",
"673 476 CURVE",
"617 401 LINE SMOOTH",
"573 343 OFFCURVE",
"561 329 OFFCURVE",
"486 240 CURVE",
"340 241 OFFCURVE",
"234 231 OFFCURVE",
"167 213 CURVE SMOOTH",
"127 202 OFFCURVE",
"92 182 OFFCURVE",
"63 153 CURVE SMOOTH",
"30 120 OFFCURVE",
"14 85 OFFCURVE",
"14 46 CURVE SMOOTH",
"14 11 OFFCURVE",
"27 -14 OFFCURVE",
"53 -32 CURVE SMOOTH",
"75 -48 OFFCURVE",
"104 -56 OFFCURVE",
"140 -56 CURVE SMOOTH"
);
},
{
closed = 1;
nodes = (
"104 -17 OFFCURVE",
"85 -12 OFFCURVE",
"69 -2 CURVE SMOOTH",
"51 10 OFFCURVE",
"41 26 OFFCURVE",
"41 48 CURVE SMOOTH",
"41 80 OFFCURVE",
"55 109 OFFCURVE",
"83 136 CURVE SMOOTH",
"105 157 OFFCURVE",
"137 176 OFFCURVE",
"170 185 CURVE SMOOTH",
"229 201 OFFCURVE",
"315 208 OFFCURVE",
"430 208 CURVE SMOOTH",
"458 208 LINE",
"433 178 OFFCURVE",
"413 159 OFFCURVE",
"396 141 CURVE SMOOTH",
"349 92 OFFCURVE",
"308 54 OFFCURVE",
"277 33 CURVE SMOOTH",
"228 0 OFFCURVE",
"179 -17 OFFCURVE",
"128 -17 CURVE SMOOTH"
);
}
);
width = 750;
},
{
anchors = (
{
name = bottom;
position = "{439, 0}";
},
{
name = ogonek;
position = "{655, -33}";
},
{
name = top;
position = "{837, 576}";
}
);
layerId = "A9A9B55F-A222-44B0-A0B6-968BE501F3F8";
paths = (
{
closed = 1;
nodes = (
"249 -57 OFFCURVE",
"400 93 OFFCURVE",
"510 212 CURVE",
"526 213 OFFCURVE",
"556 215 OFFCURVE",
"585 215 CURVE SMOOTH",
"601 215 OFFCURVE",
"618 215 OFFCURVE",
"632 213 CURVE",
"615 151 OFFCURVE",
"594 76 OFFCURVE",
"594 13 CURVE SMOOTH",
"594 -21 OFFCURVE",
"604 -51 OFFCURVE",
"640 -51 CURVE SMOOTH",
"655 -51 OFFCURVE",
"691 -37 OFFCURVE",
"713 -14 CURVE SMOOTH",
"716 -11 OFFCURVE",
"717 -8 OFFCURVE",
"717 -5 CURVE SMOOTH",
"717 -1 OFFCURVE",
"713 2 OFFCURVE",
"710 2 CURVE SMOOTH",
"709 2 OFFCURVE",
"708 2 OFFCURVE",
"707 1 CURVE SMOOTH",
"695 -10 OFFCURVE",
"677 -22 OFFCURVE",
"663 -24 CURVE SMOOTH",
"646 -26 OFFCURVE",
"636 -23 OFFCURVE",
"636 5 CURVE SMOOTH",
"636 52 OFFCURVE",
"650 111 OFFCURVE",
"679 204 CURVE",
"691 202 OFFCURVE",
"708 192 OFFCURVE",
"719 192 CURVE SMOOTH",
"728 192 OFFCURVE",
"735 189 OFFCURVE",
"735 201 CURVE SMOOTH",
"735 217 OFFCURVE",
"697 222 OFFCURVE",
"685 225 CURVE",
"726 348 OFFCURVE",
"780 462 OFFCURVE",
"852 568 CURVE",
"854 572 OFFCURVE",
"858 577 OFFCURVE",
"858 582 CURVE SMOOTH",
"858 592 OFFCURVE",
"852 597 OFFCURVE",
"843 597 CURVE SMOOTH",
"828 597 OFFCURVE",
"781 572 OFFCURVE",
"772 558 CURVE SMOOTH",
"757 537 OFFCURVE",
"739 501 OFFCURVE",
"732 487 CURVE",
"727 491 OFFCURVE",
"721 492 OFFCURVE",
"716 492 CURVE SMOOTH",
"710 492 OFFCURVE",
"705 489 OFFCURVE",
"701 485 CURVE SMOOTH",
"624 402 OFFCURVE",
"545 300 OFFCURVE",
"492 248 CURVE",
"467 248 OFFCURVE",
"437 249 OFFCURVE",
"406 249 CURVE SMOOTH",
"272 249 OFFCURVE",
"99 240 OFFCURVE",
"11 163 CURVE SMOOTH",
"-21 135 OFFCURVE",
"-50 94 OFFCURVE",
"-50 47 CURVE SMOOTH",
"-50 -34 OFFCURVE",
"32 -57 OFFCURVE",
"93 -57 CURVE SMOOTH"
);
},
{
closed = 1;
nodes = (
"20 -19 OFFCURVE",
"-31 -9 OFFCURVE",
"-25 42 CURVE SMOOTH",
"-10 182 OFFCURVE",
"279 212 OFFCURVE",
"459 214 CURVE",
"349 111 OFFCURVE",
"194 -19 OFFCURVE",
"53 -19 CURVE SMOOTH"
);
},
{
closed = 1;
nodes = (
"606 239 OFFCURVE",
"570 242 OFFCURVE",
"539 244 CURVE",
"593 305 OFFCURVE",
"653 372 OFFCURVE",
"706 434 CURVE",
"678 370 OFFCURVE",
"656 300 OFFCURVE",
"636 233 CURVE"
);
}
);
width = 731;
},
{
anchors = (
{
name = bottom;
position = "{542, 0}";
},
{
name = ogonek;
position = "{791, -33}";
},
{
name = top;
position = "{977, 582}";
}
);
layerId = "AFE3E0A9-A514-4B93-8E4E-B7D18C88F31C";
paths = (
{
closed = 1;
nodes = (
"347 -57 OFFCURVE",
"509 93 OFFCURVE",
"626 212 CURVE",
"643 213 OFFCURVE",
"676 215 OFFCURVE",
"709 215 CURVE SMOOTH",
"727 215 OFFCURVE",
"745 215 OFFCURVE",
"761 213 CURVE",
"746 153 OFFCURVE",
"727 80 OFFCURVE",
"727 18 CURVE SMOOTH",
"727 -18 OFFCURVE",
"739 -51 OFFCURVE",
"781 -51 CURVE SMOOTH",
"798 -51 OFFCURVE",
"837 -37 OFFCURVE",
"860 -14 CURVE SMOOTH",
"862 -12 OFFCURVE",
"863 -9 OFFCURVE",
"863 -6 CURVE SMOOTH",
"863 -1 OFFCURVE",
"861 3 OFFCURVE",
"857 3 CURVE SMOOTH",
"856 3 OFFCURVE",
"855 2 OFFCURVE",
"853 1 CURVE",
"840 -10 OFFCURVE",
"821 -22 OFFCURVE",
"806 -24 CURVE SMOOTH",
"780 -27 OFFCURVE",
"775 -18 OFFCURVE",
"775 9 CURVE SMOOTH",
"775 71 OFFCURVE",
"797 145 OFFCURVE",
"814 204 CURVE",
"828 202 OFFCURVE",
"847 192 OFFCURVE",
"859 192 CURVE SMOOTH",
"869 192 OFFCURVE",
"877 189 OFFCURVE",
"877 201 CURVE SMOOTH",
"877 217 OFFCURVE",
"833 222 OFFCURVE",
"820 225 CURVE",
"861 348 OFFCURVE",
"917 462 OFFCURVE",
"992 568 CURVE SMOOTH",
"994 571 OFFCURVE",
"999 576 OFFCURVE",
"999 582 CURVE SMOOTH",
"999 592 OFFCURVE",
"991 597 OFFCURVE",
"981 597 CURVE SMOOTH",
"965 597 OFFCURVE",
"913 572 OFFCURVE",
"904 559 CURVE SMOOTH",
"888 537 OFFCURVE",
"874 511 OFFCURVE",
"862 487 CURVE",
"857 491 OFFCURVE",
"850 492 OFFCURVE",
"844 492 CURVE SMOOTH",
"838 492 OFFCURVE",
"832 489 OFFCURVE",
"828 485 CURVE SMOOTH",
"748 404 OFFCURVE",
"661 300 OFFCURVE",
"605 248 CURVE",
"577 248 OFFCURVE",
"544 249 OFFCURVE",
"509 249 CURVE SMOOTH",
"361 249 OFFCURVE",
"169 240 OFFCURVE",
"73 163 CURVE SMOOTH",
"39 135 OFFCURVE",
"10 97 OFFCURVE",
"10 51 CURVE SMOOTH",
"10 -33 OFFCURVE",
"105 -57 OFFCURVE",
"173 -57 CURVE SMOOTH"
);
},
{
closed = 1;
nodes = (
"92 -19 OFFCURVE",
"34 -7 OFFCURVE",
"38 38 CURVE SMOOTH",
"52 201 OFFCURVE",
"444 212 OFFCURVE",
"569 214 CURVE",
"451 111 OFFCURVE",
"286 -19 OFFCURVE",
"129 -19 CURVE SMOOTH"
);
},
{
closed = 1;
nodes = (
"732 239 OFFCURVE",
"691 242 OFFCURVE",
"657 244 CURVE",
"715 305 OFFCURVE",
"779 372 OFFCURVE",
"836 434 CURVE",
"807 370 OFFCURVE",
"785 300 OFFCURVE",
"766 233 CURVE"
);
}
);
width = 879;
}
);
note = A;
unicode = 0041;
},
{
glyphname = AE;
lastChange = "2021-08-18 15:15:43 +0000";
layers = (
{
anchors = (
{
name = bottom;
position = "{489, 0}";
},
{
name = top;
position = "{886, 514}";
}
);
layerId = "57DEED6F-9A00-47D0-BD9B-6FE09716AB2D";
paths = (
{
closed = 1;
nodes = (
"191 -56 OFFCURVE",
"244 -37 OFFCURVE",
"295 0 CURVE SMOOTH",
"325 21 OFFCURVE",
"366 62 OFFCURVE",
"419 119 CURVE SMOOTH",
"448 150 OFFCURVE",
"477 189 OFFCURVE",
"529 253 CURVE",
"565 259 OFFCURVE",
"630 262 OFFCURVE",
"649 263 CURVE",
"582 177 OFFCURVE",
"552 113 OFFCURVE",
"552 56 CURVE SMOOTH",
"552 3 OFFCURVE",
"591 -24 OFFCURVE",
"658 -24 CURVE SMOOTH",
"702 -24 OFFCURVE",
"769 -12 OFFCURVE",
"844 15 CURVE SMOOTH",
"925 45 OFFCURVE",
"975 74 OFFCURVE",
"996 103 CURVE",
"996 108 OFFCURVE",
"994 113 OFFCURVE",
"991 113 CURVE SMOOTH",
"990 113 OFFCURVE",
"989 113 OFFCURVE",
"988 112 CURVE",
"960 96 OFFCURVE",
"923 80 OFFCURVE",
"910 74 CURVE SMOOTH",
"815 31 OFFCURVE",
"737 11 OFFCURVE",
"677 11 CURVE SMOOTH",
"618 11 OFFCURVE",
"598 33 OFFCURVE",
"598 66 CURVE SMOOTH",
"598 94 OFFCURVE",
"613 131 OFFCURVE",
"631 169 CURVE SMOOTH",
"658 225 OFFCURVE",
"689 257 OFFCURVE",
"702 263 CURVE",
"728 271 OFFCURVE",
"763 277 OFFCURVE",
"816 280 CURVE SMOOTH",
"873 284 OFFCURVE",
"929 288 OFFCURVE",
"944 291 CURVE SMOOTH",
"963 295 OFFCURVE",
"973 299 OFFCURVE",
"973 303 CURVE SMOOTH",
"973 308 OFFCURVE",
"950 310 OFFCURVE",
"905 310 CURVE SMOOTH",
"886 310 OFFCURVE",
"859 309 OFFCURVE",
"823 306 CURVE SMOOTH",
"787 303 OFFCURVE",
"760 302 OFFCURVE",
"742 302 CURVE SMOOTH",
"739 302 OFFCURVE",
"736 303 OFFCURVE",
"734 306 CURVE",
"822 404 OFFCURVE",
"873 458 OFFCURVE",
"888 467 CURVE SMOOTH",
"915 483 OFFCURVE",
"971 491 OFFCURVE",
"1056 491 CURVE SMOOTH",
"1089 491 OFFCURVE",
"1112 488 OFFCURVE",
"1124 482 CURVE",
"1140 482 OFFCURVE",
"1148 486 OFFCURVE",
"1148 494 CURVE SMOOTH",
"1148 501 OFFCURVE",
"1142 505 OFFCURVE",
"1131 508 CURVE SMOOTH",
"1107 514 OFFCURVE",
"1068 517 OFFCURVE",
"1014 517 CURVE SMOOTH",
"901 517 OFFCURVE",
"816 506 OFFCURVE",
"747 472 CURVE SMOOTH",
"680 440 OFFCURVE",
"603 374 OFFCURVE",
"528 287 CURVE",
"413 277 OFFCURVE",
"304 261 OFFCURVE",
"215 232 CURVE SMOOTH",
"75 186 OFFCURVE",
"12 122 OFFCURVE",
"12 44 CURVE SMOOTH",
"12 8 OFFCURVE",
"26 -16 OFFCURVE",
"52 -34 CURVE SMOOTH",
"75 -50 OFFCURVE",
"103 -56 OFFCURVE",
"137 -56 CURVE SMOOTH"
);
},
{
closed = 1;
nodes = (
"98 -10 OFFCURVE",
"42 11 OFFCURVE",
"42 56 CURVE SMOOTH",
"42 117 OFFCURVE",
"112 166 OFFCURVE",
"238 207 CURVE SMOOTH",
"313 231 OFFCURVE",
"392 240 OFFCURVE",
"496 253 CURVE",
"462 213 OFFCURVE",
"435 178 OFFCURVE",
"404 144 CURVE SMOOTH",
"360 96 OFFCURVE",
"319 61 OFFCURVE",
"282 37 CURVE SMOOTH",
"234 5 OFFCURVE",
"186 -10 OFFCURVE",
"139 -10 CURVE SMOOTH"
);
},
{
closed = 1;
nodes = (
"587 324 OFFCURVE",
"626 361 OFFCURVE",
"674 397 CURVE SMOOTH",
"725 435 OFFCURVE",
"765 456 OFFCURVE",
"809 469 CURVE SMOOTH",
"815 471 OFFCURVE",
"820 472 OFFCURVE",
"823 472 CURVE SMOOTH",
"825 472 OFFCURVE",
"827 471 OFFCURVE",
"827 469 CURVE SMOOTH",
"827 468 OFFCURVE",
"826 466 OFFCURVE",
"824 463 CURVE",
"754 384 OFFCURVE",
"719 354 OFFCURVE",
"672 294 CURVE",
"617 291 OFFCURVE",
"583 289 OFFCURVE",
"558 286 CURVE"
);
}
);
width = 978;
},
{
anchors = (
{
name = bottom;
position = "{545, 0}";
},
{
name = top;
position = "{1041, 526}";
}
);
layerId = "A9A9B55F-A222-44B0-A0B6-968BE501F3F8";
paths = (
{
closed = 1;
nodes = (
"331 -57 OFFCURVE",
"476 121 OFFCURVE",
"600 252 CURVE",
"639 257 OFFCURVE",
"678 259 OFFCURVE",
"717 261 CURVE",
"669 209 OFFCURVE",
"601 129 OFFCURVE",
"601 53 CURVE SMOOTH",
"601 -17 OFFCURVE",
"680 -25 OFFCURVE",
"731 -25 CURVE SMOOTH",
"824 -25 OFFCURVE",
"1055 31 OFFCURVE",
"1118 106 CURVE",
"1119 113 OFFCURVE",
"1114 124 OFFCURVE",
"1106 124 CURVE SMOOTH",
"1105 124 OFFCURVE",
"1014 71 OFFCURVE",
"1004 67 CURVE SMOOTH",
"924 35 OFFCURVE",
"850 18 OFFCURVE",
"765 18 CURVE SMOOTH",
"735 18 OFFCURVE",
"673 25 OFFCURVE",
"673 69 CURVE SMOOTH",
"673 97 OFFCURVE",
"695 139 OFFCURVE",
"713 171 CURVE SMOOTH",
"731 201 OFFCURVE",
"765 249 OFFCURVE",
"792 262 CURVE SMOOTH",
"832 281 OFFCURVE",
"1006 281 OFFCURVE",
"1061 290 CURVE SMOOTH",
"1074 292 OFFCURVE",
"1097 296 OFFCURVE",
"1100 308 CURVE",
"1092 317 LINE",
"1073 323 OFFCURVE",
"1049 321 OFFCURVE",
"1029 321 CURVE SMOOTH",
"965 321 OFFCURVE",
"902 313 OFFCURVE",
"839 313 CURVE",
"989 459 OFFCURVE",
"970 499 OFFCURVE",
"1175 499 CURVE SMOOTH",
"1198 499 OFFCURVE",
"1245 490 OFFCURVE",
"1266 481 CURVE",
"1276 481 OFFCURVE",
"1301 484 OFFCURVE",
"1302 499 CURVE SMOOTH",
"1303 526 OFFCURVE",
"1223 528 OFFCURVE",
"1181 528 CURVE SMOOTH",
"912 528 OFFCURVE",
"794 498 OFFCURVE",
"595 298 CURVE",
"464 287 OFFCURVE",
"8 248 OFFCURVE",
"8 45 CURVE SMOOTH",
"8 -36 OFFCURVE",
"90 -57 OFFCURVE",
"150 -57 CURVE SMOOTH"
);
},
{
closed = 1;
nodes = (
"99 -27 OFFCURVE",
"26 -11 OFFCURVE",
"26 38 CURVE SMOOTH",
"26 191 OFFCURVE",
"446 237 OFFCURVE",
"543 249 CURVE",
"427 124 OFFCURVE",
"298 -27 OFFCURVE",
"131 -27 CURVE SMOOTH"
);
},
{
closed = 1;
nodes = (
"712 368 OFFCURVE",
"857 476 OFFCURVE",
"946 491 CURVE",
"891 433 OFFCURVE",
"810 363 OFFCURVE",
"755 305 CURVE",
"719 304 OFFCURVE",
"683 302 OFFCURVE",
"646 299 CURVE"
);
}
);
width = 1089;
},
{
anchors = (
{
name = bottom;
position = "{605, 0}";
},
{
name = top;
position = "{1107, 521}";
}
);
layerId = "AFE3E0A9-A514-4B93-8E4E-B7D18C88F31C";
paths = (
{
closed = 1;
nodes = (
"371 -57 OFFCURVE",
"526 121 OFFCURVE",
"658 252 CURVE",
"701 257 OFFCURVE",
"744 259 OFFCURVE",
"788 261 CURVE",
"738 210 OFFCURVE",
"667 131 OFFCURVE",
"667 56 CURVE SMOOTH",
"667 -17 OFFCURVE",
"757 -25 OFFCURVE",
"814 -25 CURVE SMOOTH",
"918 -25 OFFCURVE",
"1172 31 OFFCURVE",
"1239 106 CURVE",
"1240 113 OFFCURVE",
"1235 124 OFFCURVE",
"1226 124 CURVE SMOOTH",
"1225 124 OFFCURVE",
"1126 71 OFFCURVE",
"1115 67 CURVE SMOOTH",
"1027 35 OFFCURVE",
"944 18 OFFCURVE",
"850 18 CURVE SMOOTH",
"817 18 OFFCURVE",
"746 25 OFFCURVE",
"746 71 CURVE SMOOTH",
"746 101 OFFCURVE",
"771 145 OFFCURVE",
"787 171 CURVE SMOOTH",
"804 200 OFFCURVE",
"841 249 OFFCURVE",
"871 262 CURVE SMOOTH",
"915 281 OFFCURVE",
"1108 281 OFFCURVE",
"1169 290 CURVE SMOOTH",
"1183 292 OFFCURVE",
"1209 296 OFFCURVE",
"1211 308 CURVE",
"1202 317 LINE",
"1181 323 OFFCURVE",
"1154 321 OFFCURVE",
"1132 321 CURVE SMOOTH",
"1061 321 OFFCURVE",
"991 313 OFFCURVE",
"921 313 CURVE",
"1082 459 OFFCURVE",
"1059 499 OFFCURVE",
"1287 499 CURVE SMOOTH",
"1312 499 OFFCURVE",
"1366 490 OFFCURVE",
"1389 481 CURVE",
"1400 481 OFFCURVE",
"1428 484 OFFCURVE",
"1428 499 CURVE SMOOTH",
"1428 526 OFFCURVE",
"1339 528 OFFCURVE",
"1293 528 CURVE SMOOTH",
"994 528 OFFCURVE",
"865 498 OFFCURVE",
"650 298 CURVE",
"507 287 OFFCURVE",
"8 249 OFFCURVE",
"8 49 CURVE SMOOTH",
"8 -35 OFFCURVE",
"102 -57 OFFCURVE",
"170 -57 CURVE SMOOTH"
);
},
{
closed = 1;
nodes = (
"112 -27 OFFCURVE",
"28 -11 OFFCURVE",
"28 40 CURVE SMOOTH",
"28 192 OFFCURVE",
"489 237 OFFCURVE",
"595 249 CURVE",
"471 124 OFFCURVE",
"333 -27 OFFCURVE",
"148 -27 CURVE SMOOTH"
);
},
{
closed = 1;
nodes = (
"778 368 OFFCURVE",
"935 476 OFFCURVE",
"1033 491 CURVE",
"975 433 OFFCURVE",
"887 363 OFFCURVE",
"828 305 CURVE",
"788 304 OFFCURVE",
"748 302 OFFCURVE",
"707 299 CURVE"
);
}
);
width = 1210;
}
);
note = AE;
unicode = 00C6;
},
{
glyphname = B;
lastChange = "2021-08-18 15:15:43 +0000";
layers = (
{
layerId = "57DEED6F-9A00-47D0-BD9B-6FE09716AB2D";
paths = (
{
closed = 1;
nodes = (
"273 -57 OFFCURVE",
"337 -48 OFFCURVE",
"398 -30 CURVE SMOOTH",
"470 -8 OFFCURVE",
"525 22 OFFCURVE",
"568 62 CURVE",
"577 53 OFFCURVE",
"586 39 OFFCURVE",
"596 21 CURVE SMOOTH",
"598 18 OFFCURVE",
"601 16 OFFCURVE",
"604 16 CURVE SMOOTH",
"611 16 OFFCURVE",
"615 21 OFFCURVE",
"615 30 CURVE SMOOTH",
"615 41 OFFCURVE",
"605 58 OFFCURVE",
"586 81 CURVE",
"619 118 OFFCURVE",
"635 153 OFFCURVE",
"635 184 CURVE SMOOTH",
"635 223 OFFCURVE",
"612 257 OFFCURVE",
"565 285 CURVE SMOOTH",
"530 306 OFFCURVE",
"491 321 OFFCURVE",
"443 332 CURVE",
"485 339 OFFCURVE",
"525 352 OFFCURVE",
"564 372 CURVE SMOOTH",
"616 398 OFFCURVE",
"642 427 OFFCURVE",
"642 459 CURVE SMOOTH",
"642 498 OFFCURVE",
"599 527 OFFCURVE",
"514 545 CURVE SMOOTH",
"459 557 OFFCURVE",
"400 563 OFFCURVE",
"336 563 CURVE SMOOTH",
"229 563 OFFCURVE",
"140 549 OFFCURVE",
"71 521 CURVE SMOOTH",
"63 518 OFFCURVE",
"54 511 OFFCURVE",
"45 501 CURVE SMOOTH",
"36 492 OFFCURVE",
"32 483 OFFCURVE",
"32 475 CURVE SMOOTH",
"32 470 OFFCURVE",
"35 467 OFFCURVE",
"40 467 CURVE SMOOTH",
"42 467 OFFCURVE",
"45 468 OFFCURVE",
"48 469 CURVE SMOOTH",
"152 512 OFFCURVE",
"264 534 OFFCURVE",
"384 534 CURVE SMOOTH",
"429 534 OFFCURVE",
"472 530 OFFCURVE",
"514 522 CURVE SMOOTH",
"576 510 OFFCURVE",
"607 492 OFFCURVE",
"607 468 CURVE SMOOTH",
"607 458 OFFCURVE",
"598 443 OFFCURVE",
"584 430 CURVE SMOOTH",
"547 395 OFFCURVE",
"488 369 OFFCURVE",
"407 353 CURVE SMOOTH",
"391 350 OFFCURVE",
"365 347 OFFCURVE",
"359 346 CURVE SMOOTH",
"340 343 OFFCURVE",
"330 335 OFFCURVE",
"330 323 CURVE SMOOTH",
"330 317 OFFCURVE",
"334 314 OFFCURVE",
"343 314 CURVE SMOOTH",
"366 314 LINE SMOOTH",
"415 314 OFFCURVE",
"462 305 OFFCURVE",
"506 287 CURVE SMOOTH",
"563 263 OFFCURVE",
"591 230 OFFCURVE",
"591 188 CURVE SMOOTH",
"591 163 OFFCURVE",
"580 137 OFFCURVE",
"559 109 CURVE",
"486 173 OFFCURVE",
"374 207 OFFCURVE",
"224 210 CURVE",
"277 317 OFFCURVE",
"335 413 OFFCURVE",
"398 498 CURVE",
"399 500 OFFCURVE",
"400 502 OFFCURVE",
"400 504 CURVE SMOOTH",
"400 509 OFFCURVE",
"395 512 OFFCURVE",
"386 512 CURVE SMOOTH",
"363 512 OFFCURVE",
"345 505 OFFCURVE",
"335 490 CURVE SMOOTH",
"311 454 OFFCURVE",
"293 421 OFFCURVE",
"283 402 CURVE SMOOTH",
"250 341 OFFCURVE",
"213 263 OFFCURVE",
"190 210 CURVE",
"145 207 OFFCURVE",
"103 195 OFFCURVE",
"65 170 CURVE SMOOTH",
"22 141 OFFCURVE",
"1 105 OFFCURVE",
"1 60 CURVE SMOOTH",
"1 21 OFFCURVE",
"27 -9 OFFCURVE",
"79 -31 CURVE SMOOTH",
"119 -48 OFFCURVE",
"161 -57 OFFCURVE",
"206 -57 CURVE SMOOTH"
);
},
{
closed = 1;
nodes = (
"171 -35 OFFCURVE",
"138 -28 OFFCURVE",
"106 -14 CURVE SMOOTH",
"65 4 OFFCURVE",
"45 27 OFFCURVE",
"45 58 CURVE SMOOTH",
"45 125 OFFCURVE",
"89 166 OFFCURVE",
"178 181 CURVE",
"144 98 OFFCURVE",
"127 42 OFFCURVE",
"127 12 CURVE SMOOTH",
"127 -6 OFFCURVE",
"132 -15 OFFCURVE",
"143 -15 CURVE SMOOTH",
"150 -15 OFFCURVE",
"154 -11 OFFCURVE",
"154 -2 CURVE SMOOTH",
"154 0 OFFCURVE",
"154 3 OFFCURVE",
"153 6 CURVE SMOOTH",
"152 9 OFFCURVE",
"152 12 OFFCURVE",
"152 14 CURVE SMOOTH",
"152 43 OFFCURVE",
"172 100 OFFCURVE",
"212 185 CURVE",
"221 186 OFFCURVE",
"231 186 OFFCURVE",
"241 186 CURVE SMOOTH",
"293 186 OFFCURVE",
"346 178 OFFCURVE",
"400 161 CURVE SMOOTH",
"457 143 OFFCURVE",
"504 118 OFFCURVE",
"541 87 CURVE",
"466 6 OFFCURVE",
"354 -35 OFFCURVE",
"206 -35 CURVE SMOOTH"
);
}
);
width = 630;
},
{
layerId = "A9A9B55F-A222-44B0-A0B6-968BE501F3F8";
paths = (
{
closed = 1;
nodes = (
"358 -58 OFFCURVE",
"529 -23 OFFCURVE",
"641 66 CURVE",
"653 53 OFFCURVE",
"667 30 OFFCURVE",
"674 17 CURVE SMOOTH",
"676 13 OFFCURVE",
"679 12 OFFCURVE",
"681 12 CURVE SMOOTH",
"685 12 OFFCURVE",
"689 19 OFFCURVE",
"689 28 CURVE SMOOTH",
"689 44 OFFCURVE",
"673 75 OFFCURVE",
"663 86 CURVE",
"691 113 OFFCURVE",
"720 150 OFFCURVE",
"720 192 CURVE SMOOTH",
"720 279 OFFCURVE",
"584 328 OFFCURVE",
"503 335 CURVE",
"562 341 OFFCURVE",
"736 389 OFFCURVE",
"736 466 CURVE SMOOTH",
"736 561 OFFCURVE",
"453 574 OFFCURVE",
"393 574 CURVE SMOOTH",
"338 574 OFFCURVE",
"49 565 OFFCURVE",
"46 480 CURVE SMOOTH",
"46 470 OFFCURVE",
"52 466 OFFCURVE",
"60 466 CURVE SMOOTH",
"71 466 OFFCURVE",
"122 486 OFFCURVE",
"140 491 CURVE SMOOTH",
"240 519 OFFCURVE",
"324 536 OFFCURVE",
"426 536 CURVE SMOOTH",
"464 536 OFFCURVE",
"688 530 OFFCURVE",
"686 473 CURVE SMOOTH",
"685 460 OFFCURVE",
"670 447 OFFCURVE",
"661 440 CURVE SMOOTH",
"587 377 OFFCURVE",
"503 376 OFFCURVE",
"411 357 CURVE SMOOTH",
"396 354 OFFCURVE",
"373 349 OFFCURVE",
"373 328 CURVE SMOOTH",
"373 308 OFFCURVE",
"406 313 OFFCURVE",
"418 313 CURVE SMOOTH",
"480 313 OFFCURVE",
"658 290 OFFCURVE",
"658 195 CURVE SMOOTH",
"658 167 OFFCURVE",
"641 143 OFFCURVE",
"625 123 CURVE",
"527 199 OFFCURVE",
"387 218 OFFCURVE",
"267 221 CURVE",
"320 310 OFFCURVE",
"378 396 OFFCURVE",
"443 474 CURVE",
"452 483 OFFCURVE",
"466 497 OFFCURVE",
"469 509 CURVE",
"467 521 OFFCURVE",
"455 523 OFFCURVE",
"447 523 CURVE SMOOTH",
"423 523 OFFCURVE",
"402 519 OFFCURVE",
"385 499 CURVE SMOOTH",
"324 430 OFFCURVE",
"259 306 OFFCURVE",
"215 221 CURVE",
"135 215 OFFCURVE",
"-3 174 OFFCURVE",
"-3 62 CURVE SMOOTH",
"-3 -32 OFFCURVE",
"163 -58 OFFCURVE",
"226 -58 CURVE SMOOTH"
);
},
{
closed = 1;
nodes = (
"113 -12 OFFCURVE",
"57 11 OFFCURVE",
"58 57 CURVE SMOOTH",
"61 139 OFFCURVE",
"135 168 OFFCURVE",
"193 178 CURVE",
"174 138 OFFCURVE",
"136 60 OFFCURVE",
"135 17 CURVE SMOOTH",
"134 3 OFFCURVE",
"137 -14 OFFCURVE",
"144 -21 CURVE"
);
},
{
closed = 1;
nodes = (
"205 -34 OFFCURVE",
"182 -31 OFFCURVE",
"160 -26 CURVE",
"169 -26 OFFCURVE",
"176 -8 OFFCURVE",
"176 3 CURVE SMOOTH",
"178 51 OFFCURVE",
"216 129 OFFCURVE",
"246 184 CURVE",
"258 185 LINE SMOOTH",
"271 186 OFFCURVE",
"285 186 OFFCURVE",
"298 186 CURVE SMOOTH",
"415 186 OFFCURVE",
"530 158 OFFCURVE",
"610 98 CURVE",
"506 2 OFFCURVE",
"353 -34 OFFCURVE",
"227 -34 CURVE SMOOTH"
);
}
);
width = 702;
},
{
layerId = "AFE3E0A9-A514-4B93-8E4E-B7D18C88F31C";
paths = (
{
closed = 1;
nodes = (
"401 -58 OFFCURVE",
"590 -23 OFFCURVE",
"711 66 CURVE",
"722 55 OFFCURVE",
"738 34 OFFCURVE",
"750 16 CURVE SMOOTH",
"752 13 OFFCURVE",
"754 11 OFFCURVE",
"757 11 CURVE SMOOTH",
"762 11 OFFCURVE",
"766 19 OFFCURVE",
"766 28 CURVE SMOOTH",
"766 44 OFFCURVE",
"746 75 OFFCURVE",
"735 86 CURVE",
"763 112 OFFCURVE",
"793 148 OFFCURVE",
"793 189 CURVE SMOOTH",
"793 278 OFFCURVE",
"638 328 OFFCURVE",
"547 335 CURVE",
"612 341 OFFCURVE",
"801 388 OFFCURVE",
"801 464 CURVE SMOOTH",
"801 560 OFFCURVE",
"486 574 OFFCURVE",
"416 574 CURVE SMOOTH",
"354 574 OFFCURVE",
"33 565 OFFCURVE",
"33 480 CURVE SMOOTH",
"33 470 OFFCURVE",
"41 466 OFFCURVE",
"50 466 CURVE SMOOTH",
"62 466 OFFCURVE",
"119 486 OFFCURVE",
"138 491 CURVE SMOOTH",
"248 519 OFFCURVE",
"340 536 OFFCURVE",
"453 536 CURVE SMOOTH",
"496 536 OFFCURVE",
"744 530 OFFCURVE",
"744 473 CURVE SMOOTH",
"744 459 OFFCURVE",
"727 447 OFFCURVE",
"717 439 CURVE SMOOTH",
"639 377 OFFCURVE",
"536 374 OFFCURVE",
"443 357 CURVE SMOOTH",
"427 354 OFFCURVE",
"402 349 OFFCURVE",
"402 328 CURVE SMOOTH",
"402 308 OFFCURVE",
"440 313 OFFCURVE",
"453 313 CURVE SMOOTH",
"523 313 OFFCURVE",
"724 290 OFFCURVE",
"724 193 CURVE SMOOTH",
"724 166 OFFCURVE",
"708 142 OFFCURVE",
"691 123 CURVE",
"579 199 OFFCURVE",
"422 218 OFFCURVE",
"289 221 CURVE",
"345 312 OFFCURVE",
"414 406 OFFCURVE",
"475 474 CURVE SMOOTH",
"483 482 OFFCURVE",
"499 497 OFFCURVE",
"502 509 CURVE",
"500 521 OFFCURVE",
"487 523 OFFCURVE",
"478 523 CURVE SMOOTH",
"451 523 OFFCURVE",
"428 519 OFFCURVE",
"409 499 CURVE SMOOTH",
"344 430 OFFCURVE",
"277 306 OFFCURVE",
"231 221 CURVE",
"143 215 OFFCURVE",
"-6 175 OFFCURVE",
"-6 65 CURVE SMOOTH",
"-6 -32 OFFCURVE",
"183 -58 OFFCURVE",
"255 -58 CURVE SMOOTH"
);
},
{
closed = 1;
nodes = (
"127 -12 OFFCURVE",
"63 11 OFFCURVE",
"63 57 CURVE SMOOTH",
"63 139 OFFCURVE",
"144 168 OFFCURVE",
"209 178 CURVE",
"189 138 OFFCURVE",
"150 60 OFFCURVE",
"150 17 CURVE SMOOTH",
"150 6 OFFCURVE",
"153 -14 OFFCURVE",
"162 -21 CURVE"
);
},
{
closed = 1;
nodes = (
"230 -34 OFFCURVE",
"204 -31 OFFCURVE",
"180 -26 CURVE",
"190 -26 OFFCURVE",
"197 -8 OFFCURVE",
"197 3 CURVE SMOOTH",
"197 50 OFFCURVE",
"233 125 OFFCURVE",
"267 184 CURVE",
"280 185 LINE SMOOTH",
"295 186 OFFCURVE",
"310 186 OFFCURVE",
"325 186 CURVE SMOOTH",
"456 186 OFFCURVE",
"584 158 OFFCURVE",
"674 98 CURVE",
"563 2 OFFCURVE",
"394 -34 OFFCURVE",
"255 -34 CURVE SMOOTH"
);
}
);
width = 780;
}
);
note = B;
unicode = 0042;
},
{
glyphname = C;
lastChange = "2021-08-19 13:53:35 +0000";
layers = (
{
anchors = (
{
name = bottom;
position = "{229, -30}";
},
{
name = top;
position = "{599, 535}";
}
);
layerId = "57DEED6F-9A00-47D0-BD9B-6FE09716AB2D";
paths = (
{
closed = 1;
nodes = (
"279 -42 OFFCURVE",
"346 -25 OFFCURVE",
"419 10 CURVE SMOOTH",
"483 40 OFFCURVE",
"540 76 OFFCURVE",
"592 124 CURVE SMOOTH",
"595 127 OFFCURVE",
"596 130 OFFCURVE",
"596 133 CURVE SMOOTH",
"596 142 OFFCURVE",
"597 140 OFFCURVE",
"589 140 CURVE SMOOTH",
"586 140 OFFCURVE",
"584 139 OFFCURVE",
"581 136 CURVE SMOOTH",
"467 40 OFFCURVE",
"350 -8 OFFCURVE",
"229 -8 CURVE SMOOTH",
"192 -8 OFFCURVE",
"162 0 OFFCURVE",
"140 18 CURVE SMOOTH",
"115 38 OFFCURVE",
"102 74 OFFCURVE",
"102 111 CURVE SMOOTH",
"102 253 OFFCURVE",
"243 376 OFFCURVE",
"360 444 CURVE SMOOTH",
"431 485 OFFCURVE",
"499 510 OFFCURVE",
"556 516 CURVE SMOOTH",
"567 517 OFFCURVE",
"578 518 OFFCURVE",
"589 518 CURVE SMOOTH",
"644 518 OFFCURVE",
"672 502 OFFCURVE",
"672 469 CURVE SMOOTH",
"672 436 OFFCURVE",
"650 402 OFFCURVE",
"605 368 CURVE SMOOTH",
"560 334 OFFCURVE",
"520 317 OFFCURVE",
"485 317 CURVE SMOOTH",
"451 317 OFFCURVE",
"434 330 OFFCURVE",
"434 356 CURVE SMOOTH",
"434 358 OFFCURVE",
"434 361 OFFCURVE",
"435 365 CURVE SMOOTH",
"436 369 OFFCURVE",
"436 372 OFFCURVE",
"436 374 CURVE SMOOTH",
"436 380 OFFCURVE",
"434 383 OFFCURVE",
"429 383 CURVE SMOOTH",
"417 383 OFFCURVE",
"411 370 OFFCURVE",
"411 343 CURVE SMOOTH",
"411 306 OFFCURVE",
"435 287 OFFCURVE",
"484 287 CURVE SMOOTH",
"531 287 OFFCURVE",
"578 306 OFFCURVE",
"625 342 CURVE SMOOTH",
"675 380 OFFCURVE",
"700 422 OFFCURVE",
"700 467 CURVE SMOOTH",
"700 519 OFFCURVE",
"662 545 OFFCURVE",
"587 545 CURVE SMOOTH",
"500 545 OFFCURVE",
"411 517 OFFCURVE",
"321 462 CURVE SMOOTH",
"200 388 OFFCURVE",
"49 239 OFFCURVE",
"49 92 CURVE SMOOTH",
"49 46 OFFCURVE",
"67 11 OFFCURVE",
"102 -12 CURVE SMOOTH",
"132 -32 OFFCURVE",
"171 -42 OFFCURVE",
"220 -42 CURVE SMOOTH"
);
}
);
width = 568;
},
{
anchors = (
{
name = bottom;
position = "{223, -43}";
},
{
name = top;
position = "{644, 545}";
}
);
layerId = "A9A9B55F-A222-44B0-A0B6-968BE501F3F8";
paths = (
{
closed = 1;
nodes = (
"345 -43 OFFCURVE",
"577 28 OFFCURVE",
"660 142 CURVE SMOOTH",
"664 147 OFFCURVE",
"662 154 OFFCURVE",
"655 154 CURVE SMOOTH",
"652 154 OFFCURVE",
"648 153 OFFCURVE",
"644 151 CURVE",
"628 132 OFFCURVE",
"581 95 OFFCURVE",
"560 82 CURVE SMOOTH",
"458 19 OFFCURVE",
"352 -10 OFFCURVE",
"236 -10 CURVE SMOOTH",
"171 -10 OFFCURVE",
"103 26 OFFCURVE",
"103 111 CURVE SMOOTH",
"103 269 OFFCURVE",
"401 517 OFFCURVE",
"653 517 CURVE SMOOTH",
"705 517 OFFCURVE",
"744 497 OFFCURVE",
"744 459 CURVE SMOOTH",
"744 443 OFFCURVE",
"737 424 OFFCURVE",
"721 402 CURVE SMOOTH",
"681 346 OFFCURVE",
"597 310 OFFCURVE",
"537 310 CURVE SMOOTH",
"487 310 OFFCURVE",
"473 328 OFFCURVE",
"473 358 CURVE SMOOTH",
"473 364 OFFCURVE",
"475 372 OFFCURVE",
"475 379 CURVE SMOOTH",
"475 385 OFFCURVE",
"473 391 OFFCURVE",
"462 391 CURVE SMOOTH",
"452 391 OFFCURVE",
"443 363 OFFCURVE",
"443 345 CURVE SMOOTH",
"443 295 OFFCURVE",
"491 286 OFFCURVE",
"528 286 CURVE SMOOTH",
"615 286 OFFCURVE",
"782 353 OFFCURVE",
"782 475 CURVE SMOOTH",
"782 537 OFFCURVE",
"725 556 OFFCURVE",
"652 556 CURVE SMOOTH",
"554 556 OFFCURVE",
"451 527 OFFCURVE",
"350 472 CURVE SMOOTH",
"227 405 OFFCURVE",
"32 254 OFFCURVE",
"32 91 CURVE SMOOTH",
"32 -17 OFFCURVE",
"143 -43 OFFCURVE",
"223 -43 CURVE SMOOTH"
);
}
);
width = 687;
},
{
anchors = (
{
name = bottom;
position = "{241, -37}";
},
{
name = top;
position = "{693, 545}";
}
);
layerId = "AFE3E0A9-A514-4B93-8E4E-B7D18C88F31C";
paths = (
{
closed = 1;
nodes = (
"388 -43 OFFCURVE",
"643 28 OFFCURVE",
"731 142 CURVE SMOOTH",
"735 148 OFFCURVE",
"733 154 OFFCURVE",
"725 154 CURVE SMOOTH",
"722 154 OFFCURVE",
"718 153 OFFCURVE",
"713 151 CURVE",
"689 126 OFFCURVE",
"640 92 OFFCURVE",
"622 82 CURVE SMOOTH",
"511 19 OFFCURVE",
"394 -10 OFFCURVE",
"266 -10 CURVE SMOOTH",
"192 -10 OFFCURVE",
"113 28 OFFCURVE",
"113 116 CURVE SMOOTH",
"113 275 OFFCURVE",
"432 517 OFFCURVE",
"709 517 CURVE SMOOTH",
"768 517 OFFCURVE",
"812 496 OFFCURVE",
"812 457 CURVE SMOOTH",
"812 441 OFFCURVE",
"805 423 OFFCURVE",
"789 402 CURVE SMOOTH",
"747 346 OFFCURVE",
"654 310 OFFCURVE",
"588 310 CURVE SMOOTH",
"532 310 OFFCURVE",
"514 328 OFFCURVE",
"514 358 CURVE SMOOTH",
"514 364 OFFCURVE",
"516 371 OFFCURVE",
"516 378 CURVE SMOOTH",
"516 385 OFFCURVE",
"513 391 OFFCURVE",
"501 391 CURVE SMOOTH",
"491 391 OFFCURVE",
"482 366 OFFCURVE",
"482 348 CURVE SMOOTH",
"482 295 OFFCURVE",
"537 286 OFFCURVE",
"579 286 CURVE SMOOTH",
"672 286 OFFCURVE",
"853 350 OFFCURVE",
"853 472 CURVE SMOOTH",
"853 547 OFFCURVE",
"763 556 OFFCURVE",
"706 556 CURVE SMOOTH",
"597 556 OFFCURVE",
"486 528 OFFCURVE",
"374 472 CURVE SMOOTH",
"247 409 OFFCURVE",
"34 260 OFFCURVE",
"34 97 CURVE SMOOTH",
"34 -16 OFFCURVE",
"162 -43 OFFCURVE",
"252 -43 CURVE SMOOTH"
);
}
);
width = 766;
}
);
note = C;
unicode = 0043;
},
{
glyphname = D;
lastChange = "2021-08-19 14:12:36 +0000";
layers = (
{
anchors = (
{
name = bottom;
position = "{393, 0}";
},
{
name = center;
position = "{244, 278}";
},
{
name = top;
position = "{609, 535}";
}
);
background = {
paths = (
{
closed = 1;
nodes = (
"374 -58 OFFCURVE",
"489 -28 OFFCURVE",
"589 32 CURVE",
"596 21 OFFCURVE",
"600 16 OFFCURVE",
"603 16 CURVE SMOOTH",
"610 16 OFFCURVE",
"613 21 OFFCURVE",
"613 30 CURVE SMOOTH",
"613 33 OFFCURVE",
"612 38 OFFCURVE",
"609 44 CURVE",
"704 107 OFFCURVE",
"786 207 OFFCURVE",
"786 316 CURVE SMOOTH",
"786 488 OFFCURVE",
"580 566 OFFCURVE",
"380 566 CURVE SMOOTH",
"299 566 OFFCURVE",
"164 549 OFFCURVE",
"100 515 CURVE SMOOTH",
"79 504 OFFCURVE",
"69 491 OFFCURVE",
"69 476 CURVE SMOOTH",
"69 466 OFFCURVE",
"73 461 OFFCURVE",
"82 461 CURVE SMOOTH",
"85 461 OFFCURVE",
"90 462 OFFCURVE",
"95 465 CURVE SMOOTH",
"182 514 OFFCURVE",
"282 539 OFFCURVE",
"395 539 CURVE SMOOTH",
"564 539 OFFCURVE",
"747 474 OFFCURVE",
"747 321 CURVE SMOOTH",
"747 226 OFFCURVE",
"677 136 OFFCURVE",
"590 75 CURVE",
"525 161 OFFCURVE",
"402 206 OFFCURVE",
"223 210 CURVE",
"276 317 OFFCURVE",
"331 408 OFFCURVE",
"388 486 CURVE SMOOTH",
"395 494 OFFCURVE",
"399 501 OFFCURVE",
"399 504 CURVE SMOOTH",
"399 509 OFFCURVE",
"394 512 OFFCURVE",
"385 512 CURVE SMOOTH",
"362 512 OFFCURVE",
"344 505 OFFCURVE",
"334 490 CURVE SMOOTH",
"298 439 OFFCURVE",
"226 297 OFFCURVE",
"189 210 CURVE",
"94 204 OFFCURVE",
"0 153 OFFCURVE",
"0 60 CURVE SMOOTH",
"0 -3 OFFCURVE",
"77 -40 OFFCURVE",
"165 -53 CURVE SMOOTH",
"191 -57 OFFCURVE",
"218 -58 OFFCURVE",
"244 -58 CURVE SMOOTH"
);
},
{
closed = 1;
nodes = (
"212 -35 OFFCURVE",
"195 -35 OFFCURVE",
"177 -33 CURVE SMOOTH",
"106 -23 OFFCURVE",
"44 6 OFFCURVE",
"44 58 CURVE SMOOTH",
"44 125 OFFCURVE",
"88 166 OFFCURVE",
"177 181 CURVE",
"143 98 OFFCURVE",
"126 42 OFFCURVE",
"126 12 CURVE SMOOTH",
"126 -6 OFFCURVE",
"131 -15 OFFCURVE",
"142 -15 CURVE SMOOTH",
"149 -15 OFFCURVE",
"154 -11 OFFCURVE",
"154 -2 CURVE SMOOTH",
"154 3 OFFCURVE",
"151 9 OFFCURVE",
"151 14 CURVE SMOOTH",
"151 43 OFFCURVE",
"171 100 OFFCURVE",
"211 185 CURVE",
"220 186 OFFCURVE",
"228 186 OFFCURVE",
"237 186 CURVE SMOOTH",
"343 186 OFFCURVE",
"503 140 OFFCURVE",
"568 60 CURVE",
"469 -3 OFFCURVE",
"357 -35 OFFCURVE",
"230 -35 CURVE SMOOTH"
);
}
);
};
layerId = "57DEED6F-9A00-47D0-BD9B-6FE09716AB2D";
paths = (
{
closed = 1;
nodes = (
"374 -58 OFFCURVE",
"489 -28 OFFCURVE",
"589 32 CURVE",
"596 21 OFFCURVE",
"600 16 OFFCURVE",
"603 16 CURVE SMOOTH",
"610 16 OFFCURVE",
"613 21 OFFCURVE",
"613 30 CURVE SMOOTH",
"613 33 OFFCURVE",
"612 38 OFFCURVE",
"609 44 CURVE",
"704 107 OFFCURVE",
"786 207 OFFCURVE",
"786 316 CURVE SMOOTH",
"786 488 OFFCURVE",
"580 566 OFFCURVE",
"380 566 CURVE SMOOTH",
"299 566 OFFCURVE",
"164 549 OFFCURVE",
"100 515 CURVE SMOOTH",
"79 504 OFFCURVE",
"69 491 OFFCURVE",
"69 476 CURVE SMOOTH",
"69 466 OFFCURVE",
"73 461 OFFCURVE",
"82 461 CURVE SMOOTH",
"85 461 OFFCURVE",
"90 462 OFFCURVE",
"95 465 CURVE SMOOTH",
"182 514 OFFCURVE",
"282 539 OFFCURVE",
"395 539 CURVE SMOOTH",
"564 539 OFFCURVE",
"747 474 OFFCURVE",
"747 321 CURVE SMOOTH",
"747 226 OFFCURVE",
"677 136 OFFCURVE",
"590 75 CURVE",
"525 161 OFFCURVE",
"402 206 OFFCURVE",
"223 210 CURVE",
"276 317 OFFCURVE",
"331 408 OFFCURVE",
"388 486 CURVE SMOOTH",
"395 494 OFFCURVE",
"399 501 OFFCURVE",
"399 504 CURVE SMOOTH",
"399 509 OFFCURVE",
"394 512 OFFCURVE",
"385 512 CURVE SMOOTH",
"362 512 OFFCURVE",
"344 505 OFFCURVE",
"334 490 CURVE SMOOTH",
"298 439 OFFCURVE",
"226 297 OFFCURVE",
"189 210 CURVE",
"94 204 OFFCURVE",
"0 153 OFFCURVE",
"0 60 CURVE SMOOTH",
"0 -3 OFFCURVE",
"77 -40 OFFCURVE",
"165 -53 CURVE SMOOTH",
"191 -57 OFFCURVE",
"218 -58 OFFCURVE",
"244 -58 CURVE SMOOTH"
);
},
{
closed = 1;
nodes = (
"212 -35 OFFCURVE",
"195 -35 OFFCURVE",
"177 -33 CURVE SMOOTH",
"106 -23 OFFCURVE",
"44 6 OFFCURVE",
"44 58 CURVE SMOOTH",
"44 125 OFFCURVE",
"88 166 OFFCURVE",
"177 181 CURVE",
"143 98 OFFCURVE",
"126 42 OFFCURVE",
"126 12 CURVE SMOOTH",
"126 -6 OFFCURVE",
"131 -15 OFFCURVE",
"142 -15 CURVE SMOOTH",
"149 -15 OFFCURVE",
"154 -11 OFFCURVE",
"154 -2 CURVE SMOOTH",
"154 3 OFFCURVE",
"151 9 OFFCURVE",
"151 14 CURVE SMOOTH",
"151 43 OFFCURVE",
"171 100 OFFCURVE",
"211 185 CURVE",
"220 186 OFFCURVE",
"228 186 OFFCURVE",
"237 186 CURVE SMOOTH",
"343 186 OFFCURVE",
"503 140 OFFCURVE",
"568 60 CURVE",
"469 -3 OFFCURVE",
"357 -35 OFFCURVE",
"230 -35 CURVE SMOOTH"
);
}
);
width = 786;
},
{
anchors = (
{
name = bottom;
position = "{450, 0}";
},
{
name = center;
position = "{286, 284}";
},
{
name = top;
position = "{688, 545}";
}
);
layerId = "A9A9B55F-A222-44B0-A0B6-968BE501F3F8";
paths = (
{
closed = 1;
nodes = (
"407 -59 OFFCURVE",
"542 -40 OFFCURVE",
"673 29 CURVE",
"677 25 OFFCURVE",
"685 15 OFFCURVE",
"690 15 CURVE SMOOTH",
"699 15 OFFCURVE",
"702 19 OFFCURVE",
"702 25 CURVE SMOOTH",
"702 31 OFFCURVE",
"699 38 OFFCURVE",
"696 43 CURVE",
"777 94 OFFCURVE",
"911 204 OFFCURVE",
"911 329 CURVE SMOOTH",
"911 535 OFFCURVE",
"601 577 OFFCURVE",
"461 577 CURVE SMOOTH",
"406 577 OFFCURVE",
"106 562 OFFCURVE",
"106 479 CURVE SMOOTH",
"106 466 OFFCURVE",
"114 460 OFFCURVE",
"125 460 CURVE SMOOTH",
"140 460 OFFCURVE",
"183 483 OFFCURVE",
"201 490 CURVE SMOOTH",
"290 524 OFFCURVE",
"378 545 OFFCURVE",
"471 545 CURVE SMOOTH",
"586 545 OFFCURVE",
"856 504 OFFCURVE",
"856 332 CURVE SMOOTH",
"856 225 OFFCURVE",
"740 126 OFFCURVE",
"671 81 CURVE",
"590 180 OFFCURVE",
"418 219 OFFCURVE",
"290 222 CURVE",
"342 311 OFFCURVE",
"407 394 OFFCURVE",
"473 472 CURVE SMOOTH",
"488 489 OFFCURVE",
"496 499 OFFCURVE",
"498 507 CURVE",
"497 519 OFFCURVE",
"473 523 OFFCURVE",
"464 523 CURVE SMOOTH",
"440 523 OFFCURVE",
"421 518 OFFCURVE",
"403 499 CURVE SMOOTH",
"361 456 OFFCURVE",
"264 282 OFFCURVE",
"232 221 CURVE",
"152 215 OFFCURVE",
"14 175 OFFCURVE",
"14 63 CURVE SMOOTH",
"14 -35 OFFCURVE",
"200 -59 OFFCURVE",
"265 -59 CURVE SMOOTH"
);
},
{
closed = 1;
nodes = (
"130 -12 OFFCURVE",
"75 17 OFFCURVE",
"75 62 CURVE SMOOTH",
"75 141 OFFCURVE",
"158 179 OFFCURVE",
"217 189 CURVE",
"197 149 OFFCURVE",
"155 49 OFFCURVE",
"153 6 CURVE SMOOTH",
"153 -3 OFFCURVE",
"155 -14 OFFCURVE",
"160 -21 CURVE"
);
},
{
closed = 1;
nodes = (
"243 -35 OFFCURVE",
"212 -34 OFFCURVE",
"182 -27 CURVE",
"190 -25 OFFCURVE",
"195 -17 OFFCURVE",
"195 -8 CURVE SMOOTH",
"197 60 OFFCURVE",
"241 133 OFFCURVE",
"273 191 CURVE",
"283 192 LINE SMOOTH",
"293 193 OFFCURVE",
"304 193 OFFCURVE",
"314 193 CURVE SMOOTH",
"425 193 OFFCURVE",
"568 143 OFFCURVE",
"643 66 CURVE",
"527 3 OFFCURVE",
"400 -35 OFFCURVE",
"274 -35 CURVE SMOOTH"
);
}
);
width = 900;
},
{
anchors = (
{
name = bottom;
position = "{500, 0}";
},
{
name = center;
position = "{317, 273}";
},
{
name = top;
position = "{713, 545}";
}
);
layerId = "AFE3E0A9-A514-4B93-8E4E-B7D18C88F31C";
paths = (
{
closed = 1;
nodes = (
"456 -59 OFFCURVE",
"604 -40 OFFCURVE",
"748 29 CURVE",
"752 25 OFFCURVE",
"761 15 OFFCURVE",
"767 15 CURVE SMOOTH",
"777 15 OFFCURVE",
"780 19 OFFCURVE",
"780 24 CURVE SMOOTH",
"780 31 OFFCURVE",
"776 38 OFFCURVE",
"772 43 CURVE",
"859 93 OFFCURVE",
"1001 199 OFFCURVE",
"1001 321 CURVE SMOOTH",
"1001 534 OFFCURVE",
"649 577 OFFCURVE",
"491 577 CURVE SMOOTH",
"430 577 OFFCURVE",
"100 562 OFFCURVE",
"100 481 CURVE SMOOTH",
"100 467 OFFCURVE",
"109 460 OFFCURVE",
"122 460 CURVE SMOOTH",
"139 460 OFFCURVE",
"186 483 OFFCURVE",
"206 490 CURVE SMOOTH",
"303 524 OFFCURVE",
"400 545 OFFCURVE",
"503 545 CURVE SMOOTH",
"632 545 OFFCURVE",
"939 503 OFFCURVE",
"939 326 CURVE SMOOTH",
"939 222 OFFCURVE",
"817 125 OFFCURVE",
"743 81 CURVE",
"650 180 OFFCURVE",
"457 219 OFFCURVE",
"314 222 CURVE",
"361 298 OFFCURVE",
"420 374 OFFCURVE",
"508 472 CURVE SMOOTH",
"516 481 OFFCURVE",
"532 495 OFFCURVE",
"535 507 CURVE",
"533 519 OFFCURVE",
"507 523 OFFCURVE",
"497 523 CURVE SMOOTH",
"470 523 OFFCURVE",
"449 518 OFFCURVE",
"429 499 CURVE SMOOTH",
"385 456 OFFCURVE",
"283 282 OFFCURVE",
"250 221 CURVE",
"162 215 OFFCURVE",
"14 176 OFFCURVE",
"14 65 CURVE SMOOTH",
"14 -35 OFFCURVE",
"225 -59 OFFCURVE",
"298 -59 CURVE SMOOTH"
);
},
{
closed = 1;
nodes = (
"146 -12 OFFCURVE",
"82 18 OFFCURVE",
"82 63 CURVE SMOOTH",
"82 142 OFFCURVE",
"170 179 OFFCURVE",
"234 189 CURVE",
"215 149 OFFCURVE",
"171 49 OFFCURVE",
"171 6 CURVE SMOOTH",
"171 -4 OFFCURVE",
"173 -14 OFFCURVE",
"180 -21 CURVE"
);
},
{
closed = 1;
nodes = (
"272 -35 OFFCURVE",
"238 -34 OFFCURVE",
"204 -27 CURVE",
"213 -25 OFFCURVE",
"218 -17 OFFCURVE",
"218 -8 CURVE SMOOTH",
"218 60 OFFCURVE",
"263 133 OFFCURVE",
"297 191 CURVE",
"308 192 LINE SMOOTH",
"319 193 OFFCURVE",
"331 193 OFFCURVE",
"343 193 CURVE SMOOTH",
"465 193 OFFCURVE",
"627 143 OFFCURVE",
"713 66 CURVE",
"587 3 OFFCURVE",
"447 -35 OFFCURVE",
"307 -35 CURVE SMOOTH"
);
}
);
width = 1000;
}
);
note = D;
unicode = 0044;
},
{
glyphname = Dcroat;
lastChange = "2021-08-18 15:15:43 +0000";
layers = (
{
components = (
{
name = Eth;
}
);
layerId = "57DEED6F-9A00-47D0-BD9B-6FE09716AB2D";
width = 786;
},
{
components = (
{
name = Eth;
}
);
layerId = "A9A9B55F-A222-44B0-A0B6-968BE501F3F8";
width = 900;
},
{
layerId = "AFE3E0A9-A514-4B93-8E4E-B7D18C88F31C";
paths = (
{
closed = 1;
nodes = (
"456 -69 OFFCURVE",
"604 -50 OFFCURVE",
"748 19 CURVE",
"752 15 OFFCURVE",
"761 5 OFFCURVE",
"767 5 CURVE SMOOTH",
"777 5 OFFCURVE",
"780 9 OFFCURVE",
"780 14 CURVE SMOOTH",
"780 21 OFFCURVE",
"776 28 OFFCURVE",
"772 33 CURVE",
"859 83 OFFCURVE",
"1001 189 OFFCURVE",
"1001 311 CURVE SMOOTH",
"1001 524 OFFCURVE",
"649 567 OFFCURVE",
"491 567 CURVE SMOOTH",
"430 567 OFFCURVE",
"100 552 OFFCURVE",
"100 471 CURVE SMOOTH",
"100 457 OFFCURVE",
"109 450 OFFCURVE",
"122 450 CURVE SMOOTH",
"139 450 OFFCURVE",
"187 473 OFFCURVE",
"206 480 CURVE SMOOTH",
"303 514 OFFCURVE",
"400 535 OFFCURVE",
"503 535 CURVE SMOOTH",
"632 535 OFFCURVE",
"939 493 OFFCURVE",
"939 316 CURVE SMOOTH",
"939 212 OFFCURVE",
"817 115 OFFCURVE",
"743 71 CURVE",
"650 170 OFFCURVE",
"457 209 OFFCURVE",
"314 212 CURVE",
"369 301 OFFCURVE",
"438 384 OFFCURVE",
"508 462 CURVE SMOOTH",
"516 471 OFFCURVE",
"532 485 OFFCURVE",
"535 497 CURVE",
"533 509 OFFCURVE",
"507 513 OFFCURVE",
"497 513 CURVE SMOOTH",
"470 513 OFFCURVE",
"449 508 OFFCURVE",
"429 489 CURVE SMOOTH",
"385 446 OFFCURVE",
"283 272 OFFCURVE",
"250 211 CURVE",
"162 205 OFFCURVE",
"14 166 OFFCURVE",
"14 55 CURVE SMOOTH",
"14 -45 OFFCURVE",
"225 -69 OFFCURVE",
"298 -69 CURVE SMOOTH"
);
},
{
closed = 1;
nodes = (
"146 -22 OFFCURVE",
"82 8 OFFCURVE",
"82 53 CURVE SMOOTH",
"82 132 OFFCURVE",
"170 169 OFFCURVE",
"234 179 CURVE",
"215 139 OFFCURVE",
"171 39 OFFCURVE",
"171 -4 CURVE SMOOTH",
"171 -14 OFFCURVE",
"173 -24 OFFCURVE",
"180 -31 CURVE"
);
},
{
closed = 1;
nodes = (
"272 -45 OFFCURVE",
"238 -44 OFFCURVE",
"204 -37 CURVE",
"213 -35 OFFCURVE",
"218 -27 OFFCURVE",
"218 -18 CURVE SMOOTH",
"218 50 OFFCURVE",
"263 123 OFFCURVE",
"297 181 CURVE",
"308 182 LINE SMOOTH",
"432 188 OFFCURVE",
"619 141 OFFCURVE",
"713 56 CURVE",
"587 -7 OFFCURVE",
"447 -45 OFFCURVE",
"307 -45 CURVE SMOOTH"
);
},
{
closed = 1;
nodes = (
"289 258 OFFCURVE",
"339 260 OFFCURVE",
"391 263 CURVE SMOOTH",
"400 264 OFFCURVE",
"458 268 OFFCURVE",
"458 278 CURVE SMOOTH",
"458 299 OFFCURVE",
"324 297 OFFCURVE",
"304 297 CURVE SMOOTH",
"282 297 OFFCURVE",
"202 294 OFFCURVE",
"202 271 CURVE SMOOTH",
"202 259 OFFCURVE",
"223 258 OFFCURVE",
"235 258 CURVE SMOOTH"
);
}
);
width = 1000;
}
);
unicode = 0110;
},
{
glyphname = E;
lastChange = "2021-08-19 13:53:43 +0000";
layers = (
{
anchors = (
{
name = bottom;
position = "{203, -32}";
},
{
name = ogonek;
position = "{408, 21}";
},
{
name = top;
position = "{556, 535}";
},
{
name = topleft;
position = "{20, 535}";
}
);
layerId = "57DEED6F-9A00-47D0-BD9B-6FE09716AB2D";
paths = (
{
closed = 1;
nodes = (
"263 -42 OFFCURVE",
"329 -24 OFFCURVE",
"402 10 CURVE SMOOTH",
"467 41 OFFCURVE",
"527 79 OFFCURVE",
"576 124 CURVE SMOOTH",
"579 127 OFFCURVE",
"580 130 OFFCURVE",
"580 133 CURVE SMOOTH",
"580 142 OFFCURVE",
"579 142 OFFCURVE",
"570 142 CURVE SMOOTH",
"568 142 OFFCURVE",
"566 141 OFFCURVE",
"563 139 CURVE SMOOTH",
"441 37 OFFCURVE",
"328 -14 OFFCURVE",
"225 -14 CURVE SMOOTH",
"184 -14 OFFCURVE",
"148 -4 OFFCURVE",
"123 14 CURVE SMOOTH",
"91 36 OFFCURVE",
"79 72 OFFCURVE",
"79 112 CURVE SMOOTH",
"79 155 OFFCURVE",
"101 201 OFFCURVE",
"134 251 CURVE",
"217 263 OFFCURVE",
"289 269 OFFCURVE",
"351 269 CURVE SMOOTH",
"364 269 OFFCURVE",
"383 267 OFFCURVE",
"408 263 CURVE SMOOTH",
"432 260 OFFCURVE",
"448 258 OFFCURVE",
"457 258 CURVE SMOOTH",
"466 258 OFFCURVE",
"471 262 OFFCURVE",
"471 271 CURVE SMOOTH",
"471 290 OFFCURVE",
"421 299 OFFCURVE",
"320 299 CURVE SMOOTH",
"271 299 OFFCURVE",
"219 296 OFFCURVE",
"162 289 CURVE",
"211 348 OFFCURVE",
"268 400 OFFCURVE",
"343 444 CURVE SMOOTH",
"427 493 OFFCURVE",
"503 518 OFFCURVE",
"572 518 CURVE SMOOTH",
"627 518 OFFCURVE",
"655 502 OFFCURVE",
"655 469 CURVE SMOOTH",
"655 437 OFFCURVE",
"624 397 OFFCURVE",
"562 349 CURVE SMOOTH",
"556 345 OFFCURVE",
"554 340 OFFCURVE",
"554 335 CURVE SMOOTH",
"554 324 OFFCURVE",
"560 319 OFFCURVE",
"571 319 CURVE SMOOTH",
"575 319 OFFCURVE",
"579 320 OFFCURVE",
"584 323 CURVE SMOOTH",
"610 339 OFFCURVE",
"630 356 OFFCURVE",
"651 384 CURVE SMOOTH",
"673 413 OFFCURVE",
"683 441 OFFCURVE",
"683 467 CURVE SMOOTH",
"683 519 OFFCURVE",
"646 545 OFFCURVE",
"571 545 CURVE SMOOTH",
"486 545 OFFCURVE",
"400 519 OFFCURVE",
"311 466 CURVE SMOOTH",
"234 420 OFFCURVE",
"164 361 OFFCURVE",
"108 284 CURVE",
"68 278 OFFCURVE",
"55 276 OFFCURVE",
"51 274 CURVE SMOOTH",
"37 269 OFFCURVE",
"30 259 OFFCURVE",
"30 242 CURVE SMOOTH",
"30 237 OFFCURVE",
"32 235 OFFCURVE",
"36 235 CURVE",
"82 244 LINE",
"49 189 OFFCURVE",
"33 138 OFFCURVE",
"33 92 CURVE SMOOTH",
"33 46 OFFCURVE",
"50 11 OFFCURVE",
"85 -12 CURVE SMOOTH",
"115 -32 OFFCURVE",
"154 -42 OFFCURVE",
"203 -42 CURVE SMOOTH"
);
}
);
width = 583;
},
{
anchors = (
{
name = bottom;
position = "{211, -32}";
},
{
name = ogonek;
position = "{494, 32}";
},
{
name = top;
position = "{630, 545}";
},
{
name = topleft;
position = "{20, 545}";
}
);
layerId = "A9A9B55F-A222-44B0-A0B6-968BE501F3F8";
paths = (
{
closed = 1;
nodes = (
"440 -43 OFFCURVE",
"660 114 OFFCURVE",
"660 148 CURVE SMOOTH",
"660 151 OFFCURVE",
"656 152 OFFCURVE",
"648 152 CURVE SMOOTH",
"639 152 OFFCURVE",
"502 -3 OFFCURVE",
"249 -3 CURVE SMOOTH",
"155 -3 OFFCURVE",
"101 33 OFFCURVE",
"101 99 CURVE SMOOTH",
"101 141 OFFCURVE",
"124 197 OFFCURVE",
"176 262 CURVE",
"256 272 OFFCURVE",
"284 272 OFFCURVE",
"364 272 CURVE SMOOTH",
"427 272 LINE SMOOTH",
"464 272 OFFCURVE",
"505 272 OFFCURVE",
"529 270 CURVE SMOOTH",
"550 269 OFFCURVE",
"560 274 OFFCURVE",
"560 280 CURVE SMOOTH",
"560 283 OFFCURVE",
"557 287 OFFCURVE",
"551 289 CURVE SMOOTH",
"535 295 OFFCURVE",
"446 304 OFFCURVE",
"361 304 CURVE SMOOTH",
"293 304 LINE SMOOTH",
"267 304 OFFCURVE",
"242 304 OFFCURVE",
"211 301 CURVE",
"324 416 OFFCURVE",
"502 517 OFFCURVE",
"654 517 CURVE SMOOTH",
"681 517 OFFCURVE",
"758 516 OFFCURVE",
"758 474 CURVE SMOOTH",
"758 413 OFFCURVE",
"655 363 OFFCURVE",
"627 339 CURVE SMOOTH",
"621 333 OFFCURVE",
"618 329 OFFCURVE",
"618 326 CURVE SMOOTH",
"618 319 OFFCURVE",
"629 317 OFFCURVE",
"640 317 CURVE SMOOTH",
"648 317 OFFCURVE",
"657 318 OFFCURVE",
"662 320 CURVE SMOOTH",
"723 343 OFFCURVE",
"783 419 OFFCURVE",
"783 475 CURVE SMOOTH",
"783 547 OFFCURVE",
"705 556 OFFCURVE",
"655 556 CURVE SMOOTH",
"470 556 OFFCURVE",
"256 446 OFFCURVE",
"126 295 CURVE",
"97 291 OFFCURVE",
"36 293 OFFCURVE",
"35 247 CURVE SMOOTH",
"35 230 OFFCURVE",
"42 226 OFFCURVE",
"52 226 CURVE SMOOTH",
"62 226 OFFCURVE",
"75 230 OFFCURVE",
"83 232 CURVE",
"55 188 OFFCURVE",
"34 147 OFFCURVE",
"34 93 CURVE SMOOTH",
"34 -20 OFFCURVE",
"145 -43 OFFCURVE",
"224 -43 CURVE SMOOTH"
);
}
);
width = 672;
},
{
anchors = (
{
name = bottom;
position = "{226, -36}";
},
{
name = ogonek;
position = "{521, 32}";
},
{
name = top;
position = "{674, 545}";
},
{
name = topleft;
position = "{0, 545}";
}
);
layerId = "AFE3E0A9-A514-4B93-8E4E-B7D18C88F31C";
paths = (
{
closed = 1;
nodes = (
"453 -43 OFFCURVE",
"675 91 OFFCURVE",
"705 138 CURVE SMOOTH",
"708 142 OFFCURVE",
"709 145 OFFCURVE",
"709 148 CURVE SMOOTH",
"709 151 OFFCURVE",
"705 152 OFFCURVE",
"696 152 CURVE SMOOTH",
"686 152 OFFCURVE",
"539 -3 OFFCURVE",
"258 -3 CURVE SMOOTH",
"152 -3 OFFCURVE",
"89 35 OFFCURVE",
"89 103 CURVE SMOOTH",
"89 145 OFFCURVE",
"114 199 OFFCURVE",
"167 262 CURVE",
"254 272 OFFCURVE",
"286 272 OFFCURVE",
"374 272 CURVE SMOOTH",
"445 272 LINE SMOOTH",
"486 272 OFFCURVE",
"531 272 OFFCURVE",
"558 270 CURVE SMOOTH",
"581 269 OFFCURVE",
"592 274 OFFCURVE",
"592 280 CURVE SMOOTH",
"592 283 OFFCURVE",
"589 287 OFFCURVE",
"582 289 CURVE SMOOTH",
"565 295 OFFCURVE",
"465 304 OFFCURVE",
"370 304 CURVE SMOOTH",
"295 304 LINE SMOOTH",
"266 304 OFFCURVE",
"238 304 OFFCURVE",
"203 301 CURVE",
"325 416 OFFCURVE",
"519 517 OFFCURVE",
"688 517 CURVE SMOOTH",
"718 517 OFFCURVE",
"804 516 OFFCURVE",
"804 473 CURVE SMOOTH",
"804 412 OFFCURVE",
"694 363 OFFCURVE",
"664 339 CURVE SMOOTH",
"657 334 OFFCURVE",
"655 329 OFFCURVE",
"655 326 CURVE SMOOTH",
"655 319 OFFCURVE",
"667 317 OFFCURVE",
"680 317 CURVE SMOOTH",
"689 317 OFFCURVE",
"698 318 OFFCURVE",
"704 320 CURVE SMOOTH",
"770 343 OFFCURVE",
"832 416 OFFCURVE",
"832 472 CURVE SMOOTH",
"832 547 OFFCURVE",
"743 556 OFFCURVE",
"687 556 CURVE SMOOTH",
"481 556 OFFCURVE",
"248 446 OFFCURVE",
"110 295 CURVE",
"78 291 OFFCURVE",
"10 293 OFFCURVE",
"10 247 CURVE SMOOTH",
"10 230 OFFCURVE",
"19 226 OFFCURVE",
"30 226 CURVE SMOOTH",
"42 226 OFFCURVE",
"56 230 OFFCURVE",
"65 232 CURVE",
"36 189 OFFCURVE",
"14 149 OFFCURVE",
"14 97 CURVE SMOOTH",
"14 -17 OFFCURVE",
"140 -43 OFFCURVE",
"231 -43 CURVE SMOOTH"
);
}
);
width = 727;
}
);
note = E;
unicode = 0045;
},
{
glyphname = F;
lastChange = "2021-08-18 15:15:43 +0000";
layers = (
{
layerId = "57DEED6F-9A00-47D0-BD9B-6FE09716AB2D";
paths = (
{
closed = 1;
nodes = (
"398 -48 OFFCURVE",
"409 -44 OFFCURVE",
"423 -36 CURVE SMOOTH",
"436 -29 OFFCURVE",
"443 -21 OFFCURVE",
"443 -14 CURVE SMOOTH",
"443 -8 OFFCURVE",
"440 -5 OFFCURVE",
"435 -5 CURVE SMOOTH",
"432 -5 OFFCURVE",
"428 -9 OFFCURVE",
"416 -17 CURVE SMOOTH",
"405 -24 OFFCURVE",
"397 -28 OFFCURVE",
"391 -28 CURVE SMOOTH",
"377 -28 OFFCURVE",
"370 -16 OFFCURVE",
"370 8 CURVE SMOOTH",
"370 52 OFFCURVE",
"391 121 OFFCURVE",
"433 215 CURVE",
"488 218 OFFCURVE",
"547 225 OFFCURVE",
"595 233 CURVE SMOOTH",
"657 244 LINE",
"668 247 OFFCURVE",
"674 253 OFFCURVE",
"674 261 CURVE SMOOTH",
"674 265 OFFCURVE",
"671 267 OFFCURVE",
"665 267 CURVE SMOOTH",
"640 267 OFFCURVE",
"604 263 OFFCURVE",
"556 256 CURVE SMOOTH",
"489 246 OFFCURVE",
"466 243 OFFCURVE",
"445 242 CURVE",
"476 310 OFFCURVE",
"515 378 OFFCURVE",
"561 445 CURVE",
"621 439 OFFCURVE",
"673 436 OFFCURVE",
"717 436 CURVE SMOOTH",
"802 436 OFFCURVE",
"845 447 OFFCURVE",
"845 470 CURVE SMOOTH",
"845 477 OFFCURVE",
"842 480 OFFCURVE",
"836 480 CURVE SMOOTH",
"833 480 OFFCURVE",
"829 479 OFFCURVE",
"824 476 CURVE SMOOTH",
"809 469 OFFCURVE",
"780 465 OFFCURVE",
"738 465 CURVE SMOOTH",
"698 465 OFFCURVE",
"646 468 OFFCURVE",
"582 474 CURVE",
"625 535 LINE",
"625 538 OFFCURVE",
"621 540 OFFCURVE",
"612 540 CURVE SMOOTH",
"589 540 OFFCURVE",
"572 535 OFFCURVE",
"564 525 CURVE SMOOTH",
"549 505 OFFCURVE",
"539 490 OFFCURVE",
"532 479 CURVE",
"445 488 OFFCURVE",
"380 493 OFFCURVE",
"338 493 CURVE SMOOTH",
"223 493 OFFCURVE",
"125 469 OFFCURVE",
"45 421 CURVE SMOOTH",
"8 399 OFFCURVE",
"-10 372 OFFCURVE",
"-10 341 CURVE SMOOTH",
"-10 326 OFFCURVE",
"-2 311 OFFCURVE",
"15 296 CURVE SMOOTH",
"75 241 OFFCURVE",
"188 213 OFFCURVE",
"355 213 CURVE SMOOTH",
"370 213 OFFCURVE",
"384 213 OFFCURVE",
"399 214 CURVE",
"362 123 OFFCURVE",
"344 56 OFFCURVE",
"344 13 CURVE SMOOTH",
"344 -28 OFFCURVE",
"359 -48 OFFCURVE",
"390 -48 CURVE SMOOTH"
);
},
{
closed = 1;
nodes = (
"303 240 OFFCURVE",
"240 245 OFFCURVE",
"182 255 CURVE SMOOTH",
"84 271 OFFCURVE",
"35 298 OFFCURVE",
"35 336 CURVE SMOOTH",
"35 417 OFFCURVE",
"141 457 OFFCURVE",
"353 457 CURVE SMOOTH",
"405 457 OFFCURVE",
"459 455 OFFCURVE",
"514 450 CURVE",
"479 390 OFFCURVE",
"444 320 OFFCURVE",
"410 241 CURVE",
"397 240 OFFCURVE",
"383 240 OFFCURVE",
"370 240 CURVE SMOOTH"
);
}
);
width = 632;
},
{
layerId = "A9A9B55F-A222-44B0-A0B6-968BE501F3F8";
paths = (
{
closed = 1;
nodes = (
"466 -49 OFFCURVE",
"506 -31 OFFCURVE",
"518 -9 CURVE SMOOTH",
"522 -3 OFFCURVE",
"519 2 OFFCURVE",
"515 2 CURVE SMOOTH",
"513 2 OFFCURVE",
"512 2 OFFCURVE",
"510 0 CURVE SMOOTH",
"497 -12 OFFCURVE",
"478 -23 OFFCURVE",
"463 -23 CURVE SMOOTH",
"449 -23 OFFCURVE",
"438 -14 OFFCURVE",
"438 10 CURVE SMOOTH",
"438 69 OFFCURVE",
"486 161 OFFCURVE",
"513 214 CURVE",
"572 217 OFFCURVE",
"632 223 OFFCURVE",
"690 232 CURVE SMOOTH",
"709 235 OFFCURVE",
"759 242 OFFCURVE",
"777 254 CURVE SMOOTH",
"785 259 OFFCURVE",
"770 266 OFFCURVE",
"762 266 CURVE SMOOTH",
"761 266 LINE SMOOTH",
"682 255 OFFCURVE",
"605 247 OFFCURVE",
"526 242 CURVE",
"563 309 OFFCURVE",
"655 429 OFFCURVE",
"685 456 CURVE",
"743 451 OFFCURVE",
"791 450 OFFCURVE",
"847 450 CURVE SMOOTH",
"874 450 OFFCURVE",
"984 450 OFFCURVE",
"983 475 CURVE SMOOTH",
"982 487 OFFCURVE",
"976 491 OFFCURVE",
"968 491 CURVE SMOOTH",
"963 491 OFFCURVE",
"957 489 OFFCURVE",
"952 487 CURVE SMOOTH",
"925 476 OFFCURVE",
"883 476 OFFCURVE",
"857 476 CURVE SMOOTH",
"803 476 OFFCURVE",
"759 478 OFFCURVE",
"705 482 CURVE",
"721 500 OFFCURVE",
"733 519 OFFCURVE",
"750 536 CURVE",
"749 548 OFFCURVE",
"737 549 OFFCURVE",
"728 549 CURVE SMOOTH",
"676 549 OFFCURVE",
"659 535 OFFCURVE",
"625 491 CURVE",
"555 497 OFFCURVE",
"484 504 OFFCURVE",
"413 504 CURVE SMOOTH",
"162 504 OFFCURVE",
"14 456 OFFCURVE",
"14 344 CURVE SMOOTH",
"14 326 OFFCURVE",
"30 305 OFFCURVE",
"41 296 CURVE SMOOTH",
"127 225 OFFCURVE",
"285 210 OFFCURVE",
"438 212 CURVE SMOOTH",
"461 212 LINE",
"434 157 OFFCURVE",
"397 72 OFFCURVE",
"397 12 CURVE SMOOTH",
"397 -27 OFFCURVE",
"414 -49 OFFCURVE",
"451 -49 CURVE SMOOTH"
);
},
{
closed = 1;
nodes = (
"390 237 OFFCURVE",
"76 251 OFFCURVE",
"76 340 CURVE SMOOTH",
"76 457 OFFCURVE",
"370 471 OFFCURVE",
"443 471 CURVE SMOOTH",
"499 471 OFFCURVE",
"556 469 OFFCURVE",
"611 465 CURVE",
"568 402 OFFCURVE",
"508 308 OFFCURVE",
"473 240 CURVE",
"454 239 LINE SMOOTH"
);
}
);
width = 742;
},
{
layerId = "AFE3E0A9-A514-4B93-8E4E-B7D18C88F31C";
paths = (
{
closed = 1;
nodes = (
"521 -49 OFFCURVE",
"565 -31 OFFCURVE",
"577 -9 CURVE SMOOTH",
"581 -3 OFFCURVE",
"578 2 OFFCURVE",
"574 2 CURVE SMOOTH",
"572 2 OFFCURVE",
"570 2 OFFCURVE",
"568 0 CURVE SMOOTH",
"553 -12 OFFCURVE",
"532 -23 OFFCURVE",
"515 -23 CURVE SMOOTH",
"499 -23 OFFCURVE",
"487 -13 OFFCURVE",
"487 13 CURVE SMOOTH",
"487 72 OFFCURVE",
"534 162 OFFCURVE",
"562 214 CURVE",
"631 217 OFFCURVE",
"702 224 OFFCURVE",
"759 232 CURVE SMOOTH",
"779 235 OFFCURVE",
"834 242 OFFCURVE",
"855 254 CURVE SMOOTH",
"863 259 OFFCURVE",
"846 266 OFFCURVE",
"838 266 CURVE SMOOTH",
"837 266 LINE SMOOTH",
"749 255 OFFCURVE",
"663 247 OFFCURVE",
"576 242 CURVE",
"615 309 OFFCURVE",
"712 429 OFFCURVE",
"745 456 CURVE",
"809 451 OFFCURVE",
"862 450 OFFCURVE",
"925 450 CURVE SMOOTH",
"955 450 OFFCURVE",
"1077 450 OFFCURVE",
"1075 475 CURVE SMOOTH",
"1074 487 OFFCURVE",
"1066 491 OFFCURVE",
"1058 491 CURVE SMOOTH",
"1052 491 OFFCURVE",
"1045 489 OFFCURVE",
"1040 487 CURVE SMOOTH",
"1010 476 OFFCURVE",
"964 476 OFFCURVE",
"935 476 CURVE SMOOTH",
"875 476 OFFCURVE",
"826 478 OFFCURVE",
"766 482 CURVE",
"782 500 OFFCURVE",
"796 519 OFFCURVE",
"813 536 CURVE",
"812 548 OFFCURVE",
"799 549 OFFCURVE",
"789 549 CURVE SMOOTH",
"731 549 OFFCURVE",
"712 535 OFFCURVE",
"677 491 CURVE",
"598 497 OFFCURVE",
"519 504 OFFCURVE",
"440 504 CURVE SMOOTH",
"217 504 OFFCURVE",
"3 474 OFFCURVE",
"3 346 CURVE SMOOTH",
"3 325 OFFCURVE",
"20 308 OFFCURVE",
"36 296 CURVE SMOOTH",
"137 224 OFFCURVE",
"313 212 OFFCURVE",
"444 212 CURVE SMOOTH",
"505 212 LINE",
"478 159 OFFCURVE",
"441 78 OFFCURVE",
"441 18 CURVE SMOOTH",
"441 -24 OFFCURVE",
"461 -49 OFFCURVE",
"505 -49 CURVE SMOOTH"
);
},
{
closed = 1;
nodes = (
"430 237 OFFCURVE",
"72 250 OFFCURVE",
"72 341 CURVE SMOOTH",
"72 457 OFFCURVE",
"395 471 OFFCURVE",
"475 471 CURVE SMOOTH",
"537 471 OFFCURVE",
"600 469 OFFCURVE",
"662 465 CURVE",
"617 402 OFFCURVE",
"553 308 OFFCURVE",
"517 240 CURVE",
"497 239 LINE SMOOTH"
);
}
);
width = 824;
}
);
note = F;
unicode = 0046;
},
{
glyphname = G;
lastChange = "2021-08-18 15:15:43 +0000";
layers = (
{
anchors = (
{
name = bottom;
position = "{90, -245}";
},
{
name = top;
position = "{501, 535}";
}
);
layerId = "57DEED6F-9A00-47D0-BD9B-6FE09716AB2D";
paths = (
{
closed = 1;
nodes = (
"90 -266 OFFCURVE",
"157 -250 OFFCURVE",
"220 -218 CURVE SMOOTH",
"388 -133 OFFCURVE",
"500 18 OFFCURVE",
"556 237 CURVE",
"565 238 OFFCURVE",
"576 239 OFFCURVE",
"589 239 CURVE SMOOTH",
"593 239 OFFCURVE",
"599 239 OFFCURVE",
"606 238 CURVE SMOOTH",
"613 237 OFFCURVE",
"618 237 OFFCURVE",
"621 237 CURVE SMOOTH",
"632 237 OFFCURVE",
"637 240 OFFCURVE",
"637 247 CURVE SMOOTH",
"637 258 OFFCURVE",
"620 264 OFFCURVE",
"586 264 CURVE SMOOTH",
"579 264 OFFCURVE",
"571 264 OFFCURVE",
"563 263 CURVE",
"576 320 OFFCURVE",
"586 369 OFFCURVE",
"594 410 CURVE SMOOTH",
"605 467 OFFCURVE",
"609 488 OFFCURVE",
"610 505 CURVE",
"613 506 OFFCURVE",
"616 506 OFFCURVE",
"619 506 CURVE SMOOTH",
"642 506 OFFCURVE",
"654 497 OFFCURVE",
"654 478 CURVE SMOOTH",
"654 471 OFFCURVE",
"652 462 OFFCURVE",
"647 452 CURVE SMOOTH",
"642 442 OFFCURVE",
"640 437 OFFCURVE",
"640 436 CURVE SMOOTH",
"640 431 OFFCURVE",
"642 429 OFFCURVE",
"647 429 CURVE SMOOTH",
"656 429 OFFCURVE",
"665 435 OFFCURVE",
"674 448 CURVE SMOOTH",
"683 461 OFFCURVE",
"687 471 OFFCURVE",
"687 480 CURVE SMOOTH",
"687 509 OFFCURVE",
"661 525 OFFCURVE",
"609 530 CURVE",
"602 545 OFFCURVE",
"592 552 OFFCURVE",
"580 552 CURVE SMOOTH",
"572 552 OFFCURVE",
"567 546 OFFCURVE",
"565 534 CURVE",
"476 507 OFFCURVE",
"393 465 OFFCURVE",
"317 408 CURVE SMOOTH",
"222 337 OFFCURVE",
"175 263 OFFCURVE",
"175 186 CURVE SMOOTH",
"175 176 OFFCURVE",
"179 164 OFFCURVE",
"187 151 CURVE",
"-25 64 OFFCURVE",
"-131 -34 OFFCURVE",
"-131 -144 CURVE SMOOTH",
"-131 -225 OFFCURVE",
"-82 -266 OFFCURVE",
"17 -266 CURVE SMOOTH"
);
},
{
closed = 1;
nodes = (
"-46 -233 OFFCURVE",
"-91 -199 OFFCURVE",
"-91 -131 CURVE SMOOTH",
"-91 -34 OFFCURVE",
"7 53 OFFCURVE",
"202 131 CURVE",
"214 119 OFFCURVE",
"230 113 OFFCURVE",
"249 113 CURVE SMOOTH",
"300 113 OFFCURVE",
"357 143 OFFCURVE",
"418 203 CURVE",
"443 210 OFFCURVE",
"474 219 OFFCURVE",
"510 228 CURVE",
"457 6 OFFCURVE",
"358 -137 OFFCURVE",
"213 -199 CURVE SMOOTH",
"160 -222 OFFCURVE",
"103 -233 OFFCURVE",
"44 -233 CURVE SMOOTH"
);
},
{
closed = 1;
nodes = (
"249 146 OFFCURVE",
"245 146 OFFCURVE",
"242 147 CURVE",
"277 160 OFFCURVE",
"315 173 OFFCURVE",
"356 185 CURVE",
"318 159 OFFCURVE",
"284 146 OFFCURVE",
"253 146 CURVE SMOOTH"
);
},
{
closed = 1;
nodes = (
"217 170 OFFCURVE",
"216 177 OFFCURVE",
"216 184 CURVE SMOOTH",
"216 209 OFFCURVE",
"226 239 OFFCURVE",
"246 274 CURVE SMOOTH",
"262 303 OFFCURVE",
"280 329 OFFCURVE",
"301 352 CURVE SMOOTH",
"367 425 OFFCURVE",
"456 477 OFFCURVE",
"565 508 CURVE",
"559 461 OFFCURVE",
"540 409 OFFCURVE",
"507 354 CURVE SMOOTH",
"476 302 OFFCURVE",
"442 261 OFFCURVE",
"404 225 CURVE",
"337 206 OFFCURVE",
"276 185 OFFCURVE",
"220 164 CURVE"
);
},
{
closed = 1;
nodes = (
"483 274 OFFCURVE",
"512 313 OFFCURVE",
"537 356 CURVE",
"517 254 LINE",
"494 249 OFFCURVE",
"472 243 OFFCURVE",
"451 238 CURVE"
);
}
);
width = 548;
},
{
anchors = (
{
name = bottom;
position = "{91, -255}";
},
{
name = top;
position = "{602, 545}";
}
);
layerId = "A9A9B55F-A222-44B0-A0B6-968BE501F3F8";
paths = (
{
closed = 1;
nodes = (
"319 -267 OFFCURVE",
"566 -52 OFFCURVE",
"663 246 CURVE",
"674 247 OFFCURVE",
"685 248 OFFCURVE",
"696 248 CURVE SMOOTH",
"714 248 OFFCURVE",
"728 245 OFFCURVE",
"738 245 CURVE SMOOTH",
"746 245 OFFCURVE",
"750 247 OFFCURVE",
"750 255 CURVE SMOOTH",
"750 275 OFFCURVE",
"703 275 OFFCURVE",
"681 275 CURVE SMOOTH",
"671 275 LINE",
"692 348 OFFCURVE",
"718 444 OFFCURVE",
"728 520 CURVE",
"732 520 LINE SMOOTH",
"746 520 OFFCURVE",
"772 504 OFFCURVE",
"775 484 CURVE SMOOTH",
"780 448 OFFCURVE",
"755 447 OFFCURVE",
"755 435 CURVE SMOOTH",
"755 431 OFFCURVE",
"758 428 OFFCURVE",
"762 428 CURVE SMOOTH",
"784 428 OFFCURVE",
"814 463 OFFCURVE",
"814 487 CURVE SMOOTH",
"814 527 OFFCURVE",
"755 538 OFFCURVE",
"727 541 CURVE",
"720 555 OFFCURVE",
"707 563 OFFCURVE",
"692 563 CURVE SMOOTH",
"681 563 OFFCURVE",
"672 555 OFFCURVE",
"669 544 CURVE",
"534 507 OFFCURVE",
"228 377 OFFCURVE",
"222 191 CURVE SMOOTH",
"222 179 OFFCURVE",
"223 171 OFFCURVE",
"231 159 CURVE",
"116 117 OFFCURVE",
"-130 18 OFFCURVE",
"-130 -145 CURVE SMOOTH",
"-130 -227 OFFCURVE",
"-71 -267 OFFCURVE",
"36 -267 CURVE SMOOTH"
);
},
{
closed = 1;
nodes = (
"2 -238 OFFCURVE",
"-72 -212 OFFCURVE",
"-72 -131 CURVE SMOOTH",
"-72 6 OFFCURVE",
"144 100 OFFCURVE",
"241 134 CURVE",
"255 122 OFFCURVE",
"274 117 OFFCURVE",
"293 117 CURVE SMOOTH",
"364 117 OFFCURVE",
"454 167 OFFCURVE",
"510 214 CURVE",
"600 237 LINE",
"515 -38 OFFCURVE",
"327 -238 OFFCURVE",
"59 -238 CURVE SMOOTH"
);
},
{
closed = 1;
nodes = (
"288 181 OFFCURVE",
"283 189 OFFCURVE",
"283 200 CURVE SMOOTH",
"283 222 OFFCURVE",
"304 258 OFFCURVE",
"315 276 CURVE SMOOTH",
"396 401 OFFCURVE",
"539 484 OFFCURVE",
"670 519 CURVE",
"637 359 OFFCURVE",
"557 299 OFFCURVE",
"481 236 CURVE",
"414 219 OFFCURVE",
"368 202 OFFCURVE",
"301 180 CURVE"
);
},
{
closed = 1;
nodes = (
"580 278 OFFCURVE",
"602 304 OFFCURVE",
"623 332 CURVE",
"606 264 LINE",
"556 254 LINE"
);
}
);
width = 695;
},
{
anchors = (
{
name = bottom;
position = "{120, -255}";
},
{
name = top;
position = "{652, 545}";
}
);
layerId = "AFE3E0A9-A514-4B93-8E4E-B7D18C88F31C";
paths = (
{
closed = 1;
nodes = (
"366 -267 OFFCURVE",
"632 -52 OFFCURVE",
"728 246 CURVE",
"740 247 OFFCURVE",
"752 248 OFFCURVE",
"764 248 CURVE SMOOTH",
"784 248 OFFCURVE",
"801 244 OFFCURVE",
"812 244 CURVE SMOOTH",
"820 244 OFFCURVE",
"825 247 OFFCURVE",
"825 254 CURVE SMOOTH",
"825 273 OFFCURVE",
"773 275 OFFCURVE",
"747 275 CURVE SMOOTH",
"736 275 LINE",
"757 348 OFFCURVE",
"781 444 OFFCURVE",
"790 520 CURVE",
"795 520 LINE SMOOTH",
"810 520 OFFCURVE",
"839 504 OFFCURVE",
"843 484 CURVE SMOOTH",
"844 480 OFFCURVE",
"844 476 OFFCURVE",
"844 472 CURVE SMOOTH",
"844 448 OFFCURVE",
"823 446 OFFCURVE",
"823 436 CURVE SMOOTH",
"823 432 OFFCURVE",
"826 428 OFFCURVE",
"831 428 CURVE SMOOTH",
"855 428 OFFCURVE",
"887 461 OFFCURVE",
"887 485 CURVE SMOOTH",
"887 527 OFFCURVE",
"819 538 OFFCURVE",
"788 541 CURVE",
"779 555 OFFCURVE",
"764 563 OFFCURVE",
"748 563 CURVE SMOOTH",
"736 563 OFFCURVE",
"726 555 OFFCURVE",
"723 544 CURVE",
"575 507 OFFCURVE",
"240 377 OFFCURVE",
"240 191 CURVE SMOOTH",
"240 180 OFFCURVE",
"244 168 OFFCURVE",
"251 159 CURVE",
"127 118 OFFCURVE",
"-139 20 OFFCURVE",
"-139 -139 CURVE SMOOTH",
"-139 -247 OFFCURVE",
"-36 -267 OFFCURVE",
"51 -267 CURVE SMOOTH"
);
},
{
closed = 1;
nodes = (
"11 -238 OFFCURVE",
"-76 -211 OFFCURVE",
"-76 -126 CURVE SMOOTH",
"-76 8 OFFCURVE",
"158 100 OFFCURVE",
"263 134 CURVE",
"280 122 OFFCURVE",
"301 117 OFFCURVE",
"322 117 CURVE SMOOTH",
"401 117 OFFCURVE",
"499 167 OFFCURVE",
"559 214 CURVE",
"659 237 LINE",
"575 -38 OFFCURVE",
"373 -238 OFFCURVE",
"76 -238 CURVE SMOOTH"
);
},
{
closed = 1;
nodes = (
"313 182 OFFCURVE",
"307 191 OFFCURVE",
"307 203 CURVE SMOOTH",
"307 225 OFFCURVE",
"328 258 OFFCURVE",
"340 276 CURVE SMOOTH",
"426 401 OFFCURVE",
"581 484 OFFCURVE",
"726 519 CURVE",
"695 359 OFFCURVE",
"608 299 OFFCURVE",
"527 236 CURVE",
"452 219 OFFCURVE",
"402 202 OFFCURVE",
"329 180 CURVE"
);
},
{
closed = 1;
nodes = (
"634 278 OFFCURVE",
"658 304 OFFCURVE",
"680 332 CURVE",
"664 264 LINE",
"609 254 LINE"
);
}
);
width = 772;
}
);
note = G;
unicode = 0047;
},
{
glyphname = H;
lastChange = "2021-08-18 15:15:43 +0000";
layers = (
{
anchors = (
{
name = bottom;
position = "{406, 0}";
},
{
name = center;
position = "{406, 268}";
},
{
name = top;
position = "{768, 535}";
},
{
name = topleft;
position = "{20, 535}";
}
);
layerId = "57DEED6F-9A00-47D0-BD9B-6FE09716AB2D";
paths = (
{
closed = 1;
nodes = (
"231 -91 OFFCURVE",
"312 -60 OFFCURVE",
"406 18 CURVE SMOOTH",
"484 83 OFFCURVE",
"539 148 OFFCURVE",
"585 233 CURVE",
"642 227 OFFCURVE",
"689 218 OFFCURVE",
"724 207 CURVE",
"689 120 OFFCURVE",
"671 55 OFFCURVE",
"671 13 CURVE SMOOTH",
"671 -28 OFFCURVE",
"686 -48 OFFCURVE",
"717 -48 CURVE SMOOTH",
"726 -48 OFFCURVE",
"737 -44 OFFCURVE",
"751 -36 CURVE SMOOTH",
"764 -29 OFFCURVE",
"771 -21 OFFCURVE",
"771 -14 CURVE SMOOTH",
"771 -8 OFFCURVE",
"768 -5 OFFCURVE",
"762 -5 CURVE SMOOTH",
"760 -5 OFFCURVE",
"756 -9 OFFCURVE",
"744 -17 CURVE SMOOTH",
"733 -24 OFFCURVE",
"725 -28 OFFCURVE",
"719 -28 CURVE SMOOTH",
"705 -28 OFFCURVE",
"698 -16 OFFCURVE",
"698 8 CURVE SMOOTH",
"698 49 OFFCURVE",
"716 111 OFFCURVE",
"752 196 CURVE",
"785 181 OFFCURVE",
"802 166 OFFCURVE",
"802 153 CURVE SMOOTH",
"802 150 OFFCURVE",
"801 148 OFFCURVE",
"799 145 CURVE SMOOTH",
"797 142 OFFCURVE",
"796 140 OFFCURVE",
"796 138 CURVE SMOOTH",
"796 130 OFFCURVE",
"800 126 OFFCURVE",
"808 126 CURVE SMOOTH",
"813 126 OFFCURVE",
"817 129 OFFCURVE",
"821 135 CURVE SMOOTH",
"824 141 OFFCURVE",
"826 147 OFFCURVE",
"826 152 CURVE SMOOTH",
"826 175 OFFCURVE",
"805 197 OFFCURVE",
"762 218 CURVE",
"805 315 OFFCURVE",
"868 419 OFFCURVE",
"951 530 CURVE",
"952 532 OFFCURVE",
"953 534 OFFCURVE",
"953 535 CURVE SMOOTH",
"953 538 OFFCURVE",
"949 540 OFFCURVE",
"940 540 CURVE SMOOTH",
"917 540 OFFCURVE",
"901 535 OFFCURVE",
"892 525 CURVE SMOOTH",
"857 484 OFFCURVE",
"813 410 OFFCURVE",
"765 302 CURVE SMOOTH",
"733 230 LINE",
"701 241 OFFCURVE",
"656 250 OFFCURVE",
"597 258 CURVE",
"629 341 OFFCURVE",
"645 406 OFFCURVE",
"645 452 CURVE SMOOTH",
"645 495 OFFCURVE",
"630 517 OFFCURVE",
"599 517 CURVE SMOOTH",
"587 517 OFFCURVE",
"571 513 OFFCURVE",
"551 505 CURVE SMOOTH",
"529 496 OFFCURVE",
"518 488 OFFCURVE",
"518 479 CURVE SMOOTH",
"518 473 OFFCURVE",
"520 470 OFFCURVE",
"524 470 CURVE SMOOTH",
"525 470 OFFCURVE",
"533 474 OFFCURVE",
"546 481 CURVE SMOOTH",
"559 488 OFFCURVE",
"570 492 OFFCURVE",
"579 492 CURVE SMOOTH",
"596 492 OFFCURVE",
"604 479 OFFCURVE",
"604 453 CURVE SMOOTH",
"604 412 OFFCURVE",
"587 348 OFFCURVE",
"552 262 CURVE",
"534 263 OFFCURVE",
"513 264 OFFCURVE",
"489 264 CURVE SMOOTH",
"378 264 OFFCURVE",
"276 252 OFFCURVE",
"185 226 CURVE SMOOTH",
"50 188 OFFCURVE",
"-18 128 OFFCURVE",
"-18 46 CURVE SMOOTH",
"-18 2 OFFCURVE",
"1 -33 OFFCURVE",
"38 -58 CURVE SMOOTH",
"71 -80 OFFCURVE",
"110 -91 OFFCURVE",
"156 -91 CURVE SMOOTH"
);
},
{
closed = 1;
nodes = (
"120 -67 OFFCURVE",
"89 -59 OFFCURVE",
"63 -42 CURVE SMOOTH",
"32 -23 OFFCURVE",
"17 4 OFFCURVE",
"17 39 CURVE SMOOTH",
"17 112 OFFCURVE",
"80 167 OFFCURVE",
"207 202 CURVE SMOOTH",
"293 226 OFFCURVE",
"386 238 OFFCURVE",
"487 238 CURVE SMOOTH",
"506 238 OFFCURVE",
"524 237 OFFCURVE",
"539 236 CURVE",
"501 161 OFFCURVE",
"449 95 OFFCURVE",
"382 36 CURVE SMOOTH",
"303 -33 OFFCURVE",
"228 -67 OFFCURVE",
"156 -67 CURVE SMOOTH"
);
}
);
width = 811;
},
{
anchors = (
{
name = bottom;
position = "{478, 0}";
},
{
name = center;
position = "{478, 273}";
},
{
name = top;
position = "{924, 545}";
},
{
name = topleft;
position = "{20, 545}";
}
);
layerId = "A9A9B55F-A222-44B0-A0B6-968BE501F3F8";
paths = (
{
closed = 1;
nodes = (
"421 -92 OFFCURVE",
"605 85 OFFCURVE",
"708 245 CURVE",
"756 241 OFFCURVE",
"803 234 OFFCURVE",
"849 222 CURVE",
"824 168 OFFCURVE",
"777 68 OFFCURVE",
"777 12 CURVE SMOOTH",
"777 -26 OFFCURVE",
"795 -42 OFFCURVE",
"831 -45 CURVE SMOOTH",
"860 -47 OFFCURVE",
"901 -24 OFFCURVE",
"901 -3 CURVE SMOOTH",
"901 0 OFFCURVE",
"900 2 OFFCURVE",
"898 2 CURVE SMOOTH",
"897 2 OFFCURVE",
"896 1 OFFCURVE",
"894 0 CURVE",
"873 -16 OFFCURVE",
"856 -23 OFFCURVE",
"839 -23 CURVE SMOOTH",
"823 -23 OFFCURVE",
"820 -3 OFFCURVE",
"820 13 CURVE SMOOTH",
"822 63 OFFCURVE",
"856 136 OFFCURVE",
"892 207 CURVE",
"904 202 OFFCURVE",
"936 184 OFFCURVE",
"937 167 CURVE SMOOTH",
"939 147 OFFCURVE",
"934 130 OFFCURVE",
"931 127 CURVE SMOOTH",
"928 123 OFFCURVE",
"926 120 OFFCURVE",
"926 118 CURVE SMOOTH",
"926 116 OFFCURVE",
"928 115 OFFCURVE",
"931 115 CURVE SMOOTH",
"936 115 OFFCURVE",
"946 120 OFFCURVE",
"950 125 CURVE SMOOTH",
"956 134 OFFCURVE",
"961 147 OFFCURVE",
"961 162 CURVE SMOOTH",
"961 195 OFFCURVE",
"926 214 OFFCURVE",
"900 226 CURVE",
"951 320 OFFCURVE",
"1006 399 OFFCURVE",
"1091 499 CURVE SMOOTH",
"1106 516 OFFCURVE",
"1119 530 OFFCURVE",
"1121 540 CURVE",
"1120 551 OFFCURVE",
"1108 551 OFFCURVE",
"1101 551 CURVE SMOOTH",
"1071 551 OFFCURVE",
"1057 546 OFFCURVE",
"1043 534 CURVE SMOOTH",
"985 483 OFFCURVE",
"904 335 OFFCURVE",
"858 243 CURVE",
"812 256 OFFCURVE",
"765 263 OFFCURVE",
"719 268 CURVE",
"757 354 OFFCURVE",
"775 412 OFFCURVE",
"775 464 CURVE SMOOTH",
"775 502 OFFCURVE",
"760 528 OFFCURVE",
"721 528 CURVE SMOOTH",
"704 528 OFFCURVE",
"623 507 OFFCURVE",
"623 484 CURVE SMOOTH",
"623 479 OFFCURVE",
"626 476 OFFCURVE",
"630 476 CURVE SMOOTH",
"631 476 OFFCURVE",
"634 477 OFFCURVE",
"636 478 CURVE SMOOTH",
"655 489 OFFCURVE",
"669 498 OFFCURVE",
"692 498 CURVE SMOOTH",
"708 498 OFFCURVE",
"718 477 OFFCURVE",
"718 460 CURVE SMOOTH",
"718 405 OFFCURVE",
"682 329 OFFCURVE",
"656 273 CURVE",
"640 274 OFFCURVE",
"618 275 OFFCURVE",
"593 275 CURVE SMOOTH",
"406 275 OFFCURVE",
"11 240 OFFCURVE",
"11 46 CURVE SMOOTH",
"11 -59 OFFCURVE",
"128 -92 OFFCURVE",
"206 -92 CURVE SMOOTH"
);
},
{
closed = 1;
nodes = (
"148 -71 OFFCURVE",
"54 -49 OFFCURVE",
"54 30 CURVE SMOOTH",
"54 211 OFFCURVE",
"487 251 OFFCURVE",
"596 251 CURVE SMOOTH",
"611 251 OFFCURVE",
"627 250 OFFCURVE",
"643 249 CURVE",
"553 100 OFFCURVE",
"425 -71 OFFCURVE",
"201 -71 CURVE SMOOTH"
);
}
);
width = 955;
},
{
anchors = (
{
name = bottom;
position = "{531, 0}";
},
{
name = center;
position = "{531, 273}";
},
{
name = top;
position = "{984, 545}";
},
{
name = topleft;
position = "{20, 545}";
}
);
layerId = "AFE3E0A9-A514-4B93-8E4E-B7D18C88F31C";
paths = (
{
closed = 1;
nodes = (
"472 -92 OFFCURVE",
"670 85 OFFCURVE",
"778 245 CURVE",
"831 241 OFFCURVE",
"884 234 OFFCURVE",
"936 222 CURVE",
"911 170 OFFCURVE",
"863 75 OFFCURVE",
"863 18 CURVE SMOOTH",
"863 -24 OFFCURVE",
"883 -42 OFFCURVE",
"926 -45 CURVE SMOOTH",
"958 -47 OFFCURVE",
"1002 -24 OFFCURVE",
"1002 -3 CURVE SMOOTH",
"1002 0 OFFCURVE",
"1001 2 OFFCURVE",
"999 2 CURVE SMOOTH",
"997 2 OFFCURVE",
"996 1 OFFCURVE",
"994 0 CURVE SMOOTH",
"969 -17 OFFCURVE",
"953 -23 OFFCURVE",
"935 -23 CURVE SMOOTH",
"917 -23 OFFCURVE",
"911 0 OFFCURVE",
"911 13 CURVE SMOOTH",
"911 66 OFFCURVE",
"959 160 OFFCURVE",
"984 207 CURVE",
"998 202 OFFCURVE",
"1033 184 OFFCURVE",
"1036 167 CURVE SMOOTH",
"1037 163 OFFCURVE",
"1037 159 OFFCURVE",
"1037 155 CURVE SMOOTH",
"1037 143 OFFCURVE",
"1034 132 OFFCURVE",
"1030 127 CURVE SMOOTH",
"1027 124 OFFCURVE",
"1026 121 OFFCURVE",
"1026 119 CURVE SMOOTH",
"1026 116 OFFCURVE",
"1028 115 OFFCURVE",
"1032 115 CURVE SMOOTH",
"1038 115 OFFCURVE",
"1046 119 OFFCURVE",
"1051 125 CURVE SMOOTH",
"1058 134 OFFCURVE",
"1062 146 OFFCURVE",
"1062 161 CURVE SMOOTH",
"1062 195 OFFCURVE",
"1019 215 OFFCURVE",
"992 226 CURVE",
"1044 319 OFFCURVE",
"1108 405 OFFCURVE",
"1193 499 CURVE SMOOTH",
"1202 509 OFFCURVE",
"1223 528 OFFCURVE",
"1226 540 CURVE",
"1225 551 OFFCURVE",
"1211 551 OFFCURVE",
"1203 551 CURVE SMOOTH",
"1181 551 OFFCURVE",
"1157 549 OFFCURVE",
"1139 534 CURVE SMOOTH",
"1075 482 OFFCURVE",
"985 319 OFFCURVE",
"944 243 CURVE",
"893 256 OFFCURVE",
"841 263 OFFCURVE",
"789 268 CURVE",
"815 323 OFFCURVE",
"845 396 OFFCURVE",
"845 457 CURVE SMOOTH",
"845 499 OFFCURVE",
"827 528 OFFCURVE",
"781 528 CURVE SMOOTH",
"762 528 OFFCURVE",
"674 507 OFFCURVE",
"674 484 CURVE SMOOTH",
"674 479 OFFCURVE",
"677 476 OFFCURVE",
"682 476 CURVE SMOOTH",
"684 476 OFFCURVE",
"686 477 OFFCURVE",
"689 478 CURVE",
"710 489 OFFCURVE",
"725 498 OFFCURVE",
"750 498 CURVE SMOOTH",
"769 498 OFFCURVE",
"781 475 OFFCURVE",
"781 458 CURVE SMOOTH",
"781 402 OFFCURVE",
"744 324 OFFCURVE",
"719 273 CURVE",
"701 274 OFFCURVE",
"677 275 OFFCURVE",
"649 275 CURVE SMOOTH",
"443 275 OFFCURVE",
"11 241 OFFCURVE",
"11 51 CURVE SMOOTH",
"11 -58 OFFCURVE",
"146 -92 OFFCURVE",
"233 -92 CURVE SMOOTH"
);
},
{
closed = 1;
nodes = (
"167 -71 OFFCURVE",
"60 -48 OFFCURVE",
"60 34 CURVE SMOOTH",
"60 212 OFFCURVE",
"533 251 OFFCURVE",
"653 251 CURVE SMOOTH",
"670 251 OFFCURVE",
"688 250 OFFCURVE",
"706 249 CURVE",
"611 100 OFFCURVE",
"476 -71 OFFCURVE",
"227 -71 CURVE SMOOTH"
);
}
);
width = 1061;
}
);
note = H;
unicode = 0048;
},
{
glyphname = Hbar;
lastChange = "2021-08-18 15:15:43 +0000";
layers = (
{
components = (
{
name = H;
},
{
name = emdash;
transform = "{1, 0, 0, 1, 478, 243}";
}
);
layerId = "57DEED6F-9A00-47D0-BD9B-6FE09716AB2D";
width = 811;
},
{
layerId = "A9A9B55F-A222-44B0-A0B6-968BE501F3F8";
paths = (
{
closed = 1;
nodes = (
"421 -102 OFFCURVE",
"605 75 OFFCURVE",
"708 235 CURVE",
"756 231 OFFCURVE",
"803 224 OFFCURVE",
"849 212 CURVE",
"824 158 OFFCURVE",
"777 58 OFFCURVE",
"777 2 CURVE SMOOTH",
"777 -36 OFFCURVE",
"795 -52 OFFCURVE",
"831 -55 CURVE SMOOTH",
"860 -57 OFFCURVE",
"901 -34 OFFCURVE",
"901 -13 CURVE SMOOTH",
"901 -10 OFFCURVE",
"900 -8 OFFCURVE",
"898 -8 CURVE SMOOTH",
"897 -8 OFFCURVE",
"896 -9 OFFCURVE",
"894 -10 CURVE SMOOTH",
"871 -27 OFFCURVE",
"856 -33 OFFCURVE",
"839 -33 CURVE SMOOTH",
"825 -33 OFFCURVE",
"820 -14 OFFCURVE",
"820 -1 CURVE SMOOTH",
"820 51 OFFCURVE",
"867 149 OFFCURVE",
"892 197 CURVE",
"904 192 OFFCURVE",
"936 174 OFFCURVE",
"937 157 CURVE SMOOTH",
"939 141 OFFCURVE",
"935 123 OFFCURVE",
"931 117 CURVE",
"928 114 OFFCURVE",
"927 111 OFFCURVE",
"927 109 CURVE SMOOTH",
"927 106 OFFCURVE",
"929 105 OFFCURVE",
"932 105 CURVE SMOOTH",
"937 105 OFFCURVE",
"945 109 OFFCURVE",
"950 115 CURVE SMOOTH",
"956 124 OFFCURVE",
"961 137 OFFCURVE",
"961 152 CURVE SMOOTH",
"961 186 OFFCURVE",
"924 205 OFFCURVE",
"900 216 CURVE",
"932 277 OFFCURVE",
"970 336 OFFCURVE",
"1012 391 CURVE",
"1047 394 OFFCURVE",
"1090 399 OFFCURVE",
"1091 406 CURVE SMOOTH",
"1091 413 OFFCURVE",
"1068 417 OFFCURVE",
"1034 420 CURVE",
"1053 444 OFFCURVE",
"1071 466 OFFCURVE",
"1091 489 CURVE SMOOTH",
"1099 499 OFFCURVE",
"1119 518 OFFCURVE",
"1121 530 CURVE",
"1120 541 OFFCURVE",
"1108 541 OFFCURVE",
"1101 541 CURVE SMOOTH",
"1081 541 OFFCURVE",
"1059 539 OFFCURVE",
"1043 524 CURVE SMOOTH",
"1020 503 OFFCURVE",
"992 466 OFFCURVE",
"964 424 CURVE",
"897 424 LINE",
"773 424 LINE",
"775 430 OFFCURVE",
"775 436 OFFCURVE",
"775 442 CURVE SMOOTH",
"775 454 LINE SMOOTH",
"775 492 OFFCURVE",
"760 518 OFFCURVE",
"721 518 CURVE SMOOTH",
"704 518 OFFCURVE",
"624 497 OFFCURVE",
"623 474 CURVE SMOOTH",
"623 469 OFFCURVE",
"626 466 OFFCURVE",
"630 466 CURVE SMOOTH",
"631 466 OFFCURVE",
"634 467 OFFCURVE",
"636 468 CURVE SMOOTH",
"655 479 OFFCURVE",
"669 488 OFFCURVE",
"692 488 CURVE SMOOTH",
"708 488 OFFCURVE",
"718 467 OFFCURVE",
"718 450 CURVE SMOOTH",
"718 442 OFFCURVE",
"717 432 OFFCURVE",
"715 423 CURVE",
"663 421 OFFCURVE",
"630 415 OFFCURVE",
"629 398 CURVE SMOOTH",
"629 382 OFFCURVE",
"679 383 OFFCURVE",
"695 383 CURVE SMOOTH",
"705 383 LINE",
"691 340 OFFCURVE",
"671 296 OFFCURVE",
"656 263 CURVE",
"640 264 OFFCURVE",
"618 265 OFFCURVE",
"593 265 CURVE SMOOTH",
"406 265 OFFCURVE",
"11 230 OFFCURVE",
"11 36 CURVE SMOOTH",
"11 -69 OFFCURVE",
"128 -102 OFFCURVE",
"206 -102 CURVE SMOOTH"
);
},
{
closed = 1;
nodes = (
"148 -81 OFFCURVE",
"54 -59 OFFCURVE",
"54 20 CURVE SMOOTH",
"54 201 OFFCURVE",
"487 241 OFFCURVE",
"596 241 CURVE SMOOTH",
"611 241 OFFCURVE",
"627 240 OFFCURVE",
"643 239 CURVE",
"553 90 OFFCURVE",
"425 -81 OFFCURVE",
"201 -81 CURVE SMOOTH"
);
},
{
closed = 1;
nodes = (
"812 246 OFFCURVE",
"765 253 OFFCURVE",
"719 258 CURVE",
"735 294 OFFCURVE",
"753 339 OFFCURVE",
"765 383 CURVE",
"826 383 OFFCURVE",
"883 385 OFFCURVE",
"943 388 CURVE",
"908 331 OFFCURVE",
"877 271 OFFCURVE",
"858 233 CURVE"
);
}
);
width = 955;
},
{
layerId = "AFE3E0A9-A514-4B93-8E4E-B7D18C88F31C";
paths = (
{
closed = 1;
nodes = (
"472 -102 OFFCURVE",
"670 75 OFFCURVE",
"778 235 CURVE",
"831 231 OFFCURVE",
"884 224 OFFCURVE",
"936 212 CURVE",
"911 160 OFFCURVE",
"863 65 OFFCURVE",
"863 8 CURVE SMOOTH",
"863 -34 OFFCURVE",
"883 -52 OFFCURVE",
"926 -55 CURVE SMOOTH",
"958 -57 OFFCURVE",
"1002 -34 OFFCURVE",
"1002 -13 CURVE SMOOTH",
"1002 -10 OFFCURVE",
"1001 -8 OFFCURVE",
"999 -8 CURVE SMOOTH",
"997 -8 OFFCURVE",
"996 -9 OFFCURVE",
"994 -10 CURVE SMOOTH",
"969 -27 OFFCURVE",
"953 -33 OFFCURVE",
"935 -33 CURVE SMOOTH",
"917 -33 OFFCURVE",
"911 -10 OFFCURVE",
"911 3 CURVE SMOOTH",
"911 56 OFFCURVE",
"959 150 OFFCURVE",
"984 197 CURVE",
"998 192 OFFCURVE",
"1033 174 OFFCURVE",
"1036 157 CURVE SMOOTH",
"1037 153 OFFCURVE",
"1037 149 OFFCURVE",
"1037 145 CURVE SMOOTH",
"1037 133 OFFCURVE",
"1034 122 OFFCURVE",
"1030 117 CURVE SMOOTH",
"1027 114 OFFCURVE",
"1026 111 OFFCURVE",
"1026 109 CURVE SMOOTH",
"1026 106 OFFCURVE",
"1028 105 OFFCURVE",
"1032 105 CURVE SMOOTH",
"1038 105 OFFCURVE",
"1046 109 OFFCURVE",
"1051 115 CURVE SMOOTH",
"1058 124 OFFCURVE",
"1062 136 OFFCURVE",
"1062 151 CURVE SMOOTH",
"1062 185 OFFCURVE",
"1019 205 OFFCURVE",
"992 216 CURVE",
"1026 277 OFFCURVE",
"1066 336 OFFCURVE",
"1110 391 CURVE",
"1149 394 OFFCURVE",
"1197 399 OFFCURVE",
"1197 406 CURVE SMOOTH",
"1197 413 OFFCURVE",
"1171 417 OFFCURVE",
"1133 420 CURVE",
"1153 444 OFFCURVE",
"1172 466 OFFCURVE",
"1193 489 CURVE SMOOTH",
"1202 499 OFFCURVE",
"1223 518 OFFCURVE",
"1226 530 CURVE",
"1225 541 OFFCURVE",
"1211 541 OFFCURVE",
"1203 541 CURVE SMOOTH",
"1181 541 OFFCURVE",
"1157 539 OFFCURVE",
"1139 524 CURVE SMOOTH",
"1114 503 OFFCURVE",
"1085 466 OFFCURVE",
"1056 424 CURVE",
"981 424 LINE",
"843 424 LINE",
"844 432 OFFCURVE",
"845 439 OFFCURVE",
"845 447 CURVE SMOOTH",
"845 489 OFFCURVE",
"827 518 OFFCURVE",
"781 518 CURVE SMOOTH",
"762 518 OFFCURVE",
"674 497 OFFCURVE",
"674 474 CURVE SMOOTH",
"674 469 OFFCURVE",
"677 466 OFFCURVE",
"682 466 CURVE SMOOTH",
"684 466 OFFCURVE",
"686 467 OFFCURVE",
"689 468 CURVE",
"710 479 OFFCURVE",
"725 488 OFFCURVE",
"750 488 CURVE SMOOTH",
"769 488 OFFCURVE",
"781 465 OFFCURVE",
"781 448 CURVE SMOOTH",
"781 440 OFFCURVE",
"780 431 OFFCURVE",
"779 423 CURVE",
"721 421 OFFCURVE",
"684 415 OFFCURVE",
"684 398 CURVE SMOOTH",
"684 382 OFFCURVE",
"740 383 OFFCURVE",
"758 383 CURVE SMOOTH",
"769 383 LINE",
"756 340 OFFCURVE",
"735 296 OFFCURVE",
"719 263 CURVE",
"701 264 OFFCURVE",
"677 265 OFFCURVE",
"649 265 CURVE SMOOTH",
"443 265 OFFCURVE",
"11 231 OFFCURVE",
"11 41 CURVE SMOOTH",
"11 -68 OFFCURVE",
"146 -102 OFFCURVE",
"233 -102 CURVE SMOOTH"
);
},
{
closed = 1;
nodes = (
"167 -81 OFFCURVE",
"60 -58 OFFCURVE",
"60 24 CURVE SMOOTH",
"60 202 OFFCURVE",
"533 241 OFFCURVE",
"653 241 CURVE SMOOTH",
"670 241 OFFCURVE",
"688 240 OFFCURVE",
"706 239 CURVE",
"611 90 OFFCURVE",
"476 -81 OFFCURVE",
"227 -81 CURVE SMOOTH"
);
},
{
closed = 1;
nodes = (
"893 246 OFFCURVE",
"841 253 OFFCURVE",
"789 258 CURVE",
"806 294 OFFCURVE",
"825 339 OFFCURVE",
"836 383 CURVE",
"903 383 OFFCURVE",
"967 385 OFFCURVE",
"1033 388 CURVE",
"997 331 OFFCURVE",
"964 271 OFFCURVE",
"944 233 CURVE"
);
}
);
width = 1061;
}
);
unicode = 0126;
},
{
glyphname = I;
lastChange = "2021-08-19 13:55:58 +0000";
layers = (
{
anchors = (
{
name = bottom;
position = "{169, 0}";
},
{
name = ogonek;
position = "{202, -4}";
},
{
name = top;
position = "{438, 535}";
},
{
name = topleft;
position = "{-40, 535}";
}
);
layerId = "57DEED6F-9A00-47D0-BD9B-6FE09716AB2D";
paths = (
{
closed = 1;
nodes = (
"222 -35 OFFCURVE",
"233 -31 OFFCURVE",
"247 -24 CURVE SMOOTH",
"260 -18 OFFCURVE",
"267 -10 OFFCURVE",
"267 -2 CURVE SMOOTH",
"267 4 OFFCURVE",
"264 7 OFFCURVE",
"259 7 CURVE SMOOTH",
"257 7 OFFCURVE",
"253 0 OFFCURVE",
"242 -7 CURVE SMOOTH",
"231 -14 OFFCURVE",
"221 -15 OFFCURVE",
"215 -15 CURVE SMOOTH",
"202 -15 OFFCURVE",
"196 -5 OFFCURVE",
"195 14 CURVE",
"223 17 OFFCURVE",
"249 18 OFFCURVE",
"273 18 CURVE SMOOTH",
"302 18 OFFCURVE",
"372 13 OFFCURVE",
"396 -1 CURVE SMOOTH",
"402 -5 OFFCURVE",
"406 5 OFFCURVE",
"406 16 CURVE SMOOTH",
"406 25 OFFCURVE",
"404 31 OFFCURVE",
"400 36 CURVE SMOOTH",
"387 50 OFFCURVE",
"351 57 OFFCURVE",
"290 57 CURVE SMOOTH",
"263 57 OFFCURVE",
"232 55 OFFCURVE",
"198 51 CURVE",
"209 110 OFFCURVE",
"241 189 OFFCURVE",
"293 288 CURVE SMOOTH",
"327 353 OFFCURVE",
"378 429 OFFCURVE",
"437 504 CURVE",
"510 499 OFFCURVE",
"565 494 OFFCURVE",
"601 490 CURVE",
"604 489 LINE",
"611 489 OFFCURVE",
"615 492 OFFCURVE",
"615 497 CURVE SMOOTH",
"615 502 OFFCURVE",
"611 506 OFFCURVE",
"604 508 CURVE SMOOTH",
"589 511 OFFCURVE",
"577 512 OFFCURVE",
"569 513 CURVE SMOOTH",
"530 518 OFFCURVE",
"492 522 OFFCURVE",
"454 525 CURVE",
"461 534 OFFCURVE",
"464 539 OFFCURVE",
"464 540 CURVE SMOOTH",
"464 544 OFFCURVE",
"459 546 OFFCURVE",
"449 546 CURVE SMOOTH",
"424 546 OFFCURVE",
"408 540 OFFCURVE",
"400 529 CURVE",
"375 530 OFFCURVE",
"351 531 OFFCURVE",
"328 531 CURVE SMOOTH",
"242 531 OFFCURVE",
"180 522 OFFCURVE",
"142 504 CURVE SMOOTH",
"113 490 OFFCURVE",
"99 476 OFFCURVE",
"99 461 CURVE SMOOTH",
"99 442 OFFCURVE",
"126 419 OFFCURVE",
"179 394 CURVE SMOOTH",
"182 393 OFFCURVE",
"184 393 OFFCURVE",
"186 393 CURVE SMOOTH",
"193 393 OFFCURVE",
"196 396 OFFCURVE",
"196 401 CURVE SMOOTH",
"196 405 OFFCURVE",
"187 412 OFFCURVE",
"168 423 CURVE SMOOTH",
"149 434 OFFCURVE",
"140 444 OFFCURVE",
"140 453 CURVE SMOOTH",
"140 475 OFFCURVE",
"182 491 OFFCURVE",
"265 501 CURVE SMOOTH",
"293 504 OFFCURVE",
"326 505 OFFCURVE",
"365 505 CURVE SMOOTH",
"382 505 LINE",
"340 446 OFFCURVE",
"300 377 OFFCURVE",
"254 282 CURVE SMOOTH",
"203 176 OFFCURVE",
"177 103 OFFCURVE",
"170 47 CURVE",
"121 40 OFFCURVE",
"70 30 OFFCURVE",
"16 16 CURVE SMOOTH",
"-20 7 OFFCURVE",
"-40 1 OFFCURVE",
"-45 -1 CURVE SMOOTH",
"-52 -4 OFFCURVE",
"-55 -8 OFFCURVE",
"-55 -13 CURVE SMOOTH",
"-55 -22 OFFCURVE",
"-51 -26 OFFCURVE",
"-43 -26 CURVE SMOOTH",
"-27 -26 OFFCURVE",
"7 -20 OFFCURVE",
"58 -9 CURVE SMOOTH",
"111 2 OFFCURVE",
"152 10 OFFCURVE",
"169 12 CURVE",
"172 -19 OFFCURVE",
"186 -35 OFFCURVE",
"213 -35 CURVE SMOOTH"
);
}
);
width = 439;
},
{
anchors = (
{
name = bottom;
position = "{145, 0}";
},
{
name = ogonek;
position = "{184, -2}";
},
{
name = top;
position = "{454, 545}";
},
{
name = topleft;
position = "{-90, 545}";
}
);
layerId = "A9A9B55F-A222-44B0-A0B6-968BE501F3F8";
paths = (
{
closed = 1;
nodes = (
"222 -40 OFFCURVE",
"260 -18 OFFCURVE",
"260 3 CURVE SMOOTH",
"260 9 OFFCURVE",
"258 14 OFFCURVE",
"253 17 CURVE",
"261 17 LINE SMOOTH",
"307 17 OFFCURVE",
"352 13 OFFCURVE",
"394 -2 CURVE",
"396 -2 OFFCURVE",
"398 -3 OFFCURVE",
"400 -3 CURVE SMOOTH",
"410 -3 OFFCURVE",
"416 14 OFFCURVE",
"416 21 CURVE SMOOTH",
"416 71 OFFCURVE",
"313 64 OFFCURVE",
"281 64 CURVE SMOOTH",
"249 64 OFFCURVE",
"218 61 OFFCURVE",
"186 57 CURVE",
"226 206 OFFCURVE",
"364 394 OFFCURVE",
"463 503 CURVE",
"517 503 OFFCURVE",
"578 498 OFFCURVE",
"646 488 CURVE SMOOTH",
"653 487 OFFCURVE",
"664 491 OFFCURVE",
"665 502 CURVE SMOOTH",
"666 528 OFFCURVE",
"518 534 OFFCURVE",
"493 535 CURVE",
"497 545 LINE",
"498 557 OFFCURVE",
"483 557 OFFCURVE",
"476 557 CURVE SMOOTH",
"457 557 OFFCURVE",
"434 556 OFFCURVE",
"417 540 CURVE",
"405 541 OFFCURVE",
"379 542 OFFCURVE",
"348 542 CURVE SMOOTH",
"245 542 OFFCURVE",
"76 531 OFFCURVE",
"76 466 CURVE SMOOTH",
"76 418 OFFCURVE",
"154 396 OFFCURVE",
"177 392 CURVE SMOOTH",
"181 391 OFFCURVE",
"184 391 OFFCURVE",
"187 391 CURVE SMOOTH",
"197 391 OFFCURVE",
"204 394 OFFCURVE",
"204 399 CURVE SMOOTH",
"204 401 OFFCURVE",
"201 404 OFFCURVE",
"195 406 CURVE SMOOTH",
"141 425 OFFCURVE",
"124 439 OFFCURVE",
"125 459 CURVE SMOOTH",
"127 501 OFFCURVE",
"347 504 OFFCURVE",
"380 504 CURVE SMOOTH",
"387 504 LINE",
"306 405 OFFCURVE",
"166 177 OFFCURVE",
"142 51 CURVE",
"106 45 OFFCURVE",
"-112 10 OFFCURVE",
"-112 -20 CURVE SMOOTH",
"-112 -27 OFFCURVE",
"-110 -29 OFFCURVE",
"-105 -29 CURVE SMOOTH",
"-102 -29 OFFCURVE",
"-98 -28 OFFCURVE",
"-93 -27 CURVE SMOOTH",
"-9 -8 OFFCURVE",
"63 1 OFFCURVE",
"140 10 CURVE",
"144 -20 OFFCURVE",
"163 -32 OFFCURVE",
"192 -36 CURVE SMOOTH"
);
},
{
closed = 1;
nodes = (
"183 -11 OFFCURVE",
"175 3 OFFCURVE",
"174 13 CURVE",
"194 15 OFFCURVE",
"229 15 OFFCURVE",
"249 16 CURVE",
"234 -11 OFFCURVE",
"214 -15 OFFCURVE",
"198 -13 CURVE SMOOTH"
);
}
);
width = 399;
},
{
anchors = (
{
name = bottom;
position = "{194, 0}";
},
{
name = ogonek;
position = "{237, -11}";
},
{
name = top;
position = "{524, 545}";
},
{
name = topleft;
position = "{-69, 545}";
}
);
layerId = "AFE3E0A9-A514-4B93-8E4E-B7D18C88F31C";
paths = (
{
closed = 1;
nodes = (
"282 -40 OFFCURVE",
"323 -18 OFFCURVE",
"323 3 CURVE SMOOTH",
"323 9 OFFCURVE",
"320 14 OFFCURVE",
"314 17 CURVE",
"323 17 LINE SMOOTH",
"374 17 OFFCURVE",
"424 13 OFFCURVE",
"472 -2 CURVE",
"479 -3 LINE SMOOTH",
"489 -3 OFFCURVE",
"495 12 OFFCURVE",
"495 20 CURVE SMOOTH",
"495 60 OFFCURVE",
"424 64 OFFCURVE",
"376 64 CURVE SMOOTH",
"344 64 LINE SMOOTH",
"309 64 OFFCURVE",
"274 61 OFFCURVE",
"239 57 CURVE",
"278 206 OFFCURVE",
"423 394 OFFCURVE",
"529 503 CURVE",
"589 503 OFFCURVE",
"657 498 OFFCURVE",
"733 488 CURVE SMOOTH",
"742 487 OFFCURVE",
"753 491 OFFCURVE",
"753 502 CURVE SMOOTH",
"753 528 OFFCURVE",
"589 534 OFFCURVE",
"561 535 CURVE",
"566 545 LINE",
"566 557 OFFCURVE",
"549 557 OFFCURVE",
"541 557 CURVE SMOOTH",
"520 557 OFFCURVE",
"494 556 OFFCURVE",
"477 540 CURVE",
"463 541 OFFCURVE",
"435 542 OFFCURVE",
"401 542 CURVE SMOOTH",
"287 542 OFFCURVE",
"99 531 OFFCURVE",
"101 466 CURVE SMOOTH",
"102 418 OFFCURVE",
"190 396 OFFCURVE",
"215 392 CURVE SMOOTH",
"219 391 OFFCURVE",
"223 391 OFFCURVE",
"226 391 CURVE SMOOTH",
"238 391 OFFCURVE",
"246 394 OFFCURVE",
"246 399 CURVE SMOOTH",
"246 401 OFFCURVE",
"242 404 OFFCURVE",
"235 406 CURVE SMOOTH",
"174 425 OFFCURVE",
"155 439 OFFCURVE",
"155 459 CURVE SMOOTH",
"155 501 OFFCURVE",
"400 504 OFFCURVE",
"437 504 CURVE SMOOTH",
"444 504 LINE",
"359 405 OFFCURVE",
"212 177 OFFCURVE",
"190 51 CURVE",
"150 45 OFFCURVE",
"-90 10 OFFCURVE",
"-90 -20 CURVE SMOOTH",
"-90 -27 OFFCURVE",
"-87 -29 OFFCURVE",
"-82 -29 CURVE SMOOTH",
"-78 -29 OFFCURVE",
"-73 -28 OFFCURVE",
"-68 -27 CURVE SMOOTH",
"24 -8 OFFCURVE",
"104 1 OFFCURVE",
"189 10 CURVE",
"195 -21 OFFCURVE",
"218 -32 OFFCURVE",
"249 -36 CURVE SMOOTH"
);
},
{
closed = 1;
nodes = (
"237 -11 OFFCURVE",
"229 4 OFFCURVE",
"227 13 CURVE",
"249 15 OFFCURVE",
"288 15 OFFCURVE",
"310 16 CURVE",
"294 -11 OFFCURVE",
"272 -15 OFFCURVE",
"254 -13 CURVE SMOOTH"
);
}
);
width = 667;
}
);
leftKerningGroup = I;
note = I;
rightKerningGroup = I;
unicode = 0049;
},
{
glyphname = IJ;
lastChange = "2021-08-18 15:15:43 +0000";
layers = (
{
layerId = "57DEED6F-9A00-47D0-BD9B-6FE09716AB2D";
paths = (
{
closed = 1;
nodes = (
"477 -351 LINE SMOOTH",
"645 -342 OFFCURVE",
"834 -154 OFFCURVE",
"915 79 CURVE",
"924 81 OFFCURVE",
"931 81 OFFCURVE",
"940 81 CURVE SMOOTH",
"950 81 OFFCURVE",
"969 81 OFFCURVE",
"974 79 CURVE",
"983 72 LINE",
"986 72 OFFCURVE",
"988 75 OFFCURVE",
"988 82 CURVE SMOOTH",
"988 98 OFFCURVE",
"972 102 OFFCURVE",
"932 102 CURVE SMOOTH",
"923 102 LINE",
"935 139 OFFCURVE",
"941 175 OFFCURVE",
"948 210 CURVE SMOOTH",
"950 220 LINE SMOOTH",
"957 270 OFFCURVE",
"961 313 OFFCURVE",
"961 354 CURVE SMOOTH",
"961 415 OFFCURVE",
"952 473 OFFCURVE",
"917 504 CURVE SMOOTH",
"892 527 OFFCURVE",
"857 539 OFFCURVE",
"821 539 CURVE SMOOTH",
"817 539 LINE SMOOTH",
"767 539 OFFCURVE",
"715 523 OFFCURVE",
"674 500 CURVE",
"673 504 OFFCURVE",
"669 506 OFFCURVE",
"664 508 CURVE",
"649 511 OFFCURVE",
"637 512 OFFCURVE",
"629 513 CURVE SMOOTH",
"590 518 OFFCURVE",
"552 522 OFFCURVE",
"514 525 CURVE",
"521 534 OFFCURVE",
"524 539 OFFCURVE",
"524 540 CURVE SMOOTH",
"524 544 OFFCURVE",
"519 546 OFFCURVE",
"509 546 CURVE SMOOTH",
"484 546 OFFCURVE",
"468 540 OFFCURVE",
"460 529 CURVE",
"435 530 OFFCURVE",
"411 531 OFFCURVE",
"388 531 CURVE SMOOTH",
"302 531 OFFCURVE",
"240 522 OFFCURVE",
"202 504 CURVE SMOOTH",
"173 490 OFFCURVE",
"159 476 OFFCURVE",
"159 461 CURVE SMOOTH",
"159 442 OFFCURVE",
"186 419 OFFCURVE",
"239 394 CURVE SMOOTH",
"242 393 OFFCURVE",
"244 393 OFFCURVE",
"246 393 CURVE SMOOTH",
"253 393 OFFCURVE",
"256 396 OFFCURVE",
"256 401 CURVE SMOOTH",
"256 405 OFFCURVE",
"247 412 OFFCURVE",
"228 423 CURVE SMOOTH",
"209 434 OFFCURVE",
"200 444 OFFCURVE",
"200 453 CURVE SMOOTH",
"200 475 OFFCURVE",
"242 491 OFFCURVE",
"325 501 CURVE SMOOTH",
"353 504 OFFCURVE",
"386 505 OFFCURVE",
"425 505 CURVE SMOOTH",
"442 505 LINE",
"400 446 OFFCURVE",
"360 377 OFFCURVE",
"314 282 CURVE SMOOTH",
"263 176 OFFCURVE",
"237 103 OFFCURVE",
"230 47 CURVE",
"181 40 OFFCURVE",
"130 30 OFFCURVE",
"76 16 CURVE SMOOTH",
"40 7 OFFCURVE",
"20 1 OFFCURVE",
"15 -1 CURVE SMOOTH",
"8 -4 OFFCURVE",
"5 -8 OFFCURVE",
"5 -13 CURVE SMOOTH",
"5 -22 OFFCURVE",
"9 -26 OFFCURVE",
"17 -26 CURVE SMOOTH",
"33 -26 OFFCURVE",
"67 -20 OFFCURVE",
"118 -9 CURVE SMOOTH",
"171 2 OFFCURVE",
"212 10 OFFCURVE",
"229 12 CURVE",
"232 -19 OFFCURVE",
"246 -35 OFFCURVE",
"273 -35 CURVE SMOOTH",
"282 -35 OFFCURVE",
"293 -31 OFFCURVE",
"307 -24 CURVE SMOOTH",
"320 -18 OFFCURVE",
"327 -10 OFFCURVE",
"327 -2 CURVE SMOOTH",
"327 4 OFFCURVE",
"324 7 OFFCURVE",
"319 7 CURVE SMOOTH",
"317 7 OFFCURVE",
"313 0 OFFCURVE",
"302 -7 CURVE SMOOTH",
"291 -14 OFFCURVE",
"281 -15 OFFCURVE",
"275 -15 CURVE SMOOTH",
"262 -15 OFFCURVE",
"256 -5 OFFCURVE",
"255 14 CURVE",
"283 17 OFFCURVE",
"309 18 OFFCURVE",
"333 18 CURVE SMOOTH",
"362 18 OFFCURVE",
"432 13 OFFCURVE",
"456 -1 CURVE SMOOTH",
"462 -5 OFFCURVE",
"466 5 OFFCURVE",
"466 16 CURVE SMOOTH",
"466 25 OFFCURVE",
"464 31 OFFCURVE",
"460 36 CURVE SMOOTH",
"447 50 OFFCURVE",
"411 57 OFFCURVE",
"350 57 CURVE SMOOTH",
"323 57 OFFCURVE",
"292 55 OFFCURVE",
"258 51 CURVE",
"269 110 OFFCURVE",
"301 189 OFFCURVE",
"353 288 CURVE SMOOTH",
"387 353 OFFCURVE",
"438 429 OFFCURVE",
"497 504 CURVE",
"568 499 OFFCURVE",
"622 494 OFFCURVE",
"658 490 CURVE",
"570 433 OFFCURVE",
"476 320 OFFCURVE",
"476 240 CURVE SMOOTH",
"476 200 OFFCURVE",
"494 167 OFFCURVE",
"534 154 CURVE SMOOTH",
"546 150 OFFCURVE",
"557 149 OFFCURVE",
"568 149 CURVE SMOOTH",
"585 149 OFFCURVE",
"608 152 OFFCURVE",
"623 157 CURVE SMOOTH",
"650 166 OFFCURVE",
"697 195 OFFCURVE",
"718 220 CURVE SMOOTH",
"724 228 OFFCURVE",
"728 233 OFFCURVE",
"728 239 CURVE SMOOTH",
"728 243 OFFCURVE",
"727 244 OFFCURVE",
"725 244 CURVE SMOOTH",
"720 244 LINE SMOOTH",
"719 244 OFFCURVE",
"679 211 OFFCURVE",
"646 192 CURVE SMOOTH",
"622 178 OFFCURVE",
"598 170 OFFCURVE",
"572 170 CURVE SMOOTH",
"562 170 OFFCURVE",
"553 171 OFFCURVE",
"542 173 CURVE SMOOTH",
"513 179 OFFCURVE",
"502 201 OFFCURVE",
"502 228 CURVE SMOOTH",
"502 298 OFFCURVE",
"609 421 OFFCURVE",
"687 474 CURVE SMOOTH",
"725 500 OFFCURVE",
"775 520 OFFCURVE",
"821 520 CURVE SMOOTH",
"849 520 OFFCURVE",
"876 510 OFFCURVE",
"894 487 CURVE SMOOTH",
"916 460 OFFCURVE",
"923 417 OFFCURVE",
"923 372 CURVE SMOOTH",
"923 320 OFFCURVE",
"913 262 OFFCURVE",
"906 220 CURVE SMOOTH",
"899 182 OFFCURVE",
"891 145 OFFCURVE",
"876 99 CURVE",
"778 82 OFFCURVE",
"660 41 OFFCURVE",
"555 -21 CURVE SMOOTH",
"433 -92 OFFCURVE",
"366 -168 OFFCURVE",
"357 -245 CURVE",
"357 -257 LINE SMOOTH",
"357 -285 OFFCURVE",
"366 -306 OFFCURVE",
"387 -324 CURVE SMOOTH",
"408 -342 OFFCURVE",
"437 -351 OFFCURVE",
"471 -351 CURVE SMOOTH"
);
},
{
closed = 1;
nodes = (
"449 -337 OFFCURVE",
"427 -325 OFFCURVE",
"412 -311 CURVE SMOOTH",
"399 -298 OFFCURVE",
"389 -286 OFFCURVE",
"389 -259 CURVE SMOOTH",
"389 -256 OFFCURVE",
"389 -254 OFFCURVE",
"390 -246 CURVE SMOOTH",
"396 -196 OFFCURVE",
"432 -143 OFFCURVE",
"493 -90 CURVE SMOOTH",
"533 -55 OFFCURVE",
"580 -22 OFFCURVE",
"657 12 CURVE SMOOTH",
"739 49 OFFCURVE",
"817 71 OFFCURVE",
"870 79 CURVE",
"823 -65 OFFCURVE",
"736 -191 OFFCURVE",
"628 -275 CURVE SMOOTH",
"576 -315 OFFCURVE",
"529 -333 OFFCURVE",
"482 -336 CURVE SMOOTH"
);
}
);
width = 1009;
},
{
layerId = "A9A9B55F-A222-44B0-A0B6-968BE501F3F8";
paths = (
{
closed = 1;
nodes = (
"728 -352 OFFCURVE",
"951 -115 OFFCURVE",
"1037 85 CURVE",
"1060 88 OFFCURVE",
"1084 84 OFFCURVE",
"1101 71 CURVE",
"1109 71 OFFCURVE",
"1116 77 OFFCURVE",
"1116 85 CURVE SMOOTH",
"1116 87 LINE SMOOTH",
"1114 104 OFFCURVE",
"1075 113 OFFCURVE",
"1059 113 CURVE SMOOTH",
"1046 113 LINE",
"1077 194 OFFCURVE",
"1100 287 OFFCURVE",
"1100 373 CURVE SMOOTH",
"1100 486 OFFCURVE",
"1050 550 OFFCURVE",
"939 550 CURVE SMOOTH",
"810 550 OFFCURVE",
"538 414 OFFCURVE",
"538 240 CURVE SMOOTH",
"538 174 OFFCURVE",
"594 143 OFFCURVE",
"648 143 CURVE SMOOTH",
"706 143 OFFCURVE",
"800 191 OFFCURVE",
"835 239 CURVE",
"839 243 OFFCURVE",
"840 247 OFFCURVE",
"840 250 CURVE SMOOTH",
"840 253 OFFCURVE",
"837 255 OFFCURVE",
"833 255 CURVE SMOOTH",
"830 255 OFFCURVE",
"826 254 OFFCURVE",
"822 252 CURVE",
"785 220 OFFCURVE",
"710 173 OFFCURVE",
"650 173 CURVE SMOOTH",
"622 173 OFFCURVE",
"579 184 OFFCURVE",
"579 230 CURVE SMOOTH",
"579 366 OFFCURVE",
"800 528 OFFCURVE",
"938 528 CURVE SMOOTH",
"1016 528 OFFCURVE",
"1046 456 OFFCURVE",
"1046 379 CURVE SMOOTH",
"1046 300 OFFCURVE",
"1018 187 OFFCURVE",
"988 112 CURVE",
"835 87 OFFCURVE",
"448 -24 OFFCURVE",
"391 -204 CURVE SMOOTH",
"385 -222 OFFCURVE",
"383 -238 OFFCURVE",
"383 -252 CURVE SMOOTH",
"383 -326 OFFCURVE",
"453 -352 OFFCURVE",
"518 -352 CURVE SMOOTH"
);
},
{
closed = 1;
nodes = (
"293 -11 OFFCURVE",
"285 3 OFFCURVE",
"284 13 CURVE",
"304 15 OFFCURVE",
"339 15 OFFCURVE",
"359 16 CURVE",
"344 -11 OFFCURVE",
"324 -15 OFFCURVE",
"308 -13 CURVE SMOOTH"
);
},
{
closed = 1;
nodes = (
"464 -333 OFFCURVE",
"430 -306 OFFCURVE",
"430 -262 CURVE SMOOTH",
"430 -255 OFFCURVE",
"431 -249 OFFCURVE",
"432 -242 CURVE SMOOTH",
"467 -61 OFFCURVE",
"837 60 OFFCURVE",
"978 82 CURVE",
"909 -86 OFFCURVE",
"734 -324 OFFCURVE",
"522 -331 CURVE SMOOTH"
);
},
{
closed = 1;
nodes = (
"332 -40 OFFCURVE",
"370 -18 OFFCURVE",
"370 3 CURVE SMOOTH",
"370 9 OFFCURVE",
"368 14 OFFCURVE",
"363 17 CURVE",
"371 17 LINE SMOOTH",
"417 17 OFFCURVE",
"462 13 OFFCURVE",
"504 -2 CURVE",
"506 -2 OFFCURVE",
"508 -3 OFFCURVE",
"510 -3 CURVE SMOOTH",
"520 -3 OFFCURVE",
"526 14 OFFCURVE",
"526 21 CURVE SMOOTH",
"526 71 OFFCURVE",
"423 64 OFFCURVE",
"391 64 CURVE SMOOTH",
"359 64 OFFCURVE",
"328 61 OFFCURVE",
"296 57 CURVE",
"336 206 OFFCURVE",
"474 394 OFFCURVE",
"573 503 CURVE",
"627 503 OFFCURVE",
"688 498 OFFCURVE",
"756 488 CURVE SMOOTH",
"763 487 OFFCURVE",
"774 491 OFFCURVE",
"775 502 CURVE SMOOTH",
"776 528 OFFCURVE",
"628 534 OFFCURVE",
"603 535 CURVE",
"607 545 LINE",
"608 557 OFFCURVE",
"593 557 OFFCURVE",
"586 557 CURVE SMOOTH",
"567 557 OFFCURVE",
"544 556 OFFCURVE",
"527 540 CURVE",
"515 541 OFFCURVE",
"489 542 OFFCURVE",
"458 542 CURVE SMOOTH",
"355 542 OFFCURVE",
"186 531 OFFCURVE",
"186 466 CURVE SMOOTH",
"186 418 OFFCURVE",
"264 396 OFFCURVE",
"287 392 CURVE SMOOTH",
"291 391 OFFCURVE",
"294 391 OFFCURVE",
"297 391 CURVE SMOOTH",
"307 391 OFFCURVE",
"314 394 OFFCURVE",
"314 399 CURVE SMOOTH",
"314 401 OFFCURVE",
"311 404 OFFCURVE",
"305 406 CURVE SMOOTH",
"251 425 OFFCURVE",
"234 439 OFFCURVE",
"235 459 CURVE SMOOTH",
"237 501 OFFCURVE",
"457 504 OFFCURVE",
"490 504 CURVE SMOOTH",
"497 504 LINE",
"416 405 OFFCURVE",
"276 177 OFFCURVE",
"252 51 CURVE",
"216 45 OFFCURVE",
"-2 10 OFFCURVE",
"-2 -20 CURVE SMOOTH",
"-2 -27 OFFCURVE",
"0 -29 OFFCURVE",
"5 -29 CURVE SMOOTH",
"8 -29 OFFCURVE",
"12 -28 OFFCURVE",
"17 -27 CURVE SMOOTH",
"101 -8 OFFCURVE",
"173 1 OFFCURVE",
"250 10 CURVE",
"254 -20 OFFCURVE",
"273 -32 OFFCURVE",
"302 -36 CURVE SMOOTH"
);
}
);
width = 1124;
},
{
layerId = "AFE3E0A9-A514-4B93-8E4E-B7D18C88F31C";
paths = (
{
closed = 1;
nodes = (
"824 -352 OFFCURVE",
"1063 -115 OFFCURVE",
"1151 85 CURVE",
"1176 88 OFFCURVE",
"1203 84 OFFCURVE",
"1222 71 CURVE",
"1231 71 OFFCURVE",
"1238 77 OFFCURVE",
"1238 84 CURVE SMOOTH",
"1238 87 LINE",
"1235 104 OFFCURVE",
"1192 113 OFFCURVE",
"1174 113 CURVE SMOOTH",
"1160 113 LINE",
"1188 190 OFFCURVE",
"1210 278 OFFCURVE",
"1210 360 CURVE SMOOTH",
"1210 481 OFFCURVE",
"1152 550 OFFCURVE",
"1024 550 CURVE SMOOTH",
"882 550 OFFCURVE",
"590 416 OFFCURVE",
"590 245 CURVE SMOOTH",
"590 176 OFFCURVE",
"655 143 OFFCURVE",
"716 143 CURVE SMOOTH",
"781 143 OFFCURVE",
"883 191 OFFCURVE",
"921 239 CURVE SMOOTH",
"924 243 OFFCURVE",
"926 246 OFFCURVE",
"926 249 CURVE SMOOTH",
"926 253 OFFCURVE",
"922 255 OFFCURVE",
"917 255 CURVE SMOOTH",
"914 255 OFFCURVE",
"910 254 OFFCURVE",
"905 252 CURVE",
"865 220 OFFCURVE",
"784 173 OFFCURVE",
"717 173 CURVE SMOOTH",
"680 173 OFFCURVE",
"636 186 OFFCURVE",
"636 233 CURVE SMOOTH",
"636 369 OFFCURVE",
"871 528 OFFCURVE",
"1023 528 CURVE SMOOTH",
"1114 528 OFFCURVE",
"1149 449 OFFCURVE",
"1149 368 CURVE SMOOTH",
"1149 290 OFFCURVE",
"1124 184 OFFCURVE",
"1095 112 CURVE",
"926 87 OFFCURVE",
"500 -24 OFFCURVE",
"443 -204 CURVE SMOOTH",
"438 -220 OFFCURVE",
"436 -235 OFFCURVE",
"436 -248 CURVE SMOOTH",
"436 -325 OFFCURVE",
"517 -352 OFFCURVE",
"591 -352 CURVE SMOOTH"
);
},
{
closed = 1;
nodes = (
"326 -11 OFFCURVE",
"318 4 OFFCURVE",
"316 13 CURVE",
"338 15 OFFCURVE",
"377 15 OFFCURVE",
"399 16 CURVE",
"383 -11 OFFCURVE",
"361 -15 OFFCURVE",
"343 -13 CURVE SMOOTH"
);
},
{
closed = 1;
nodes = (
"527 -333 OFFCURVE",
"488 -305 OFFCURVE",
"488 -258 CURVE SMOOTH",
"488 -253 OFFCURVE",
"488 -248 OFFCURVE",
"489 -242 CURVE SMOOTH",
"521 -62 OFFCURVE",
"929 60 OFFCURVE",
"1085 82 CURVE",
"1015 -86 OFFCURVE",
"829 -324 OFFCURVE",
"594 -331 CURVE SMOOTH"
);
},
{
closed = 1;
nodes = (
"371 -40 OFFCURVE",
"412 -18 OFFCURVE",
"412 3 CURVE SMOOTH",
"412 9 OFFCURVE",
"409 14 OFFCURVE",
"403 17 CURVE",
"412 17 LINE SMOOTH",
"463 17 OFFCURVE",
"513 13 OFFCURVE",
"561 -2 CURVE",
"568 -3 LINE SMOOTH",
"578 -3 OFFCURVE",
"584 12 OFFCURVE",
"584 20 CURVE SMOOTH",
"584 60 OFFCURVE",
"513 64 OFFCURVE",
"465 64 CURVE SMOOTH",
"433 64 LINE SMOOTH",
"398 64 OFFCURVE",
"363 61 OFFCURVE",
"328 57 CURVE",
"367 206 OFFCURVE",
"512 394 OFFCURVE",
"618 503 CURVE",
"678 503 OFFCURVE",
"746 498 OFFCURVE",
"822 488 CURVE SMOOTH",
"831 487 OFFCURVE",
"842 491 OFFCURVE",
"842 502 CURVE SMOOTH",
"842 528 OFFCURVE",
"678 534 OFFCURVE",
"650 535 CURVE",
"655 545 LINE",
"655 557 OFFCURVE",
"638 557 OFFCURVE",
"630 557 CURVE SMOOTH",
"609 557 OFFCURVE",
"583 556 OFFCURVE",
"566 540 CURVE",
"552 541 OFFCURVE",
"524 542 OFFCURVE",
"490 542 CURVE SMOOTH",
"376 542 OFFCURVE",
"188 531 OFFCURVE",
"190 466 CURVE SMOOTH",
"191 418 OFFCURVE",
"279 396 OFFCURVE",
"304 392 CURVE SMOOTH",
"308 391 OFFCURVE",
"312 391 OFFCURVE",
"315 391 CURVE SMOOTH",
"327 391 OFFCURVE",
"335 394 OFFCURVE",
"335 399 CURVE SMOOTH",
"335 401 OFFCURVE",
"331 404 OFFCURVE",
"324 406 CURVE SMOOTH",
"263 425 OFFCURVE",
"244 439 OFFCURVE",
"244 459 CURVE SMOOTH",
"244 501 OFFCURVE",
"489 504 OFFCURVE",
"526 504 CURVE SMOOTH",
"533 504 LINE",
"448 405 OFFCURVE",
"301 177 OFFCURVE",
"279 51 CURVE",
"239 45 OFFCURVE",
"-1 10 OFFCURVE",
"-1 -20 CURVE SMOOTH",
"-1 -27 OFFCURVE",
"2 -29 OFFCURVE",
"7 -29 CURVE SMOOTH",
"11 -29 OFFCURVE",
"16 -28 OFFCURVE",
"21 -27 CURVE SMOOTH",
"113 -8 OFFCURVE",
"193 1 OFFCURVE",
"278 10 CURVE",
"284 -21 OFFCURVE",
"307 -32 OFFCURVE",
"338 -36 CURVE SMOOTH"
);
}
);
width = 1249;
}
);
note = IJ;
unicode = 0132;
},
{
glyphname = J;
lastChange = "2021-08-19 13:55:51 +0000";
layers = (
{
anchors = (
{
name = bottom;
position = "{271, 0}";
},
{
name = top;
position = "{362, 535}";
}
);
layerId = "57DEED6F-9A00-47D0-BD9B-6FE09716AB2D";
paths = (
{
closed = 1;
nodes = (
"19 -351 LINE SMOOTH",
"191 -351 OFFCURVE",
"378 -149 OFFCURVE",
"457 79 CURVE",
"466 81 OFFCURVE",
"473 81 OFFCURVE",
"482 81 CURVE SMOOTH",
"492 81 OFFCURVE",
"511 81 OFFCURVE",
"516 79 CURVE",
"525 72 LINE",
"528 72 OFFCURVE",
"530 75 OFFCURVE",
"530 82 CURVE SMOOTH",
"530 98 OFFCURVE",
"514 102 OFFCURVE",
"474 102 CURVE SMOOTH",
"465 102 LINE",
"477 139 OFFCURVE",
"483 175 OFFCURVE",
"490 210 CURVE SMOOTH",
"492 220 LINE SMOOTH",
"500 259 OFFCURVE",
"503 310 OFFCURVE",
"503 354 CURVE SMOOTH",
"503 415 OFFCURVE",
"494 473 OFFCURVE",
"459 504 CURVE SMOOTH",
"434 527 OFFCURVE",
"399 539 OFFCURVE",
"363 539 CURVE SMOOTH",
"359 539 LINE SMOOTH",
"307 539 OFFCURVE",
"252 521 OFFCURVE",
"211 497 CURVE SMOOTH",
"120 442 OFFCURVE",
"18 323 OFFCURVE",
"18 240 CURVE SMOOTH",
"18 200 OFFCURVE",
"36 167 OFFCURVE",
"76 154 CURVE SMOOTH",
"88 150 OFFCURVE",
"99 149 OFFCURVE",
"110 149 CURVE SMOOTH",
"127 149 OFFCURVE",
"150 152 OFFCURVE",
"165 157 CURVE SMOOTH",
"192 166 OFFCURVE",
"239 195 OFFCURVE",
"260 220 CURVE SMOOTH",
"266 228 OFFCURVE",
"270 233 OFFCURVE",
"270 239 CURVE SMOOTH",
"270 243 OFFCURVE",
"269 244 OFFCURVE",
"267 244 CURVE SMOOTH",
"262 244 LINE SMOOTH",
"261 244 OFFCURVE",
"221 211 OFFCURVE",
"188 192 CURVE SMOOTH",
"164 178 OFFCURVE",
"140 170 OFFCURVE",
"114 170 CURVE SMOOTH",
"104 170 OFFCURVE",
"95 171 OFFCURVE",
"84 173 CURVE SMOOTH",
"55 179 OFFCURVE",
"44 201 OFFCURVE",
"44 228 CURVE SMOOTH",
"44 298 OFFCURVE",
"151 421 OFFCURVE",
"229 474 CURVE SMOOTH",
"267 500 OFFCURVE",
"317 520 OFFCURVE",
"363 520 CURVE SMOOTH",
"391 520 OFFCURVE",
"418 510 OFFCURVE",
"436 487 CURVE SMOOTH",
"458 460 OFFCURVE",
"465 417 OFFCURVE",
"465 372 CURVE SMOOTH",
"465 320 OFFCURVE",
"455 262 OFFCURVE",
"448 220 CURVE SMOOTH",
"441 182 OFFCURVE",
"433 145 OFFCURVE",
"418 99 CURVE",
"320 82 OFFCURVE",
"202 41 OFFCURVE",
"97 -21 CURVE SMOOTH",
"-25 -92 OFFCURVE",
"-92 -168 OFFCURVE",
"-101 -245 CURVE",
"-101 -257 LINE SMOOTH",
"-101 -285 OFFCURVE",
"-92 -306 OFFCURVE",
"-71 -324 CURVE SMOOTH",
"-50 -342 OFFCURVE",
"-21 -351 OFFCURVE",
"13 -351 CURVE SMOOTH"
);
},
{
closed = 1;
nodes = (
"-9 -337 OFFCURVE",
"-31 -325 OFFCURVE",
"-46 -311 CURVE SMOOTH",
"-59 -298 OFFCURVE",
"-69 -286 OFFCURVE",
"-69 -259 CURVE SMOOTH",
"-69 -256 OFFCURVE",
"-69 -254 OFFCURVE",
"-68 -246 CURVE SMOOTH",
"-62 -196 OFFCURVE",
"-26 -143 OFFCURVE",
"35 -90 CURVE SMOOTH",
"75 -55 OFFCURVE",
"122 -22 OFFCURVE",
"199 12 CURVE SMOOTH",
"281 49 OFFCURVE",
"359 71 OFFCURVE",
"412 79 CURVE",
"365 -65 OFFCURVE",
"278 -191 OFFCURVE",
"170 -275 CURVE SMOOTH",
"118 -315 OFFCURVE",
"71 -333 OFFCURVE",
"24 -336 CURVE SMOOTH"
);
}
);
width = 541;
},
{
anchors = (
{
name = bottom;
position = "{301, 0}";
},
{
name = top;
position = "{428, 545}";
}
);
layerId = "A9A9B55F-A222-44B0-A0B6-968BE501F3F8";
paths = (
{
closed = 1;
nodes = (
"211 -352 OFFCURVE",
"434 -115 OFFCURVE",
"520 85 CURVE",
"543 88 OFFCURVE",
"567 84 OFFCURVE",
"584 71 CURVE",
"592 71 OFFCURVE",
"599 77 OFFCURVE",
"599 85 CURVE SMOOTH",
"599 87 LINE SMOOTH",
"597 104 OFFCURVE",
"558 113 OFFCURVE",
"542 113 CURVE SMOOTH",
"529 113 LINE",
"560 194 OFFCURVE",
"583 287 OFFCURVE",
"583 373 CURVE SMOOTH",
"583 486 OFFCURVE",
"533 550 OFFCURVE",
"422 550 CURVE SMOOTH",
"293 550 OFFCURVE",
"21 414 OFFCURVE",
"21 240 CURVE SMOOTH",
"21 174 OFFCURVE",
"77 143 OFFCURVE",
"131 143 CURVE SMOOTH",
"189 143 OFFCURVE",
"283 191 OFFCURVE",
"318 239 CURVE",
"322 243 OFFCURVE",
"323 247 OFFCURVE",
"323 250 CURVE SMOOTH",
"323 253 OFFCURVE",
"320 255 OFFCURVE",
"316 255 CURVE SMOOTH",
"313 255 OFFCURVE",
"309 254 OFFCURVE",
"305 252 CURVE",
"268 220 OFFCURVE",
"193 173 OFFCURVE",
"133 173 CURVE SMOOTH",
"105 173 OFFCURVE",
"62 184 OFFCURVE",
"62 230 CURVE SMOOTH",
"62 366 OFFCURVE",
"283 528 OFFCURVE",
"421 528 CURVE SMOOTH",
"499 528 OFFCURVE",
"529 456 OFFCURVE",
"529 379 CURVE SMOOTH",
"529 300 OFFCURVE",
"501 187 OFFCURVE",
"471 112 CURVE",
"318 87 OFFCURVE",
"-69 -24 OFFCURVE",
"-126 -204 CURVE SMOOTH",
"-132 -222 OFFCURVE",
"-134 -238 OFFCURVE",
"-134 -252 CURVE SMOOTH",
"-134 -326 OFFCURVE",
"-64 -352 OFFCURVE",
"1 -352 CURVE SMOOTH"
);
},
{
closed = 1;
nodes = (
"-53 -333 OFFCURVE",
"-87 -306 OFFCURVE",
"-87 -262 CURVE SMOOTH",
"-87 -255 OFFCURVE",
"-86 -249 OFFCURVE",
"-85 -242 CURVE SMOOTH",
"-50 -61 OFFCURVE",
"320 60 OFFCURVE",
"461 82 CURVE",
"392 -86 OFFCURVE",
"217 -324 OFFCURVE",
"5 -331 CURVE SMOOTH"
);
}
);
width = 602;
},
{
anchors = (
{
name = bottom;
position = "{335, 0}";
},
{
name = top;
position = "{448, 545}";
}
);
layerId = "AFE3E0A9-A514-4B93-8E4E-B7D18C88F31C";
paths = (
{
closed = 1;
nodes = (
"249 -352 OFFCURVE",
"488 -115 OFFCURVE",
"576 85 CURVE",
"601 88 OFFCURVE",
"628 84 OFFCURVE",
"647 71 CURVE",
"656 71 OFFCURVE",
"663 77 OFFCURVE",
"663 84 CURVE SMOOTH",
"663 87 LINE",
"660 104 OFFCURVE",
"617 113 OFFCURVE",
"599 113 CURVE SMOOTH",
"585 113 LINE",
"613 190 OFFCURVE",
"635 278 OFFCURVE",
"635 360 CURVE SMOOTH",
"635 481 OFFCURVE",
"577 550 OFFCURVE",
"449 550 CURVE SMOOTH",
"307 550 OFFCURVE",
"15 416 OFFCURVE",
"15 245 CURVE SMOOTH",
"15 176 OFFCURVE",
"80 143 OFFCURVE",
"141 143 CURVE SMOOTH",
"206 143 OFFCURVE",
"308 191 OFFCURVE",
"346 239 CURVE SMOOTH",
"349 243 OFFCURVE",
"351 246 OFFCURVE",
"351 249 CURVE SMOOTH",
"351 253 OFFCURVE",
"347 255 OFFCURVE",
"342 255 CURVE SMOOTH",
"339 255 OFFCURVE",
"335 254 OFFCURVE",
"330 252 CURVE",
"290 220 OFFCURVE",
"209 173 OFFCURVE",
"142 173 CURVE SMOOTH",
"105 173 OFFCURVE",
"61 186 OFFCURVE",
"61 233 CURVE SMOOTH",
"61 369 OFFCURVE",
"296 528 OFFCURVE",
"448 528 CURVE SMOOTH",
"539 528 OFFCURVE",
"574 449 OFFCURVE",
"574 368 CURVE SMOOTH",
"574 290 OFFCURVE",
"549 184 OFFCURVE",
"520 112 CURVE",
"351 87 OFFCURVE",
"-75 -24 OFFCURVE",
"-132 -204 CURVE SMOOTH",
"-137 -220 OFFCURVE",
"-139 -235 OFFCURVE",
"-139 -248 CURVE SMOOTH",
"-139 -325 OFFCURVE",
"-58 -352 OFFCURVE",
"16 -352 CURVE SMOOTH"
);
},
{
closed = 1;
nodes = (
"-48 -333 OFFCURVE",
"-87 -305 OFFCURVE",
"-87 -258 CURVE SMOOTH",
"-87 -253 OFFCURVE",
"-87 -248 OFFCURVE",
"-86 -242 CURVE SMOOTH",
"-54 -62 OFFCURVE",
"354 60 OFFCURVE",
"510 82 CURVE",
"440 -86 OFFCURVE",
"254 -324 OFFCURVE",
"19 -331 CURVE SMOOTH"
);
}
);
width = 669;
}
);
note = J;
unicode = 004A;
},
{
glyphname = K;
lastChange = "2021-08-18 15:15:43 +0000";
layers = (
{
anchors = (
{
name = bottom;
position = "{429, 0}";
},
{
name = top;
position = "{628, 535}";
}
);
layerId = "57DEED6F-9A00-47D0-BD9B-6FE09716AB2D";
paths = (
{
closed = 1;
nodes = (
"150 -63 OFFCURVE",
"218 -34 OFFCURVE",
"286 24 CURVE SMOOTH",
"341 71 OFFCURVE",
"388 130 OFFCURVE",
"428 200 CURVE",
"467 149 OFFCURVE",
"501 109 OFFCURVE",
"543 68 CURVE SMOOTH",
"602 10 OFFCURVE",
"649 -19 OFFCURVE",
"684 -19 CURVE SMOOTH",
"697 -19 OFFCURVE",
"708 -14 OFFCURVE",
"717 -5 CURVE SMOOTH",
"726 4 OFFCURVE",
"730 16 OFFCURVE",
"730 30 CURVE SMOOTH",
"730 57 OFFCURVE",
"724 70 OFFCURVE",
"713 70 CURVE SMOOTH",
"708 70 OFFCURVE",
"705 67 OFFCURVE",
"705 61 CURVE SMOOTH",
"705 59 OFFCURVE",
"706 55 OFFCURVE",
"708 46 CURVE SMOOTH",
"709 39 OFFCURVE",
"710 33 OFFCURVE",
"710 29 CURVE SMOOTH",
"710 12 OFFCURVE",
"702 4 OFFCURVE",
"687 4 CURVE SMOOTH",
"658 4 OFFCURVE",
"615 35 OFFCURVE",
"556 97 CURVE SMOOTH",
"520 135 OFFCURVE",
"477 187 OFFCURVE",
"449 228 CURVE",
"646 313 OFFCURVE",
"751 397 OFFCURVE",
"751 483 CURVE SMOOTH",
"751 493 OFFCURVE",
"748 498 OFFCURVE",
"740 498 CURVE SMOOTH",
"735 498 OFFCURVE",
"732 495 OFFCURVE",
"730 488 CURVE SMOOTH",
"726 474 OFFCURVE",
"718 457 OFFCURVE",
"717 455 CURVE SMOOTH",
"679 382 OFFCURVE",
"591 314 OFFCURVE",
"454 251 CURVE",
"493 338 OFFCURVE",
"513 411 OFFCURVE",
"513 471 CURVE SMOOTH",
"513 520 OFFCURVE",
"496 544 OFFCURVE",
"462 544 CURVE SMOOTH",
"450 544 OFFCURVE",
"434 541 OFFCURVE",
"415 533 CURVE SMOOTH",
"393 524 OFFCURVE",
"381 516 OFFCURVE",
"381 506 CURVE SMOOTH",
"381 500 OFFCURVE",
"383 497 OFFCURVE",
"388 497 CURVE SMOOTH",
"389 497 OFFCURVE",
"396 501 OFFCURVE",
"409 508 CURVE SMOOTH",
"422 515 OFFCURVE",
"433 519 OFFCURVE",
"442 519 CURVE SMOOTH",
"461 519 OFFCURVE",
"471 503 OFFCURVE",
"471 471 CURVE SMOOTH",
"471 420 OFFCURVE",
"454 354 OFFCURVE",
"421 274 CURVE",
"407 299 OFFCURVE",
"392 332 OFFCURVE",
"379 364 CURVE SMOOTH",
"378 367 OFFCURVE",
"376 369 OFFCURVE",
"374 369 CURVE SMOOTH",
"369 369 OFFCURVE",
"365 362 OFFCURVE",
"361 348 CURVE SMOOTH",
"357 335 OFFCURVE",
"355 325 OFFCURVE",
"355 318 CURVE SMOOTH",
"355 307 OFFCURVE",
"371 280 OFFCURVE",
"402 235 CURVE",
"364 164 OFFCURVE",
"321 102 OFFCURVE",
"270 52 CURVE SMOOTH",
"205 -12 OFFCURVE",
"139 -44 OFFCURVE",
"73 -44 CURVE SMOOTH",
"25 -44 OFFCURVE",
"1 -23 OFFCURVE",
"1 19 CURVE SMOOTH",
"1 52 OFFCURVE",
"14 85 OFFCURVE",
"41 119 CURVE SMOOTH",
"85 175 OFFCURVE",
"146 218 OFFCURVE",
"219 246 CURVE SMOOTH",
"230 250 OFFCURVE",
"234 253 OFFCURVE",
"234 257 CURVE SMOOTH",
"234 262 OFFCURVE",
"231 264 OFFCURVE",
"225 264 CURVE SMOOTH",
"180 264 OFFCURVE",
"126 236 OFFCURVE",
"65 181 CURVE SMOOTH",
"2 124 OFFCURVE",
"-30 73 OFFCURVE",
"-30 26 CURVE SMOOTH",
"-30 -3 OFFCURVE",
"-18 -26 OFFCURVE",
"6 -42 CURVE SMOOTH",
"26 -56 OFFCURVE",
"52 -63 OFFCURVE",
"83 -63 CURVE SMOOTH"
);
}
);
width = 731;
},
{
anchors = (
{
name = bottom;
position = "{439, 0}";
},
{
name = top;
position = "{673, 545}";
}
);
layerId = "A9A9B55F-A222-44B0-A0B6-968BE501F3F8";
paths = (
{
closed = 1;
nodes = (
"126 -65 OFFCURVE",
"205 -41 OFFCURVE",
"286 20 CURVE SMOOTH",
"345 64 OFFCURVE",
"400 126 OFFCURVE",
"446 193 CURVE",
"482 147 OFFCURVE",
"536 92 OFFCURVE",
"564 66 CURVE SMOOTH",
"625 10 OFFCURVE",
"682 -20 OFFCURVE",
"720 -20 CURVE SMOOTH",
"736 -20 OFFCURVE",
"750 -14 OFFCURVE",
"761 -5 CURVE SMOOTH",
"772 4 OFFCURVE",
"780 24 OFFCURVE",
"780 39 CURVE SMOOTH",
"780 67 OFFCURVE",
"770 81 OFFCURVE",
"761 81 CURVE SMOOTH",
"756 81 OFFCURVE",
"755 78 OFFCURVE",
"755 73 CURVE SMOOTH",
"755 68 LINE",
"754 65 OFFCURVE",
"755 60 OFFCURVE",
"757 53 CURVE",
"757 49 LINE SMOOTH",
"757 44 OFFCURVE",
"758 40 OFFCURVE",
"757 37 CURVE",
"757 22 OFFCURVE",
"745 16 OFFCURVE",
"731 16 CURVE SMOOTH",
"700 16 OFFCURVE",
"650 46 OFFCURVE",
"589 106 CURVE SMOOTH",
"546 148 OFFCURVE",
"517 180 OFFCURVE",
"478 232 CURVE",
"702 318 OFFCURVE",
"817 403 OFFCURVE",
"817 490 CURVE SMOOTH",
"817 502 OFFCURVE",
"813 508 OFFCURVE",
"804 508 CURVE SMOOTH",
"798 508 OFFCURVE",
"791 500 OFFCURVE",
"789 492 CURVE SMOOTH",
"785 478 OFFCURVE",
"778 467 OFFCURVE",
"774 461 CURVE SMOOTH",
"730 389 OFFCURVE",
"632 324 OFFCURVE",
"485 262 CURVE",
"529 345 OFFCURVE",
"554 424 OFFCURVE",
"554 483 CURVE SMOOTH",
"554 528 OFFCURVE",
"534 552 OFFCURVE",
"494 552 CURVE SMOOTH",
"478 552 OFFCURVE",
"459 549 OFFCURVE",
"439 541 CURVE SMOOTH",
"414 531 OFFCURVE",
"396 520 OFFCURVE",
"396 511 CURVE SMOOTH",
"396 503 OFFCURVE",
"399 499 OFFCURVE",
"408 499 CURVE SMOOTH",
"410 499 OFFCURVE",
"417 503 OFFCURVE",
"432 510 CURVE SMOOTH",
"448 517 OFFCURVE",
"459 521 OFFCURVE",
"469 521 CURVE SMOOTH",
"488 521 OFFCURVE",
"493 504 OFFCURVE",
"493 479 CURVE SMOOTH",
"493 427 OFFCURVE",
"479 378 OFFCURVE",
"439 296 CURVE",
"425 319 OFFCURVE",
"416 339 OFFCURVE",
"404 369 CURVE SMOOTH",
"403 372 OFFCURVE",
"399 376 OFFCURVE",
"395 376 CURVE SMOOTH",
"374 376 OFFCURVE",
"361 337 OFFCURVE",
"361 320 CURVE SMOOTH",
"361 309 OFFCURVE",
"380 277 OFFCURVE",
"412 233 CURVE",
"366 160 OFFCURVE",
"322 108 OFFCURVE",
"268 61 CURVE SMOOTH",
"196 -1 OFFCURVE",
"123 -33 OFFCURVE",
"50 -33 CURVE SMOOTH",
"1 -33 OFFCURVE",
"-32 -16 OFFCURVE",
"-32 23 CURVE SMOOTH",
"-32 52 OFFCURVE",
"-24 87 OFFCURVE",
"10 124 CURVE SMOOTH",
"60 179 OFFCURVE",
"142 228 OFFCURVE",
"227 255 CURVE",
"237 257 OFFCURVE",
"242 261 OFFCURVE",
"242 265 CURVE SMOOTH",
"242 269 OFFCURVE",
"237 272 OFFCURVE",
"228 272 CURVE SMOOTH",
"177 272 OFFCURVE",
"109 244 OFFCURVE",
"34 186 CURVE SMOOTH",
"-40 128 OFFCURVE",
"-79 75 OFFCURVE",
"-79 26 CURVE SMOOTH",
"-79 -7 OFFCURVE",
"-61 -30 OFFCURVE",
"-38 -44 CURVE SMOOTH",
"-17 -56 OFFCURVE",
"14 -65 OFFCURVE",
"49 -65 CURVE SMOOTH"
);
}
);
width = 774;
},
{
anchors = (
{
name = bottom;
position = "{525, 0}";
},
{
name = top;
position = "{751, 545}";
}
);
layerId = "AFE3E0A9-A514-4B93-8E4E-B7D18C88F31C";
paths = (
{
closed = 1;
nodes = (
"188 -65 OFFCURVE",
"275 -41 OFFCURVE",
"362 20 CURVE SMOOTH",
"433 69 OFFCURVE",
"487 130 OFFCURVE",
"533 193 CURVE",
"575 148 OFFCURVE",
"625 102 OFFCURVE",
"670 66 CURVE SMOOTH",
"743 8 OFFCURVE",
"805 -20 OFFCURVE",
"847 -20 CURVE SMOOTH",
"865 -20 OFFCURVE",
"879 -14 OFFCURVE",
"891 -5 CURVE SMOOTH",
"903 4 OFFCURVE",
"910 24 OFFCURVE",
"910 39 CURVE SMOOTH",
"910 67 OFFCURVE",
"898 81 OFFCURVE",
"888 81 CURVE SMOOTH",
"882 81 OFFCURVE",
"881 78 OFFCURVE",
"881 72 CURVE SMOOTH",
"881 68 LINE SMOOTH",
"881 65 OFFCURVE",
"882 60 OFFCURVE",
"884 53 CURVE",
"884 51 OFFCURVE",
"885 50 OFFCURVE",
"885 49 CURVE SMOOTH",
"885 44 OFFCURVE",
"886 40 OFFCURVE",
"886 37 CURVE SMOOTH",
"886 22 OFFCURVE",
"872 16 OFFCURVE",
"857 16 CURVE SMOOTH",
"821 16 OFFCURVE",
"768 45 OFFCURVE",
"696 106 CURVE SMOOTH",
"642 152 OFFCURVE",
"611 181 OFFCURVE",
"568 232 CURVE",
"809 317 OFFCURVE",
"934 400 OFFCURVE",
"934 486 CURVE SMOOTH",
"934 498 OFFCURVE",
"931 508 OFFCURVE",
"919 508 CURVE SMOOTH",
"912 508 OFFCURVE",
"905 500 OFFCURVE",
"903 492 CURVE SMOOTH",
"900 480 OFFCURVE",
"892 467 OFFCURVE",
"888 461 CURVE SMOOTH",
"841 389 OFFCURVE",
"736 324 OFFCURVE",
"575 262 CURVE",
"618 342 OFFCURVE",
"642 418 OFFCURVE",
"642 476 CURVE SMOOTH",
"642 526 OFFCURVE",
"620 552 OFFCURVE",
"573 552 CURVE SMOOTH",
"556 552 OFFCURVE",
"535 549 OFFCURVE",
"512 541 CURVE SMOOTH",
"485 531 OFFCURVE",
"466 520 OFFCURVE",
"466 511 CURVE SMOOTH",
"466 503 OFFCURVE",
"469 499 OFFCURVE",
"479 499 CURVE SMOOTH",
"481 499 OFFCURVE",
"489 503 OFFCURVE",
"506 510 CURVE SMOOTH",
"523 517 OFFCURVE",
"536 521 OFFCURVE",
"547 521 CURVE SMOOTH",
"570 521 OFFCURVE",
"575 501 OFFCURVE",
"575 471 CURVE SMOOTH",
"575 422 OFFCURVE",
"561 374 OFFCURVE",
"522 296 CURVE",
"507 318 OFFCURVE",
"494 340 OFFCURVE",
"480 369 CURVE SMOOTH",
"479 372 OFFCURVE",
"475 376 OFFCURVE",
"470 376 CURVE SMOOTH",
"447 376 OFFCURVE",
"435 337 OFFCURVE",
"435 320 CURVE SMOOTH",
"435 309 OFFCURVE",
"457 277 OFFCURVE",
"494 233 CURVE",
"446 160 OFFCURVE",
"399 108 OFFCURVE",
"341 61 CURVE SMOOTH",
"263 -1 OFFCURVE",
"183 -33 OFFCURVE",
"102 -33 CURVE SMOOTH",
"47 -33 OFFCURVE",
"9 -15 OFFCURVE",
"9 25 CURVE SMOOTH",
"9 59 OFFCURVE",
"20 91 OFFCURVE",
"52 124 CURVE SMOOTH",
"104 178 OFFCURVE",
"194 228 OFFCURVE",
"288 255 CURVE",
"299 257 OFFCURVE",
"304 261 OFFCURVE",
"304 265 CURVE SMOOTH",
"304 269 OFFCURVE",
"299 272 OFFCURVE",
"288 272 CURVE SMOOTH",
"232 272 OFFCURVE",
"157 244 OFFCURVE",
"77 187 CURVE SMOOTH",
"-3 129 OFFCURVE",
"-44 77 OFFCURVE",
"-44 29 CURVE SMOOTH",
"-44 -3 OFFCURVE",
"-27 -28 OFFCURVE",
"4 -44 CURVE SMOOTH",
"29 -56 OFFCURVE",
"63 -65 OFFCURVE",
"102 -65 CURVE SMOOTH"
);
}
);
width = 905;
}
);
note = K;
unicode = 004B;
},
{
glyphname = L;
lastChange = "2021-08-18 15:15:43 +0000";
layers = (
{
anchors = (
{
name = bottom;
position = "{272, -34}";
},
{
name = center;
position = "{247, 268}";
},
{
name = top;
position = "{475, 535}";
},
{
name = topright;
position = "{615, 551}";
}
);
layerId = "57DEED6F-9A00-47D0-BD9B-6FE09716AB2D";
paths = (
{
closed = 1;
nodes = (
"454 -56 OFFCURVE",
"487 -51 OFFCURVE",
"516 -39 CURVE SMOOTH",
"554 -23 OFFCURVE",
"573 1 OFFCURVE",
"573 34 CURVE SMOOTH",
"573 55 OFFCURVE",
"561 75 OFFCURVE",
"537 92 CURVE SMOOTH",
"534 94 OFFCURVE",
"532 95 OFFCURVE",
"529 95 CURVE SMOOTH",
"524 95 OFFCURVE",
"521 92 OFFCURVE",
"521 87 CURVE SMOOTH",
"521 84 OFFCURVE",
"526 77 OFFCURVE",
"536 68 CURVE SMOOTH",
"545 59 OFFCURVE",
"550 50 OFFCURVE",
"550 41 CURVE SMOOTH",
"550 16 OFFCURVE",
"533 -2 OFFCURVE",
"499 -13 CURVE SMOOTH",
"475 -21 OFFCURVE",
"447 -25 OFFCURVE",
"415 -25 CURVE SMOOTH",
"388 -25 OFFCURVE",
"350 -20 OFFCURVE",
"307 -9 CURVE SMOOTH",
"266 1 OFFCURVE",
"230 15 OFFCURVE",
"208 27 CURVE",
"231 49 OFFCURVE",
"253 85 OFFCURVE",
"276 134 CURVE SMOOTH",
"289 162 OFFCURVE",
"300 188 OFFCURVE",
"324 255 CURVE",
"385 286 LINE SMOOTH",
"429 308 OFFCURVE",
"468 342 OFFCURVE",
"501 377 CURVE SMOOTH",
"545 423 OFFCURVE",
"566 465 OFFCURVE",
"566 503 CURVE SMOOTH",
"566 539 OFFCURVE",
"545 557 OFFCURVE",
"503 557 CURVE SMOOTH",
"472 557 OFFCURVE",
"439 535 OFFCURVE",
"403 493 CURVE SMOOTH",
"381 467 OFFCURVE",
"358 433 OFFCURVE",
"338 389 CURVE SMOOTH",
"328 368 OFFCURVE",
"302 293 OFFCURVE",
"295 273 CURVE",
"262 262 OFFCURVE",
"230 257 OFFCURVE",
"201 257 CURVE SMOOTH",
"142 257 OFFCURVE",
"112 273 OFFCURVE",
"112 304 CURVE SMOOTH",
"112 337 OFFCURVE",
"152 367 OFFCURVE",
"233 394 CURVE SMOOTH",
"269 404 LINE SMOOTH",
"276 406 OFFCURVE",
"280 409 OFFCURVE",
"280 413 CURVE SMOOTH",
"280 419 OFFCURVE",
"276 422 OFFCURVE",
"269 422 CURVE SMOOTH",
"239 422 OFFCURVE",
"202 410 OFFCURVE",
"157 385 CURVE SMOOTH",
"108 358 OFFCURVE",
"83 330 OFFCURVE",
"83 302 CURVE SMOOTH",
"83 277 OFFCURVE",
"96 257 OFFCURVE",
"124 245 CURVE SMOOTH",
"144 236 OFFCURVE",
"170 232 OFFCURVE",
"199 232 CURVE SMOOTH",
"226 232 OFFCURVE",
"254 237 OFFCURVE",
"285 246 CURVE",
"252 151 OFFCURVE",
"218 81 OFFCURVE",
"184 38 CURVE",
"178 42 OFFCURVE",
"137 78 OFFCURVE",
"81 129 CURVE SMOOTH",
"31 175 OFFCURVE",
"-3 198 OFFCURVE",
"-23 198 CURVE SMOOTH",
"-42 198 OFFCURVE",
"-56 189 OFFCURVE",
"-67 170 CURVE SMOOTH",
"-76 155 OFFCURVE",
"-80 137 OFFCURVE",
"-80 117 CURVE SMOOTH",
"-80 77 OFFCURVE",
"-64 43 OFFCURVE",
"-33 15 CURVE SMOOTH",
"-2 -12 OFFCURVE",
"34 -26 OFFCURVE",
"75 -26 CURVE SMOOTH",
"109 -26 OFFCURVE",
"146 -14 OFFCURVE",
"185 11 CURVE",
"272 -34 OFFCURVE",
"349 -56 OFFCURVE",
"416 -56 CURVE SMOOTH"
);
},
{
closed = 1;
nodes = (
"40 -1 OFFCURVE",
"11 12 OFFCURVE",
"-16 37 CURVE SMOOTH",
"-43 62 OFFCURVE",
"-56 91 OFFCURVE",
"-56 123 CURVE SMOOTH",
"-56 150 OFFCURVE",
"-49 163 OFFCURVE",
"-34 163 CURVE SMOOTH",
"-29 163 OFFCURVE",
"2 142 OFFCURVE",
"55 100 CURVE SMOOTH",
"154 22 LINE",
"128 7 OFFCURVE",
"101 -1 OFFCURVE",
"72 -1 CURVE SMOOTH"
);
},
{
closed = 1;
nodes = (
"391 428 OFFCURVE",
"447 505 OFFCURVE",
"506 526 CURVE SMOOTH",
"512 528 OFFCURVE",
"517 529 OFFCURVE",
"522 529 CURVE SMOOTH",
"533 529 OFFCURVE",
"539 522 OFFCURVE",
"539 509 CURVE SMOOTH",
"539 482 OFFCURVE",
"513 441 OFFCURVE",
"460 387 CURVE SMOOTH",
"411 337 OFFCURVE",
"371 306 OFFCURVE",
"340 294 CURVE"
);
}
);
width = 583;
},
{
anchors = (
{
name = bottom;
position = "{364, -49}";
},
{
name = center;
position = "{335, 273}";
},
{
name = top;
position = "{639, 545}";
},
{
name = topright;
position = "{735, 570}";
}
);
layerId = "A9A9B55F-A222-44B0-A0B6-968BE501F3F8";
paths = (
{
closed = 1;
nodes = (
"606 -70 OFFCURVE",
"703 -49 OFFCURVE",
"703 30 CURVE SMOOTH",
"703 59 OFFCURVE",
"690 83 OFFCURVE",
"665 100 CURVE",
"658 103 OFFCURVE",
"654 105 OFFCURVE",
"651 105 CURVE SMOOTH",
"642 105 OFFCURVE",
"637 101 OFFCURVE",
"637 94 CURVE SMOOTH",
"637 90 OFFCURVE",
"651 80 OFFCURVE",
"662 71 CURVE",
"670 61 OFFCURVE",
"673 52 OFFCURVE",
"673 42 CURVE SMOOTH",
"673 16 OFFCURVE",
"647 -6 OFFCURVE",
"622 -14 CURVE SMOOTH",
"599 -21 OFFCURVE",
"564 -23 OFFCURVE",
"521 -23 CURVE SMOOTH",
"469 -23 OFFCURVE",
"350 1 OFFCURVE",
"299 35 CURVE",
"325 58 OFFCURVE",
"351 94 OFFCURVE",
"378 140 CURVE SMOOTH",
"387 156 OFFCURVE",
"404 192 OFFCURVE",
"434 259 CURVE",
"500 289 LINE SMOOTH",
"550 312 OFFCURVE",
"604 348 OFFCURVE",
"641 382 CURVE SMOOTH",
"690 428 OFFCURVE",
"714 474 OFFCURVE",
"714 512 CURVE SMOOTH",
"714 548 OFFCURVE",
"684 570 OFFCURVE",
"637 570 CURVE SMOOTH",
"601 570 OFFCURVE",
"565 553 OFFCURVE",
"522 510 CURVE SMOOTH",
"498 486 OFFCURVE",
"470 442 OFFCURVE",
"445 396 CURVE SMOOTH",
"433 374 OFFCURVE",
"407 321 OFFCURVE",
"391 281 CURVE",
"355 270 OFFCURVE",
"323 266 OFFCURVE",
"292 266 CURVE SMOOTH",
"228 266 OFFCURVE",
"198 281 OFFCURVE",
"198 310 CURVE SMOOTH",
"198 340 OFFCURVE",
"238 375 OFFCURVE",
"329 402 CURVE SMOOTH",
"342 406 OFFCURVE",
"355 408 OFFCURVE",
"363 410 CURVE SMOOTH",
"372 412 LINE SMOOTH",
"381 414 OFFCURVE",
"386 419 OFFCURVE",
"386 423 CURVE SMOOTH",
"386 427 OFFCURVE",
"382 430 OFFCURVE",
"374 430 CURVE SMOOTH",
"337 430 OFFCURVE",
"296 418 OFFCURVE",
"248 394 CURVE SMOOTH",
"194 366 OFFCURVE",
"159 335 OFFCURVE",
"159 307 CURVE SMOOTH",
"159 281 OFFCURVE",
"174 256 OFFCURVE",
"203 243 CURVE SMOOTH",
"223 235 OFFCURVE",
"251 231 OFFCURVE",
"287 231 CURVE SMOOTH",
"316 231 OFFCURVE",
"341 235 OFFCURVE",
"376 242 CURVE",
"336 151 OFFCURVE",
"305 91 OFFCURVE",
"268 50 CURVE",
"261 55 OFFCURVE",
"229 84 OFFCURVE",
"163 135 CURVE SMOOTH",
"106 179 OFFCURVE",
"65 208 OFFCURVE",
"42 208 CURVE SMOOTH",
"-24 208 OFFCURVE",
"-33 138 OFFCURVE",
"-33 114 CURVE SMOOTH",
"-33 74 OFFCURVE",
"-16 41 OFFCURVE",
"18 13 CURVE SMOOTH",
"52 -15 OFFCURVE",
"91 -29 OFFCURVE",
"138 -29 CURVE SMOOTH",
"176 -29 OFFCURVE",
"224 -16 OFFCURVE",
"267 8 CURVE",
"364 -49 OFFCURVE",
"459 -70 OFFCURVE",
"534 -70 CURVE SMOOTH"
);
},
{
closed = 1;
nodes = (
"104 7 OFFCURVE",
"74 20 OFFCURVE",
"47 44 CURVE SMOOTH",
"19 69 OFFCURVE",
"9 98 OFFCURVE",
"9 126 CURVE SMOOTH",
"9 151 OFFCURVE",
"17 162 OFFCURVE",
"33 162 CURVE SMOOTH",
"49 162 OFFCURVE",
"72 148 OFFCURVE",
"119 114 CURVE SMOOTH",
"239 29 LINE",
"214 16 OFFCURVE",
"165 7 OFFCURVE",
"136 7 CURVE SMOOTH"
);
},
{
closed = 1;
nodes = (
"518 433 OFFCURVE",
"580 506 OFFCURVE",
"641 525 CURVE SMOOTH",
"648 527 OFFCURVE",
"653 528 OFFCURVE",
"657 528 CURVE SMOOTH",
"667 528 OFFCURVE",
"673 522 OFFCURVE",
"673 513 CURVE SMOOTH",
"673 487 OFFCURVE",
"639 434 OFFCURVE",
"593 394 CURVE SMOOTH",
"542 349 OFFCURVE",
"494 324 OFFCURVE",
"461 311 CURVE"
);
}
);
width = 710;
},
{
anchors = (
{
name = bottom;
position = "{452, -36}";
},
{
name = center;
position = "{417, 273}";
},
{
name = top;
position = "{707, 545}";
},
{
name = topright;
position = "{848, 575}";
}
);
layerId = "AFE3E0A9-A514-4B93-8E4E-B7D18C88F31C";
paths = (
{
closed = 1;
nodes = (
"720 -70 OFFCURVE",
"827 -49 OFFCURVE",
"827 27 CURVE SMOOTH",
"827 51 OFFCURVE",
"812 80 OFFCURVE",
"780 100 CURVE",
"772 103 OFFCURVE",
"768 105 OFFCURVE",
"764 105 CURVE SMOOTH",
"755 105 OFFCURVE",
"750 101 OFFCURVE",
"750 94 CURVE SMOOTH",
"750 90 OFFCURVE",
"766 80 OFFCURVE",
"778 71 CURVE",
"788 61 OFFCURVE",
"792 51 OFFCURVE",
"792 41 CURVE SMOOTH",
"792 15 OFFCURVE",
"764 -7 OFFCURVE",
"737 -14 CURVE SMOOTH",
"707 -22 OFFCURVE",
"666 -23 OFFCURVE",
"626 -23 CURVE SMOOTH",
"568 -23 OFFCURVE",
"434 1 OFFCURVE",
"377 35 CURVE",
"402 55 OFFCURVE",
"433 95 OFFCURVE",
"460 140 CURVE SMOOTH",
"473 161 OFFCURVE",
"504 228 OFFCURVE",
"518 259 CURVE",
"590 289 LINE SMOOTH",
"638 309 OFFCURVE",
"705 349 OFFCURVE",
"743 382 CURVE SMOOTH",
"796 428 OFFCURVE",
"819 475 OFFCURVE",
"819 510 CURVE SMOOTH",
"819 547 OFFCURVE",
"785 570 OFFCURVE",
"731 570 CURVE SMOOTH",
"691 570 OFFCURVE",
"652 553 OFFCURVE",
"606 510 CURVE SMOOTH",
"576 482 OFFCURVE",
"549 437 OFFCURVE",
"525 396 CURVE SMOOTH",
"511 371 OFFCURVE",
"490 333 OFFCURVE",
"469 281 CURVE",
"429 270 OFFCURVE",
"394 266 OFFCURVE",
"360 266 CURVE SMOOTH",
"288 266 OFFCURVE",
"253 281 OFFCURVE",
"253 311 CURVE SMOOTH",
"253 341 OFFCURVE",
"298 375 OFFCURVE",
"396 402 CURVE SMOOTH",
"412 407 OFFCURVE",
"424 408 OFFCURVE",
"433 410 CURVE SMOOTH",
"442 412 LINE SMOOTH",
"452 414 OFFCURVE",
"458 419 OFFCURVE",
"458 423 CURVE SMOOTH",
"458 427 OFFCURVE",
"453 430 OFFCURVE",
"444 430 CURVE SMOOTH",
"405 430 OFFCURVE",
"354 417 OFFCURVE",
"305 394 CURVE SMOOTH",
"247 367 OFFCURVE",
"210 336 OFFCURVE",
"210 309 CURVE SMOOTH",
"210 283 OFFCURVE",
"229 256 OFFCURVE",
"260 243 CURVE",
"285 235 OFFCURVE",
"318 231 OFFCURVE",
"356 231 CURVE SMOOTH",
"388 231 OFFCURVE",
"416 235 OFFCURVE",
"453 242 CURVE",
"413 151 OFFCURVE",
"381 91 OFFCURVE",
"341 50 CURVE",
"333 55 OFFCURVE",
"289 89 OFFCURVE",
"221 135 CURVE SMOOTH",
"157 179 OFFCURVE",
"110 208 OFFCURVE",
"84 208 CURVE SMOOTH",
"15 208 OFFCURVE",
"5 144 OFFCURVE",
"5 117 CURVE SMOOTH",
"5 76 OFFCURVE",
"25 42 OFFCURVE",
"64 13 CURVE SMOOTH",
"103 -15 OFFCURVE",
"148 -29 OFFCURVE",
"200 -29 CURVE SMOOTH",
"242 -29 OFFCURVE",
"295 -16 OFFCURVE",
"342 8 CURVE",
"452 -49 OFFCURVE",
"558 -70 OFFCURVE",
"641 -70 CURVE SMOOTH"
);
},
{
closed = 1;
nodes = (
"161 7 OFFCURVE",
"125 21 OFFCURVE",
"96 44 CURVE SMOOTH",
"67 66 OFFCURVE",
"50 97 OFFCURVE",
"50 126 CURVE SMOOTH",
"50 151 OFFCURVE",
"58 162 OFFCURVE",
"75 162 CURVE SMOOTH",
"93 162 OFFCURVE",
"116 150 OFFCURVE",
"173 114 CURVE SMOOTH",
"310 29 LINE",
"282 16 OFFCURVE",
"229 7 OFFCURVE",
"197 7 CURVE SMOOTH"
);
},
{
closed = 1;
nodes = (
"605 433 OFFCURVE",
"670 506 OFFCURVE",
"738 525 CURVE SMOOTH",
"745 527 OFFCURVE",
"750 528 OFFCURVE",
"755 528 CURVE SMOOTH",
"766 528 OFFCURVE",
"773 522 OFFCURVE",
"773 513 CURVE SMOOTH",
"773 489 OFFCURVE",
"742 438 OFFCURVE",
"689 394 CURVE SMOOTH",
"635 349 OFFCURVE",
"582 324 OFFCURVE",
"546 311 CURVE"
);
}
);
width = 833;
}
);
note = L;
unicode = 004C;
},
{
glyphname = Lslash;
lastChange = "2021-08-18 15:15:43 +0000";
layers = (
{
components = (
{
name = L;
},
{
name = hyphen;
transform = "{0.97815, 0.20791, -0.20791, 0.97815, 277, 17}";
}
);
layerId = "57DEED6F-9A00-47D0-BD9B-6FE09716AB2D";
width = 673;
},
{
layerId = "A9A9B55F-A222-44B0-A0B6-968BE501F3F8";
paths = (
{
closed = 1;
nodes = (
"601 -65 OFFCURVE",
"638 -60 OFFCURVE",
"671 -46 CURVE SMOOTH",
"713 -29 OFFCURVE",
"742 -4 OFFCURVE",
"744 29 CURVE SMOOTH",
"744 50 OFFCURVE",
"731 70 OFFCURVE",
"705 87 CURVE SMOOTH",
"702 89 OFFCURVE",
"700 90 OFFCURVE",
"696 90 CURVE SMOOTH",
"691 90 OFFCURVE",
"687 87 OFFCURVE",
"686 82 CURVE SMOOTH",
"686 79 OFFCURVE",
"692 72 OFFCURVE",
"703 63 CURVE SMOOTH",
"712 54 OFFCURVE",
"718 45 OFFCURVE",
"718 36 CURVE SMOOTH",
"717 11 OFFCURVE",
"698 -3 OFFCURVE",
"660 -14 CURVE SMOOTH",
"633 -22 OFFCURVE",
"601 -26 OFFCURVE",
"565 -26 CURVE SMOOTH",
"533 -26 OFFCURVE",
"491 -21 OFFCURVE",
"444 -10 CURVE SMOOTH",
"398 0 OFFCURVE",
"359 8 OFFCURVE",
"330 22 CURVE",
"357 44 OFFCURVE",
"384 80 OFFCURVE",
"412 129 CURVE",
"418 142 OFFCURVE",
"428 160 OFFCURVE",
"438 181 CURVE",
"490 199 OFFCURVE",
"545 214 OFFCURVE",
"597 225 CURVE SMOOTH",
"601 226 OFFCURVE",
"608 237 OFFCURVE",
"608 242 CURVE SMOOTH",
"608 243 OFFCURVE",
"608 244 OFFCURVE",
"606 244 CURVE",
"559 234 OFFCURVE",
"506 221 OFFCURVE",
"449 204 CURVE",
"456 218 OFFCURVE",
"462 233 OFFCURVE",
"470 250 CURVE",
"539 281 LINE SMOOTH",
"589 305 OFFCURVE",
"635 329 OFFCURVE",
"674 365 CURVE SMOOTH",
"727 412 OFFCURVE",
"752 462 OFFCURVE",
"752 500 CURVE SMOOTH",
"752 535 OFFCURVE",
"729 552 OFFCURVE",
"683 552 CURVE SMOOTH",
"648 552 OFFCURVE",
"612 541 OFFCURVE",
"570 499 CURVE SMOOTH",
"542 471 OFFCURVE",
"513 426 OFFCURVE",
"490 384 CURVE SMOOTH",
"477 359 OFFCURVE",
"464 325 OFFCURVE",
"441 273 CURVE",
"404 262 OFFCURVE",
"367 257 OFFCURVE",
"334 257 CURVE SMOOTH",
"268 257 OFFCURVE",
"232 268 OFFCURVE",
"232 298 CURVE SMOOTH",
"232 331 OFFCURVE",
"278 362 OFFCURVE",
"372 389 CURVE SMOOTH",
"390 394 OFFCURVE",
"404 397 OFFCURVE",
"413 399 CURVE SMOOTH",
"422 401 OFFCURVE",
"426 404 OFFCURVE",
"426 408 CURVE SMOOTH",
"426 414 OFFCURVE",
"422 417 OFFCURVE",
"414 417 CURVE SMOOTH",
"379 417 OFFCURVE",
"338 405 OFFCURVE",
"286 380 CURVE SMOOTH",
"228 352 OFFCURVE",
"194 319 OFFCURVE",
"194 291 CURVE SMOOTH",
"194 267 OFFCURVE",
"208 248 OFFCURVE",
"239 236 CURVE SMOOTH",
"261 227 OFFCURVE",
"290 223 OFFCURVE",
"323 223 CURVE SMOOTH",
"353 223 OFFCURVE",
"385 228 OFFCURVE",
"421 237 CURVE",
"412 218 OFFCURVE",
"410 205 OFFCURVE",
"401 188 CURVE",
"360 174 OFFCURVE",
"317 158 OFFCURVE",
"271 139 CURVE SMOOTH",
"268 138 OFFCURVE",
"268 134 OFFCURVE",
"267 132 CURVE SMOOTH",
"266 128 OFFCURVE",
"262 116 OFFCURVE",
"262 110 CURVE SMOOTH",
"262 108 OFFCURVE",
"262 107 OFFCURVE",
"263 107 CURVE SMOOTH",
"267 108 LINE",
"302 127 OFFCURVE",
"344 145 OFFCURVE",
"388 163 CURVE",
"360 107 OFFCURVE",
"332 63 OFFCURVE",
"304 33 CURVE",
"296 38 OFFCURVE",
"258 76 OFFCURVE",
"191 132 CURVE SMOOTH",
"136 178 OFFCURVE",
"98 193 OFFCURVE",
"75 193 CURVE SMOOTH",
"54 193 OFFCURVE",
"38 184 OFFCURVE",
"25 165 CURVE SMOOTH",
"13 149 OFFCURVE",
"7 130 OFFCURVE",
"7 109 CURVE SMOOTH",
"7 70 OFFCURVE",
"24 37 OFFCURVE",
"58 10 CURVE SMOOTH",
"92 -17 OFFCURVE",
"132 -31 OFFCURVE",
"178 -31 CURVE SMOOTH",
"217 -31 OFFCURVE",
"255 -23 OFFCURVE",
"300 2 CURVE",
"400 -53 OFFCURVE",
"484 -65 OFFCURVE",
"559 -65 CURVE SMOOTH"
);
},
{
closed = 1;
nodes = (
"143 -5 OFFCURVE",
"114 8 OFFCURVE",
"86 33 CURVE SMOOTH",
"61 57 OFFCURVE",
"48 84 OFFCURVE",
"48 115 CURVE SMOOTH",
"48 144 OFFCURVE",
"55 158 OFFCURVE",
"72 158 CURVE SMOOTH",
"79 158 OFFCURVE",
"108 137 OFFCURVE",
"162 95 CURVE SMOOTH",
"262 18 LINE",
"236 3 OFFCURVE",
"207 -5 OFFCURVE",
"176 -5 CURVE SMOOTH"
);
},
{
closed = 1;
nodes = (
"558 428 OFFCURVE",
"620 501 OFFCURVE",
"683 521 CURVE SMOOTH",
"689 523 OFFCURVE",
"695 524 OFFCURVE",
"700 524 CURVE SMOOTH",
"711 524 OFFCURVE",
"717 518 OFFCURVE",
"717 508 CURVE SMOOTH",
"717 505 LINE SMOOTH",
"716 479 OFFCURVE",
"687 440 OFFCURVE",
"630 389 CURVE SMOOTH",
"576 342 OFFCURVE",
"533 312 OFFCURVE",
"500 301 CURVE"
);
}
);
width = 750;
},
{
layerId = "AFE3E0A9-A514-4B93-8E4E-B7D18C88F31C";
paths = (
{
closed = 1;
nodes = (
"671 -65 OFFCURVE",
"712 -60 OFFCURVE",
"748 -46 CURVE SMOOTH",
"795 -29 OFFCURVE",
"826 -4 OFFCURVE",
"826 29 CURVE SMOOTH",
"826 50 OFFCURVE",
"810 70 OFFCURVE",
"780 87 CURVE SMOOTH",
"777 89 OFFCURVE",
"774 90 OFFCURVE",
"770 90 CURVE SMOOTH",
"764 90 OFFCURVE",
"760 87 OFFCURVE",
"760 82 CURVE SMOOTH",
"760 79 OFFCURVE",
"767 72 OFFCURVE",
"779 63 CURVE SMOOTH",
"790 54 OFFCURVE",
"797 45 OFFCURVE",
"797 36 CURVE SMOOTH",
"797 11 OFFCURVE",
"777 -3 OFFCURVE",
"735 -14 CURVE SMOOTH",
"704 -22 OFFCURVE",
"669 -26 OFFCURVE",
"629 -26 CURVE SMOOTH",
"593 -26 OFFCURVE",
"547 -21 OFFCURVE",
"495 -10 CURVE SMOOTH",
"442 0 OFFCURVE",
"399 8 OFFCURVE",
"367 22 CURVE",
"396 44 OFFCURVE",
"424 80 OFFCURVE",
"453 129 CURVE SMOOTH",
"460 142 OFFCURVE",
"470 160 OFFCURVE",
"480 181 CURVE",
"538 199 OFFCURVE",
"598 214 OFFCURVE",
"656 225 CURVE SMOOTH",
"660 226 OFFCURVE",
"667 237 OFFCURVE",
"667 242 CURVE SMOOTH",
"667 243 OFFCURVE",
"667 244 OFFCURVE",
"665 244 CURVE",
"612 234 OFFCURVE",
"554 221 OFFCURVE",
"491 204 CURVE",
"499 218 OFFCURVE",
"505 233 OFFCURVE",
"513 250 CURVE",
"589 281 LINE SMOOTH",
"643 305 OFFCURVE",
"693 329 OFFCURVE",
"736 365 CURVE SMOOTH",
"791 411 OFFCURVE",
"817 460 OFFCURVE",
"817 498 CURVE SMOOTH",
"817 534 OFFCURVE",
"790 552 OFFCURVE",
"738 552 CURVE SMOOTH",
"699 552 OFFCURVE",
"660 541 OFFCURVE",
"615 499 CURVE SMOOTH",
"585 471 OFFCURVE",
"554 426 OFFCURVE",
"530 384 CURVE SMOOTH",
"517 359 OFFCURVE",
"503 325 OFFCURVE",
"480 273 CURVE",
"439 262 OFFCURVE",
"399 257 OFFCURVE",
"362 257 CURVE SMOOTH",
"288 257 OFFCURVE",
"247 268 OFFCURVE",
"247 299 CURVE SMOOTH",
"247 332 OFFCURVE",
"297 362 OFFCURVE",
"399 389 CURVE SMOOTH",
"419 394 OFFCURVE",
"435 397 OFFCURVE",
"444 399 CURVE SMOOTH",
"453 401 OFFCURVE",
"458 404 OFFCURVE",
"458 408 CURVE SMOOTH",
"458 414 OFFCURVE",
"453 417 OFFCURVE",
"444 417 CURVE SMOOTH",
"406 417 OFFCURVE",
"360 405 OFFCURVE",
"303 380 CURVE SMOOTH",
"242 353 OFFCURVE",
"205 321 OFFCURVE",
"205 293 CURVE SMOOTH",
"205 268 OFFCURVE",
"221 248 OFFCURVE",
"257 236 CURVE SMOOTH",
"282 227 OFFCURVE",
"314 223 OFFCURVE",
"351 223 CURVE SMOOTH",
"385 223 OFFCURVE",
"420 228 OFFCURVE",
"459 237 CURVE",
"450 218 OFFCURVE",
"448 205 OFFCURVE",
"439 188 CURVE",
"393 174 OFFCURVE",
"347 158 OFFCURVE",
"297 139 CURVE SMOOTH",
"293 138 OFFCURVE",
"293 134 OFFCURVE",
"292 132 CURVE SMOOTH",
"291 128 OFFCURVE",
"287 117 OFFCURVE",
"287 111 CURVE SMOOTH",
"287 109 OFFCURVE",
"288 107 OFFCURVE",
"289 107 CURVE SMOOTH",
"293 108 LINE",
"331 127 OFFCURVE",
"377 145 OFFCURVE",
"426 163 CURVE",
"397 107 OFFCURVE",
"367 63 OFFCURVE",
"337 33 CURVE",
"328 38 OFFCURVE",
"284 76 OFFCURVE",
"208 132 CURVE SMOOTH",
"145 178 OFFCURVE",
"102 193 OFFCURVE",
"77 193 CURVE SMOOTH",
"53 193 OFFCURVE",
"36 184 OFFCURVE",
"22 165 CURVE SMOOTH",
"10 150 OFFCURVE",
"5 132 OFFCURVE",
"5 112 CURVE SMOOTH",
"5 72 OFFCURVE",
"25 38 OFFCURVE",
"64 10 CURVE SMOOTH",
"103 -17 OFFCURVE",
"149 -31 OFFCURVE",
"200 -31 CURVE SMOOTH",
"243 -31 OFFCURVE",
"284 -23 OFFCURVE",
"333 2 CURVE",
"447 -53 OFFCURVE",
"541 -65 OFFCURVE",
"624 -65 CURVE SMOOTH"
);
},
{
closed = 1;
nodes = (
"160 -5 OFFCURVE",
"127 8 OFFCURVE",
"95 33 CURVE SMOOTH",
"64 58 OFFCURVE",
"49 86 OFFCURVE",
"49 118 CURVE SMOOTH",
"49 145 OFFCURVE",
"57 158 OFFCURVE",
"74 158 CURVE SMOOTH",
"82 158 OFFCURVE",
"116 137 OFFCURVE",
"177 95 CURVE SMOOTH",
"291 18 LINE",
"262 3 OFFCURVE",
"231 -5 OFFCURVE",
"197 -5 CURVE SMOOTH"
);
},
{
closed = 1;
nodes = (
"605 428 OFFCURVE",
"670 501 OFFCURVE",
"739 521 CURVE SMOOTH",
"746 523 OFFCURVE",
"752 524 OFFCURVE",
"758 524 CURVE SMOOTH",
"771 524 OFFCURVE",
"778 517 OFFCURVE",
"778 505 CURVE SMOOTH",
"778 479 OFFCURVE",
"747 440 OFFCURVE",
"686 389 CURVE SMOOTH",
"628 342 OFFCURVE",
"581 312 OFFCURVE",
"545 301 CURVE"
);
}
);
width = 833;
}
);
unicode = 0141;
},
{
glyphname = M;
lastChange = "2021-08-18 15:15:43 +0000";
layers = (
{
layerId = "57DEED6F-9A00-47D0-BD9B-6FE09716AB2D";
paths = (
{
closed = 1;
nodes = (
"1013 -72 OFFCURVE",
"1029 -67 OFFCURVE",
"1048 -57 CURVE SMOOTH",
"1066 -47 OFFCURVE",
"1075 -35 OFFCURVE",
"1075 -22 CURVE SMOOTH",
"1075 -19 OFFCURVE",
"1074 -17 OFFCURVE",
"1071 -17 CURVE SMOOTH",
"1068 -17 OFFCURVE",
"1059 -23 OFFCURVE",
"1043 -34 CURVE SMOOTH",
"1026 -46 OFFCURVE",
"1015 -51 OFFCURVE",
"1005 -51 CURVE SMOOTH",
"987 -51 OFFCURVE",
"978 -39 OFFCURVE",
"978 -15 CURVE SMOOTH",
"978 16 OFFCURVE",
"990 67 OFFCURVE",
"1018 137 CURVE SMOOTH",
"1040 193 OFFCURVE",
"1058 232 OFFCURVE",
"1081 289 CURVE SMOOTH",
"1094 321 OFFCURVE",
"1101 348 OFFCURVE",
"1101 370 CURVE SMOOTH",
"1101 397 OFFCURVE",
"1091 410 OFFCURVE",
"1070 410 CURVE SMOOTH",
"1064 410 OFFCURVE",
"1057 409 OFFCURVE",
"1048 406 CURVE SMOOTH",
"1017 396 OFFCURVE",
"964 356 OFFCURVE",
"890 285 CURVE SMOOTH",
"838 236 OFFCURVE",
"792 187 OFFCURVE",
"745 135 CURVE",
"786 234 OFFCURVE",
"806 309 OFFCURVE",
"806 361 CURVE SMOOTH",
"806 421 OFFCURVE",
"786 451 OFFCURVE",
"746 451 CURVE SMOOTH",
"713 451 OFFCURVE",
"667 421 OFFCURVE",
"611 358 CURVE SMOOTH",
"576 318 OFFCURVE",
"535 266 OFFCURVE",
"497 221 CURVE",
"545 314 OFFCURVE",
"569 390 OFFCURVE",
"569 450 CURVE SMOOTH",
"569 524 OFFCURVE",
"520 561 OFFCURVE",
"423 561 CURVE SMOOTH",
"377 561 OFFCURVE",
"325 553 OFFCURVE",
"266 535 CURVE SMOOTH",
"216 520 OFFCURVE",
"185 507 OFFCURVE",
"145 488 CURVE SMOOTH",
"95 464 OFFCURVE",
"59 441 OFFCURVE",
"24 413 CURVE SMOOTH",
"-26 373 OFFCURVE",
"-51 336 OFFCURVE",
"-51 301 CURVE SMOOTH",
"-51 268 OFFCURVE",
"-32 245 OFFCURVE",
"5 230 CURVE SMOOTH",
"32 219 OFFCURVE",
"65 214 OFFCURVE",
"103 214 CURVE SMOOTH",
"156 214 OFFCURVE",
"193 222 OFFCURVE",
"216 238 CURVE SMOOTH",
"219 240 OFFCURVE",
"221 242 OFFCURVE",
"221 245 CURVE SMOOTH",
"221 248 OFFCURVE",
"218 249 OFFCURVE",
"213 249 CURVE SMOOTH",
"198 249 OFFCURVE",
"180 247 OFFCURVE",
"148 242 CURVE SMOOTH",
"122 238 OFFCURVE",
"98 236 OFFCURVE",
"84 236 CURVE SMOOTH",
"11 236 OFFCURVE",
"-25 255 OFFCURVE",
"-25 292 CURVE SMOOTH",
"-25 317 OFFCURVE",
"0 350 OFFCURVE",
"51 389 CURVE SMOOTH",
"85 415 OFFCURVE",
"121 438 OFFCURVE",
"160 459 CURVE SMOOTH",
"200 481 OFFCURVE",
"232 496 OFFCURVE",
"272 510 CURVE SMOOTH",
"327 530 OFFCURVE",
"373 539 OFFCURVE",
"412 539 CURVE SMOOTH",
"485 539 OFFCURVE",
"522 506 OFFCURVE",
"522 439 CURVE SMOOTH",
"522 390 OFFCURVE",
"498 313 OFFCURVE",
"452 209 CURVE SMOOTH",
"409 112 OFFCURVE",
"370 42 OFFCURVE",
"333 -3 CURVE SMOOTH",
"330 -6 OFFCURVE",
"329 -10 OFFCURVE",
"329 -15 CURVE SMOOTH",
"329 -30 OFFCURVE",
"337 -37 OFFCURVE",
"352 -37 CURVE",
"358 -33 OFFCURVE",
"367 -22 OFFCURVE",
"378 -4 CURVE SMOOTH",
"400 33 LINE SMOOTH",
"464 140 OFFCURVE",
"532 232 OFFCURVE",
"608 316 CURVE SMOOTH",
"673 387 OFFCURVE",
"720 423 OFFCURVE",
"748 423 CURVE SMOOTH",
"765 423 OFFCURVE",
"774 409 OFFCURVE",
"774 381 CURVE SMOOTH",
"774 320 OFFCURVE",
"740 219 OFFCURVE",
"673 79 CURVE SMOOTH",
"647 24 OFFCURVE",
"636 5 OFFCURVE",
"635 3 CURVE SMOOTH",
"633 0 OFFCURVE",
"632 -4 OFFCURVE",
"632 -7 CURVE SMOOTH",
"632 -23 OFFCURVE",
"642 -31 OFFCURVE",
"662 -31 CURVE SMOOTH",
"665 -31 OFFCURVE",
"667 -31 OFFCURVE",
"670 -30 CURVE",
"677 -21 OFFCURVE",
"683 -13 OFFCURVE",
"686 -6 CURVE",
"719 44 LINE SMOOTH",
"762 106 OFFCURVE",
"815 170 OFFCURVE",
"877 238 CURVE SMOOTH",
"964 333 OFFCURVE",
"1025 381 OFFCURVE",
"1059 381 CURVE SMOOTH",
"1064 381 OFFCURVE",
"1066 377 OFFCURVE",
"1066 370 CURVE SMOOTH",
"1066 361 OFFCURVE",
"1064 348 OFFCURVE",
"1057 330 CURVE SMOOTH",
"1044 296 OFFCURVE",
"1040 289 OFFCURVE",
"1021 248 CURVE SMOOTH",
"996 194 OFFCURVE",
"978 148 OFFCURVE",
"966 112 CURVE SMOOTH",
"950 63 OFFCURVE",
"942 24 OFFCURVE",
"942 -5 CURVE SMOOTH",
"942 -50 OFFCURVE",
"961 -72 OFFCURVE",
"999 -72 CURVE SMOOTH"
);
}
);
width = 1114;
},
{
layerId = "A9A9B55F-A222-44B0-A0B6-968BE501F3F8";
paths = (
{
closed = 1;
nodes = (
"1123 -67 OFFCURVE",
"1141 -62 OFFCURVE",
"1162 -52 CURVE SMOOTH",
"1182 -42 OFFCURVE",
"1203 -28 OFFCURVE",
"1203 -15 CURVE SMOOTH",
"1203 -12 OFFCURVE",
"1201 -10 OFFCURVE",
"1199 -10 CURVE SMOOTH",
"1195 -10 OFFCURVE",
"1185 -16 OFFCURVE",
"1167 -27 CURVE SMOOTH",
"1150 -38 OFFCURVE",
"1136 -44 OFFCURVE",
"1125 -44 CURVE SMOOTH",
"1106 -44 OFFCURVE",
"1096 -33 OFFCURVE",
"1096 -11 CURVE SMOOTH",
"1096 19 OFFCURVE",
"1112 71 OFFCURVE",
"1145 143 CURVE SMOOTH",
"1159 173 OFFCURVE",
"1198 253 OFFCURVE",
"1219 295 CURVE SMOOTH",
"1237 331 OFFCURVE",
"1244 357 OFFCURVE",
"1244 377 CURVE SMOOTH",
"1244 404 OFFCURVE",
"1235 417 OFFCURVE",
"1213 417 CURVE SMOOTH",
"1206 417 OFFCURVE",
"1188 414 OFFCURVE",
"1179 411 CURVE SMOOTH",
"1139 399 OFFCURVE",
"1084 361 OFFCURVE",
"1000 290 CURVE SMOOTH",
"937 237 OFFCURVE",
"888 182 OFFCURVE",
"837 133 CURVE",
"887 236 OFFCURVE",
"916 318 OFFCURVE",
"916 369 CURVE SMOOTH",
"916 425 OFFCURVE",
"890 456 OFFCURVE",
"847 456 CURVE SMOOTH",
"811 456 OFFCURVE",
"760 426 OFFCURVE",
"697 363 CURVE SMOOTH",
"652 318 OFFCURVE",
"610 271 OFFCURVE",
"567 226 CURVE",
"624 322 OFFCURVE",
"653 400 OFFCURVE",
"653 461 CURVE SMOOTH",
"653 531 OFFCURVE",
"601 566 OFFCURVE",
"497 566 CURVE SMOOTH",
"446 566 OFFCURVE",
"382 558 OFFCURVE",
"314 540 CURVE SMOOTH",
"267 528 OFFCURVE",
"220 512 OFFCURVE",
"174 493 CURVE SMOOTH",
"121 471 OFFCURVE",
"75 445 OFFCURVE",
"35 418 CURVE SMOOTH",
"-23 378 OFFCURVE",
"-52 339 OFFCURVE",
"-52 304 CURVE SMOOTH",
"-52 271 OFFCURVE",
"-30 249 OFFCURVE",
"7 235 CURVE SMOOTH",
"38 224 OFFCURVE",
"74 219 OFFCURVE",
"119 219 CURVE SMOOTH",
"178 219 OFFCURVE",
"224 227 OFFCURVE",
"254 237 CURVE SMOOTH",
"259 239 OFFCURVE",
"263 244 OFFCURVE",
"263 248 CURVE SMOOTH",
"263 251 OFFCURVE",
"261 254 OFFCURVE",
"256 254 CURVE SMOOTH",
"255 254 LINE SMOOTH",
"208 249 OFFCURVE",
"161 241 OFFCURVE",
"114 241 CURVE SMOOTH",
"42 241 OFFCURVE",
"-3 256 OFFCURVE",
"-3 296 CURVE SMOOTH",
"-3 320 OFFCURVE",
"20 352 OFFCURVE",
"82 394 CURVE SMOOTH",
"121 420 OFFCURVE",
"162 443 OFFCURVE",
"204 464 CURVE SMOOTH",
"247 485 OFFCURVE",
"289 502 OFFCURVE",
"329 515 CURVE SMOOTH",
"391 535 OFFCURVE",
"436 541 OFFCURVE",
"479 541 CURVE SMOOTH",
"557 541 OFFCURVE",
"587 514 OFFCURVE",
"587 451 CURVE SMOOTH",
"587 403 OFFCURVE",
"558 321 OFFCURVE",
"503 216 CURVE SMOOTH",
"453 120 OFFCURVE",
"407 48 OFFCURVE",
"363 3 CURVE",
"361 0 OFFCURVE",
"360 -4 OFFCURVE",
"360 -9 CURVE SMOOTH",
"360 -23 OFFCURVE",
"375 -33 OFFCURVE",
"390 -33 CURVE SMOOTH",
"393 -33 OFFCURVE",
"395 -33 OFFCURVE",
"398 -32 CURVE",
"405 -28 OFFCURVE",
"415 -16 OFFCURVE",
"427 1 CURVE SMOOTH",
"453 38 LINE SMOOTH",
"525 141 OFFCURVE",
"608 240 OFFCURVE",
"691 321 CURVE SMOOTH",
"761 389 OFFCURVE",
"813 419 OFFCURVE",
"844 423 CURVE SMOOTH",
"861 425 OFFCURVE",
"867 411 OFFCURVE",
"867 391 CURVE SMOOTH",
"867 384 OFFCURVE",
"866 376 OFFCURVE",
"865 368 CURVE SMOOTH",
"855 305 OFFCURVE",
"823 221 OFFCURVE",
"744 81 CURVE SMOOTH",
"715 30 OFFCURVE",
"704 8 OFFCURVE",
"700 5 CURVE SMOOTH",
"697 2 OFFCURVE",
"696 -2 OFFCURVE",
"696 -5 CURVE SMOOTH",
"696 -21 OFFCURVE",
"716 -26 OFFCURVE",
"739 -26 CURVE SMOOTH",
"741 -26 OFFCURVE",
"749 -25 OFFCURVE",
"753 -24 CURVE",
"761 -15 OFFCURVE",
"768 -7 OFFCURVE",
"771 0 CURVE",
"810 50 LINE SMOOTH",
"866 120 OFFCURVE",
"912 174 OFFCURVE",
"984 243 CURVE SMOOTH",
"1083 338 OFFCURVE",
"1148 383 OFFCURVE",
"1185 383 CURVE SMOOTH",
"1190 383 OFFCURVE",
"1192 379 OFFCURVE",
"1192 372 CURVE SMOOTH",
"1192 361 OFFCURVE",
"1188 350 OFFCURVE",
"1181 333 CURVE SMOOTH",
"1165 296 OFFCURVE",
"1151 274 OFFCURVE",
"1138 250 CURVE SMOOTH",
"1108 196 OFFCURVE",
"1087 150 OFFCURVE",
"1073 114 CURVE SMOOTH",
"1052 62 OFFCURVE",
"1042 22 OFFCURVE",
"1042 -8 CURVE SMOOTH",
"1042 -49 OFFCURVE",
"1068 -67 OFFCURVE",
"1108 -67 CURVE SMOOTH"
);
}
);
width = 1241;
},
{
layerId = "AFE3E0A9-A514-4B93-8E4E-B7D18C88F31C";
paths = (
{
closed = 1;
nodes = (
"1251 -67 OFFCURVE",
"1271 -62 OFFCURVE",
"1294 -52 CURVE SMOOTH",
"1316 -42 OFFCURVE",
"1338 -28 OFFCURVE",
"1338 -15 CURVE SMOOTH",
"1338 -12 OFFCURVE",
"1336 -10 OFFCURVE",
"1333 -10 CURVE SMOOTH",
"1329 -10 OFFCURVE",
"1318 -16 OFFCURVE",
"1299 -27 CURVE SMOOTH",
"1280 -38 OFFCURVE",
"1264 -44 OFFCURVE",
"1252 -44 CURVE SMOOTH",
"1230 -44 OFFCURVE",
"1219 -32 OFFCURVE",
"1219 -8 CURVE SMOOTH",
"1219 23 OFFCURVE",
"1234 74 OFFCURVE",
"1268 144 CURVE SMOOTH",
"1290 190 OFFCURVE",
"1316 240 OFFCURVE",
"1345 296 CURVE SMOOTH",
"1361 328 OFFCURVE",
"1369 355 OFFCURVE",
"1369 377 CURVE SMOOTH",
"1369 404 OFFCURVE",
"1357 417 OFFCURVE",
"1332 417 CURVE SMOOTH",
"1324 417 OFFCURVE",
"1305 414 OFFCURVE",
"1294 411 CURVE SMOOTH",
"1256 401 OFFCURVE",
"1193 362 OFFCURVE",
"1102 291 CURVE SMOOTH",
"1036 240 OFFCURVE",
"989 190 OFFCURVE",
"926 133 CURVE",
"976 232 OFFCURVE",
"1005 311 OFFCURVE",
"1005 363 CURVE SMOOTH",
"1005 423 OFFCURVE",
"974 456 OFFCURVE",
"925 456 CURVE SMOOTH",
"885 456 OFFCURVE",
"829 426 OFFCURVE",
"761 363 CURVE SMOOTH",
"717 322 OFFCURVE",
"668 271 OFFCURVE",
"622 226 CURVE",
"680 319 OFFCURVE",
"709 395 OFFCURVE",
"709 455 CURVE SMOOTH",
"709 529 OFFCURVE",
"650 566 OFFCURVE",
"531 566 CURVE SMOOTH",
"475 566 OFFCURVE",
"403 558 OFFCURVE",
"329 540 CURVE SMOOTH",
"273 527 OFFCURVE",
"226 512 OFFCURVE",
"176 493 CURVE SMOOTH",
"117 471 OFFCURVE",
"67 445 OFFCURVE",
"23 418 CURVE SMOOTH",
"-40 378 OFFCURVE",
"-70 341 OFFCURVE",
"-70 306 CURVE SMOOTH",
"-70 273 OFFCURVE",
"-47 250 OFFCURVE",
"0 235 CURVE SMOOTH",
"34 224 OFFCURVE",
"75 219 OFFCURVE",
"124 219 CURVE SMOOTH",
"190 219 OFFCURVE",
"241 227 OFFCURVE",
"275 237 CURVE SMOOTH",
"280 239 OFFCURVE",
"283 244 OFFCURVE",
"283 248 CURVE SMOOTH",
"283 251 OFFCURVE",
"281 254 OFFCURVE",
"276 254 CURVE SMOOTH",
"275 254 LINE SMOOTH",
"222 249 OFFCURVE",
"170 241 OFFCURVE",
"118 241 CURVE SMOOTH",
"29 241 OFFCURVE",
"-15 260 OFFCURVE",
"-15 297 CURVE SMOOTH",
"-15 322 OFFCURVE",
"15 355 OFFCURVE",
"77 394 CURVE SMOOTH",
"119 420 OFFCURVE",
"163 443 OFFCURVE",
"210 464 CURVE SMOOTH",
"264 488 OFFCURVE",
"302 502 OFFCURVE",
"347 515 CURVE SMOOTH",
"414 535 OFFCURVE",
"464 541 OFFCURVE",
"512 541 CURVE SMOOTH",
"601 541 OFFCURVE",
"636 512 OFFCURVE",
"636 445 CURVE SMOOTH",
"636 396 OFFCURVE",
"607 319 OFFCURVE",
"551 215 CURVE SMOOTH",
"500 121 OFFCURVE",
"451 48 OFFCURVE",
"405 3 CURVE SMOOTH",
"402 0 OFFCURVE",
"401 -4 OFFCURVE",
"401 -9 CURVE SMOOTH",
"401 -23 OFFCURVE",
"418 -33 OFFCURVE",
"436 -33 CURVE SMOOTH",
"439 -33 OFFCURVE",
"442 -33 OFFCURVE",
"445 -32 CURVE",
"453 -27 OFFCURVE",
"463 -16 OFFCURVE",
"476 1 CURVE SMOOTH",
"503 38 LINE SMOOTH",
"582 146 OFFCURVE",
"667 240 OFFCURVE",
"757 321 CURVE SMOOTH",
"836 392 OFFCURVE",
"888 419 OFFCURVE",
"922 423 CURVE SMOOTH",
"943 425 OFFCURVE",
"949 408 OFFCURVE",
"949 386 CURVE SMOOTH",
"949 381 OFFCURVE",
"949 374 OFFCURVE",
"948 368 CURVE SMOOTH",
"940 306 OFFCURVE",
"905 217 OFFCURVE",
"825 81 CURVE SMOOTH",
"796 32 OFFCURVE",
"783 8 OFFCURVE",
"779 5 CURVE SMOOTH",
"776 2 OFFCURVE",
"775 -2 OFFCURVE",
"775 -5 CURVE SMOOTH",
"775 -21 OFFCURVE",
"798 -26 OFFCURVE",
"823 -26 CURVE SMOOTH",
"826 -26 OFFCURVE",
"835 -25 OFFCURVE",
"839 -24 CURVE",
"847 -15 OFFCURVE",
"854 -7 OFFCURVE",
"858 0 CURVE",
"899 50 LINE SMOOTH",
"952 113 OFFCURVE",
"1009 175 OFFCURVE",
"1085 243 CURVE SMOOTH",
"1191 338 OFFCURVE",
"1261 383 OFFCURVE",
"1302 383 CURVE SMOOTH",
"1308 383 OFFCURVE",
"1311 379 OFFCURVE",
"1311 372 CURVE SMOOTH",
"1311 363 OFFCURVE",
"1308 350 OFFCURVE",
"1300 332 CURVE SMOOTH",
"1287 303 OFFCURVE",
"1268 271 OFFCURVE",
"1256 250 CURVE SMOOTH",
"1219 185 OFFCURVE",
"1203 149 OFFCURVE",
"1189 114 CURVE SMOOTH",
"1169 65 OFFCURVE",
"1159 26 OFFCURVE",
"1159 -3 CURVE SMOOTH",
"1159 -48 OFFCURVE",
"1188 -67 OFFCURVE",
"1234 -67 CURVE SMOOTH"
);
}
);
width = 1379;
}
);
note = M;
unicode = 004D;
},
{
glyphname = N;
lastChange = "2021-08-18 15:15:43 +0000";
layers = (
{
anchors = (
{
name = bottom;
position = "{604, 0}";
},
{
name = top;
position = "{804, 451}";
}
);
layerId = "57DEED6F-9A00-47D0-BD9B-6FE09716AB2D";
paths = (
{
closed = 1;
nodes = (
"433 -9 OFFCURVE",
"450 17 OFFCURVE",
"459 33 CURVE SMOOTH",
"502 107 OFFCURVE",
"552 177 OFFCURVE",
"605 244 CURVE SMOOTH",
"676 333 OFFCURVE",
"738 392 OFFCURVE",
"786 414 CURVE SMOOTH",
"799 420 OFFCURVE",
"809 422 OFFCURVE",
"817 422 CURVE SMOOTH",
"834 422 OFFCURVE",
"842 410 OFFCURVE",
"842 387 CURVE SMOOTH",
"842 372 OFFCURVE",
"838 350 OFFCURVE",
"830 323 CURVE SMOOTH",
"823 296 OFFCURVE",
"812 266 OFFCURVE",
"798 233 CURVE SMOOTH",
"760 146 LINE SMOOTH",
"740 100 OFFCURVE",
"730 63 OFFCURVE",
"730 36 CURVE SMOOTH",
"730 -1 OFFCURVE",
"748 -20 OFFCURVE",
"783 -20 CURVE SMOOTH",
"798 -20 OFFCURVE",
"814 -15 OFFCURVE",
"833 -5 CURVE SMOOTH",
"851 5 OFFCURVE",
"860 17 OFFCURVE",
"860 30 CURVE SMOOTH",
"860 33 OFFCURVE",
"859 35 OFFCURVE",
"856 35 CURVE SMOOTH",
"853 35 OFFCURVE",
"844 29 OFFCURVE",
"828 18 CURVE SMOOTH",
"811 6 OFFCURVE",
"800 1 OFFCURVE",
"789 1 CURVE SMOOTH",
"770 1 OFFCURVE",
"761 11 OFFCURVE",
"761 31 CURVE SMOOTH",
"761 56 OFFCURVE",
"780 110 OFFCURVE",
"819 195 CURVE SMOOTH",
"858 280 OFFCURVE",
"877 342 OFFCURVE",
"877 381 CURVE SMOOTH",
"877 428 OFFCURVE",
"853 451 OFFCURVE",
"804 451 CURVE SMOOTH",
"771 451 OFFCURVE",
"725 421 OFFCURVE",
"669 358 CURVE SMOOTH",
"634 318 OFFCURVE",
"593 266 OFFCURVE",
"555 221 CURVE",
"604 313 OFFCURVE",
"628 389 OFFCURVE",
"628 450 CURVE SMOOTH",
"628 537 OFFCURVE",
"573 580 OFFCURVE",
"463 580 CURVE SMOOTH",
"416 580 OFFCURVE",
"365 572 OFFCURVE",
"309 555 CURVE SMOOTH",
"244 535 OFFCURVE",
"178 503 OFFCURVE",
"121 464 CURVE SMOOTH",
"45 411 OFFCURVE",
"7 358 OFFCURVE",
"7 303 CURVE SMOOTH",
"7 244 OFFCURVE",
"44 215 OFFCURVE",
"119 215 CURVE SMOOTH",
"137 215 OFFCURVE",
"160 219 OFFCURVE",
"187 225 CURVE SMOOTH",
"222 233 OFFCURVE",
"239 243 OFFCURVE",
"239 254 CURVE SMOOTH",
"239 258 OFFCURVE",
"236 260 OFFCURVE",
"231 260 CURVE SMOOTH",
"229 260 OFFCURVE",
"226 259 OFFCURVE",
"221 258 CURVE SMOOTH",
"174 245 OFFCURVE",
"137 238 OFFCURVE",
"110 238 CURVE SMOOTH",
"59 238 OFFCURVE",
"33 257 OFFCURVE",
"33 295 CURVE SMOOTH",
"33 342 OFFCURVE",
"70 390 OFFCURVE",
"144 441 CURVE SMOOTH",
"203 482 OFFCURVE",
"258 509 OFFCURVE",
"318 529 CURVE SMOOTH",
"370 547 OFFCURVE",
"416 556 OFFCURVE",
"457 556 CURVE SMOOTH",
"542 556 OFFCURVE",
"585 520 OFFCURVE",
"585 448 CURVE SMOOTH",
"585 399 OFFCURVE",
"561 321 OFFCURVE",
"513 214 CURVE SMOOTH",
"465 107 OFFCURVE",
"426 40 OFFCURVE",
"391 -3 CURVE SMOOTH",
"389 -6 OFFCURVE",
"388 -10 OFFCURVE",
"388 -15 CURVE SMOOTH",
"388 -30 OFFCURVE",
"395 -37 OFFCURVE",
"410 -37 CURVE"
);
}
);
width = 884;
},
{
anchors = (
{
name = bottom;
position = "{670, 0}";
},
{
name = top;
position = "{918, 461}";
}
);
layerId = "A9A9B55F-A222-44B0-A0B6-968BE501F3F8";
paths = (
{
closed = 1;
nodes = (
"476 -36 OFFCURVE",
"495 2 OFFCURVE",
"515 32 CURVE SMOOTH",
"565 105 OFFCURVE",
"621 176 OFFCURVE",
"683 242 CURVE SMOOTH",
"773 338 OFFCURVE",
"827 389 OFFCURVE",
"881 417 CURVE SMOOTH",
"893 423 OFFCURVE",
"907 428 OFFCURVE",
"919 428 CURVE SMOOTH",
"935 428 OFFCURVE",
"948 420 OFFCURVE",
"948 396 CURVE SMOOTH",
"948 387 OFFCURVE",
"944 359 OFFCURVE",
"933 330 CURVE SMOOTH",
"923 303 OFFCURVE",
"903 263 OFFCURVE",
"886 231 CURVE SMOOTH",
"868 196 OFFCURVE",
"850 159 OFFCURVE",
"832 126 CURVE SMOOTH",
"815 94 OFFCURVE",
"805 64 OFFCURVE",
"805 39 CURVE SMOOTH",
"805 4 OFFCURVE",
"825 -20 OFFCURVE",
"875 -20 CURVE SMOOTH",
"893 -20 OFFCURVE",
"911 -14 OFFCURVE",
"932 -4 CURVE SMOOTH",
"952 6 OFFCURVE",
"961 22 OFFCURVE",
"961 35 CURVE SMOOTH",
"961 38 OFFCURVE",
"961 40 OFFCURVE",
"958 40 CURVE SMOOTH",
"954 40 OFFCURVE",
"948 31 OFFCURVE",
"930 20 CURVE SMOOTH",
"912 9 OFFCURVE",
"893 6 OFFCURVE",
"881 6 CURVE SMOOTH",
"859 6 OFFCURVE",
"850 16 OFFCURVE",
"850 36 CURVE SMOOTH",
"850 61 OFFCURVE",
"883 124 OFFCURVE",
"929 209 CURVE SMOOTH",
"977 296 OFFCURVE",
"998 356 OFFCURVE",
"998 395 CURVE SMOOTH",
"998 441 OFFCURVE",
"967 461 OFFCURVE",
"918 461 CURVE SMOOTH",
"881 461 OFFCURVE",
"828 431 OFFCURVE",
"764 368 CURVE SMOOTH",
"714 319 OFFCURVE",
"681 275 OFFCURVE",
"637 230 CURVE",
"697 325 OFFCURVE",
"721 394 OFFCURVE",
"721 457 CURVE SMOOTH",
"721 541 OFFCURVE",
"662 591 OFFCURVE",
"542 591 CURVE SMOOTH",
"490 591 OFFCURVE",
"430 584 OFFCURVE",
"367 567 CURVE SMOOTH",
"290 546 OFFCURVE",
"202 506 OFFCURVE",
"136 466 CURVE SMOOTH",
"50 414 OFFCURVE",
"12 361 OFFCURVE",
"12 304 CURVE SMOOTH",
"12 248 OFFCURVE",
"57 220 OFFCURVE",
"138 220 CURVE SMOOTH",
"159 220 OFFCURVE",
"184 224 OFFCURVE",
"215 230 CURVE SMOOTH",
"254 238 OFFCURVE",
"274 248 OFFCURVE",
"274 259 CURVE SMOOTH",
"274 263 OFFCURVE",
"271 265 OFFCURVE",
"265 265 CURVE SMOOTH",
"263 265 OFFCURVE",
"259 264 OFFCURVE",
"254 263 CURVE SMOOTH",
"201 250 OFFCURVE",
"171 244 OFFCURVE",
"140 244 CURVE SMOOTH",
"82 244 OFFCURVE",
"56 263 OFFCURVE",
"56 299 CURVE SMOOTH",
"56 347 OFFCURVE",
"94 390 OFFCURVE",
"182 444 CURVE SMOOTH",
"287 508 OFFCURVE",
"451 564 OFFCURVE",
"564 564 CURVE SMOOTH",
"643 564 OFFCURVE",
"671 523 OFFCURVE",
"671 474 CURVE SMOOTH",
"671 464 OFFCURVE",
"669 453 OFFCURVE",
"667 442 CURVE SMOOTH",
"656 393 OFFCURVE",
"625 314 OFFCURVE",
"565 203 CURVE SMOOTH",
"514 109 OFFCURVE",
"473 49 OFFCURVE",
"426 0 CURVE SMOOTH",
"423 -3 OFFCURVE",
"422 -7 OFFCURVE",
"422 -12 CURVE SMOOTH",
"422 -27 OFFCURVE",
"441 -39 OFFCURVE",
"457 -39 CURVE"
);
}
);
width = 985;
},
{
anchors = (
{
name = bottom;
position = "{750, 0}";
},
{
name = top;
position = "{1003, 461}";
}
);
layerId = "AFE3E0A9-A514-4B93-8E4E-B7D18C88F31C";
paths = (
{
closed = 1;
nodes = (
"531 -36 OFFCURVE",
"554 7 OFFCURVE",
"572 32 CURVE SMOOTH",
"625 105 OFFCURVE",
"686 178 OFFCURVE",
"750 242 CURVE SMOOTH",
"841 333 OFFCURVE",
"905 389 OFFCURVE",
"963 417 CURVE SMOOTH",
"976 423 OFFCURVE",
"991 428 OFFCURVE",
"1006 428 CURVE SMOOTH",
"1024 428 OFFCURVE",
"1039 420 OFFCURVE",
"1039 394 CURVE SMOOTH",
"1039 380 OFFCURVE",
"1036 364 OFFCURVE",
"1024 330 CURVE SMOOTH",
"1015 303 OFFCURVE",
"994 263 OFFCURVE",
"977 231 CURVE SMOOTH",
"972 222 OFFCURVE",
"925 133 OFFCURVE",
"921 127 CURVE SMOOTH",
"904 96 OFFCURVE",
"893 67 OFFCURVE",
"893 42 CURVE SMOOTH",
"893 5 OFFCURVE",
"917 -20 OFFCURVE",
"975 -20 CURVE SMOOTH",
"994 -20 OFFCURVE",
"1013 -14 OFFCURVE",
"1037 -4 CURVE SMOOTH",
"1059 6 OFFCURVE",
"1068 22 OFFCURVE",
"1068 35 CURVE SMOOTH",
"1068 38 OFFCURVE",
"1067 40 OFFCURVE",
"1063 40 CURVE SMOOTH",
"1059 40 OFFCURVE",
"1052 31 OFFCURVE",
"1033 20 CURVE SMOOTH",
"1015 9 OFFCURVE",
"993 6 OFFCURVE",
"980 6 CURVE SMOOTH",
"956 6 OFFCURVE",
"945 16 OFFCURVE",
"945 36 CURVE SMOOTH",
"945 61 OFFCURVE",
"978 124 OFFCURVE",
"1026 209 CURVE SMOOTH",
"1075 294 OFFCURVE",
"1094 352 OFFCURVE",
"1094 391 CURVE SMOOTH",
"1094 438 OFFCURVE",
"1064 461 OFFCURVE",
"1003 461 CURVE SMOOTH",
"962 461 OFFCURVE",
"905 431 OFFCURVE",
"836 368 CURVE SMOOTH",
"791 326 OFFCURVE",
"747 275 OFFCURVE",
"700 230 CURVE",
"761 322 OFFCURVE",
"784 390 OFFCURVE",
"784 451 CURVE SMOOTH",
"784 538 OFFCURVE",
"717 591 OFFCURVE",
"580 591 CURVE SMOOTH",
"522 591 OFFCURVE",
"456 584 OFFCURVE",
"387 567 CURVE SMOOTH",
"300 545 OFFCURVE",
"207 506 OFFCURVE",
"136 467 CURVE SMOOTH",
"41 414 OFFCURVE",
"2 363 OFFCURVE",
"2 308 CURVE SMOOTH",
"2 249 OFFCURVE",
"53 220 OFFCURVE",
"146 220 CURVE SMOOTH",
"169 220 OFFCURVE",
"197 224 OFFCURVE",
"231 230 CURVE SMOOTH",
"274 238 OFFCURVE",
"296 248 OFFCURVE",
"296 259 CURVE SMOOTH",
"296 263 OFFCURVE",
"292 265 OFFCURVE",
"286 265 CURVE SMOOTH",
"283 265 OFFCURVE",
"279 264 OFFCURVE",
"273 263 CURVE SMOOTH",
"215 250 OFFCURVE",
"181 244 OFFCURVE",
"147 244 CURVE SMOOTH",
"84 244 OFFCURVE",
"51 263 OFFCURVE",
"51 301 CURVE SMOOTH",
"51 348 OFFCURVE",
"94 393 OFFCURVE",
"186 444 CURVE SMOOTH",
"300 508 OFFCURVE",
"480 564 OFFCURVE",
"606 564 CURVE SMOOTH",
"695 564 OFFCURVE",
"727 521 OFFCURVE",
"727 470 CURVE SMOOTH",
"727 433 OFFCURVE",
"696 336 OFFCURVE",
"621 203 CURVE SMOOTH",
"563 100 OFFCURVE",
"520 45 OFFCURVE",
"474 0 CURVE SMOOTH",
"471 -3 OFFCURVE",
"470 -7 OFFCURVE",
"470 -12 CURVE SMOOTH",
"470 -27 OFFCURVE",
"492 -39 OFFCURVE",
"510 -39 CURVE"
);
}
);
width = 1094;
}
);
note = N;
unicode = 004E;
},
{
glyphname = Nacute;
lastChange = "2021-08-18 15:15:43 +0000";
layers = (
{
components = (
{
name = N;
},
{
name = acutecomb;
transform = "{1, 0, 0, 1, 768, 211}";
}
);
layerId = "57DEED6F-9A00-47D0-BD9B-6FE09716AB2D";
width = 884;
},
{
layerId = "A9A9B55F-A222-44B0-A0B6-968BE501F3F8";
paths = (
{
closed = 1;
nodes = (
"476 -46 OFFCURVE",
"502 2 OFFCURVE",
"514 21 CURVE SMOOTH",
"565 95 OFFCURVE",
"621 165 OFFCURVE",
"683 232 CURVE SMOOTH",
"768 323 OFFCURVE",
"827 379 OFFCURVE",
"881 407 CURVE SMOOTH",
"892 413 OFFCURVE",
"907 418 OFFCURVE",
"919 418 CURVE SMOOTH",
"935 418 OFFCURVE",
"948 410 OFFCURVE",
"948 386 CURVE SMOOTH",
"948 371 OFFCURVE",
"943 348 OFFCURVE",
"933 320 CURVE SMOOTH",
"923 293 OFFCURVE",
"903 253 OFFCURVE",
"886 221 CURVE SMOOTH",
"833 117 LINE SMOOTH",
"815 85 OFFCURVE",
"804 54 OFFCURVE",
"804 29 CURVE SMOOTH",
"804 -6 OFFCURVE",
"825 -30 OFFCURVE",
"875 -30 CURVE SMOOTH",
"893 -30 OFFCURVE",
"911 -24 OFFCURVE",
"932 -14 CURVE SMOOTH",
"952 -4 OFFCURVE",
"961 12 OFFCURVE",
"961 25 CURVE SMOOTH",
"961 28 OFFCURVE",
"961 30 OFFCURVE",
"958 30 CURVE SMOOTH",
"954 30 OFFCURVE",
"948 21 OFFCURVE",
"930 10 CURVE SMOOTH",
"912 -1 OFFCURVE",
"893 -4 OFFCURVE",
"881 -4 CURVE SMOOTH",
"859 -4 OFFCURVE",
"850 6 OFFCURVE",
"850 26 CURVE SMOOTH",
"851 51 OFFCURVE",
"883 114 OFFCURVE",
"929 199 CURVE SMOOTH",
"977 286 OFFCURVE",
"998 345 OFFCURVE",
"998 384 CURVE SMOOTH",
"998 429 OFFCURVE",
"972 451 OFFCURVE",
"918 451 CURVE SMOOTH",
"881 451 OFFCURVE",
"828 421 OFFCURVE",
"764 358 CURVE SMOOTH",
"718 313 OFFCURVE",
"681 265 OFFCURVE",
"637 220 CURVE",
"697 315 OFFCURVE",
"721 384 OFFCURVE",
"721 447 CURVE SMOOTH",
"721 531 OFFCURVE",
"662 581 OFFCURVE",
"542 581 CURVE SMOOTH",
"490 581 OFFCURVE",
"430 574 OFFCURVE",
"367 557 CURVE SMOOTH",
"290 536 OFFCURVE",
"203 496 OFFCURVE",
"137 457 CURVE SMOOTH",
"49 403 OFFCURVE",
"12 351 OFFCURVE",
"12 294 CURVE SMOOTH",
"12 238 OFFCURVE",
"57 210 OFFCURVE",
"138 210 CURVE SMOOTH",
"159 210 OFFCURVE",
"184 214 OFFCURVE",
"215 220 CURVE SMOOTH",
"254 228 OFFCURVE",
"274 238 OFFCURVE",
"274 249 CURVE SMOOTH",
"274 253 OFFCURVE",
"271 255 OFFCURVE",
"265 255 CURVE SMOOTH",
"263 255 OFFCURVE",
"259 254 OFFCURVE",
"254 253 CURVE SMOOTH",
"201 240 OFFCURVE",
"171 234 OFFCURVE",
"140 234 CURVE SMOOTH",
"86 234 OFFCURVE",
"56 252 OFFCURVE",
"56 287 CURVE SMOOTH",
"56 336 OFFCURVE",
"96 382 OFFCURVE",
"182 434 CURVE SMOOTH",
"287 498 OFFCURVE",
"451 554 OFFCURVE",
"564 554 CURVE SMOOTH",
"643 554 OFFCURVE",
"671 513 OFFCURVE",
"671 464 CURVE SMOOTH",
"671 453 OFFCURVE",
"669 442 OFFCURVE",
"667 431 CURVE SMOOTH",
"656 383 OFFCURVE",
"623 300 OFFCURVE",
"565 193 CURVE SMOOTH",
"511 93 OFFCURVE",
"469 35 OFFCURVE",
"426 -10 CURVE SMOOTH",
"423 -13 OFFCURVE",
"422 -18 OFFCURVE",
"422 -23 CURVE SMOOTH",
"422 -38 OFFCURVE",
"441 -49 OFFCURVE",
"457 -49 CURVE"
);
},
{
closed = 1;
nodes = (
"905 521 OFFCURVE",
"997 571 OFFCURVE",
"1012 580 CURVE SMOOTH",
"1020 584 OFFCURVE",
"1023 595 OFFCURVE",
"1023 604 CURVE SMOOTH",
"1023 612 OFFCURVE",
"1018 618 OFFCURVE",
"1010 618 CURVE SMOOTH",
"994 618 OFFCURVE",
"895 546 OFFCURVE",
"890 542 CURVE SMOOTH",
"887 540 OFFCURVE",
"884 536 OFFCURVE",
"884 532 CURVE SMOOTH",
"884 525 OFFCURVE",
"890 521 OFFCURVE",
"895 521 CURVE SMOOTH"
);
}
);
width = 985;
},
{
layerId = "AFE3E0A9-A514-4B93-8E4E-B7D18C88F31C";
paths = (
{
closed = 1;
nodes = (
"531 -46 OFFCURVE",
"558 2 OFFCURVE",
"571 21 CURVE SMOOTH",
"625 95 OFFCURVE",
"684 165 OFFCURVE",
"750 232 CURVE SMOOTH",
"841 323 OFFCURVE",
"905 379 OFFCURVE",
"963 407 CURVE SMOOTH",
"976 413 OFFCURVE",
"991 418 OFFCURVE",
"1006 418 CURVE SMOOTH",
"1024 418 OFFCURVE",
"1039 410 OFFCURVE",
"1039 384 CURVE SMOOTH",
"1039 369 OFFCURVE",
"1034 347 OFFCURVE",
"1024 320 CURVE SMOOTH",
"1015 293 OFFCURVE",
"994 253 OFFCURVE",
"977 221 CURVE SMOOTH",
"921 117 LINE SMOOTH",
"904 86 OFFCURVE",
"893 57 OFFCURVE",
"893 33 CURVE SMOOTH",
"893 -4 OFFCURVE",
"917 -30 OFFCURVE",
"975 -30 CURVE SMOOTH",
"994 -30 OFFCURVE",
"1013 -24 OFFCURVE",
"1037 -14 CURVE SMOOTH",
"1059 -4 OFFCURVE",
"1068 12 OFFCURVE",
"1068 25 CURVE SMOOTH",
"1068 28 OFFCURVE",
"1067 30 OFFCURVE",
"1063 30 CURVE SMOOTH",
"1059 30 OFFCURVE",
"1053 21 OFFCURVE",
"1033 10 CURVE SMOOTH",
"1015 -1 OFFCURVE",
"993 -4 OFFCURVE",
"980 -4 CURVE SMOOTH",
"956 -4 OFFCURVE",
"945 6 OFFCURVE",
"945 26 CURVE SMOOTH",
"945 51 OFFCURVE",
"978 114 OFFCURVE",
"1026 199 CURVE SMOOTH",
"1075 284 OFFCURVE",
"1094 342 OFFCURVE",
"1094 381 CURVE SMOOTH",
"1094 428 OFFCURVE",
"1064 451 OFFCURVE",
"1003 451 CURVE SMOOTH",
"962 451 OFFCURVE",
"905 421 OFFCURVE",
"836 358 CURVE SMOOTH",
"787 313 OFFCURVE",
"747 265 OFFCURVE",
"700 220 CURVE",
"761 312 OFFCURVE",
"784 380 OFFCURVE",
"784 441 CURVE SMOOTH",
"784 528 OFFCURVE",
"717 581 OFFCURVE",
"580 581 CURVE SMOOTH",
"522 581 OFFCURVE",
"456 574 OFFCURVE",
"387 557 CURVE SMOOTH",
"302 536 OFFCURVE",
"207 496 OFFCURVE",
"136 457 CURVE SMOOTH",
"41 404 OFFCURVE",
"2 353 OFFCURVE",
"2 298 CURVE SMOOTH",
"2 239 OFFCURVE",
"53 210 OFFCURVE",
"146 210 CURVE SMOOTH",
"169 210 OFFCURVE",
"197 214 OFFCURVE",
"231 220 CURVE SMOOTH",
"274 228 OFFCURVE",
"296 238 OFFCURVE",
"296 249 CURVE SMOOTH",
"296 253 OFFCURVE",
"292 255 OFFCURVE",
"286 255 CURVE SMOOTH",
"283 255 OFFCURVE",
"279 254 OFFCURVE",
"273 253 CURVE SMOOTH",
"215 240 OFFCURVE",
"181 234 OFFCURVE",
"147 234 CURVE SMOOTH",
"84 234 OFFCURVE",
"51 253 OFFCURVE",
"51 291 CURVE SMOOTH",
"51 338 OFFCURVE",
"94 383 OFFCURVE",
"186 434 CURVE SMOOTH",
"300 498 OFFCURVE",
"480 554 OFFCURVE",
"606 554 CURVE SMOOTH",
"695 554 OFFCURVE",
"727 511 OFFCURVE",
"727 460 CURVE SMOOTH",
"727 423 OFFCURVE",
"696 326 OFFCURVE",
"621 193 CURVE SMOOTH",
"565 93 OFFCURVE",
"520 35 OFFCURVE",
"474 -10 CURVE SMOOTH",
"471 -13 OFFCURVE",
"470 -17 OFFCURVE",
"470 -22 CURVE SMOOTH",
"470 -37 OFFCURVE",
"492 -49 OFFCURVE",
"510 -49 CURVE"
);
},
{
closed = 1;
nodes = (
"986 521 OFFCURVE",
"1087 571 OFFCURVE",
"1102 580 CURVE SMOOTH",
"1110 584 OFFCURVE",
"1115 593 OFFCURVE",
"1115 602 CURVE SMOOTH",
"1115 611 OFFCURVE",
"1109 618 OFFCURVE",
"1099 618 CURVE SMOOTH",
"1081 618 OFFCURVE",
"975 546 OFFCURVE",
"969 542 CURVE SMOOTH",
"966 540 OFFCURVE",
"962 536 OFFCURVE",
"962 532 CURVE SMOOTH",
"962 525 OFFCURVE",
"969 521 OFFCURVE",
"975 521 CURVE SMOOTH"
);
}
);
width = 1094;
}
);
unicode = 0143;
},
{
glyphname = Ncaron;
lastChange = "2021-08-19 07:16:37 +0000";
layers = (
{
components = (
{
name = N;
},
{
name = caroncomb.case;
transform = "{1, 0, 0, 1, 749, 211}";
}
);
layerId = "57DEED6F-9A00-47D0-BD9B-6FE09716AB2D";
width = 884;
},
{
layerId = "A9A9B55F-A222-44B0-A0B6-968BE501F3F8";
paths = (
{
closed = 1;
nodes = (
"476 -46 OFFCURVE",
"502 2 OFFCURVE",
"514 21 CURVE SMOOTH",
"565 95 OFFCURVE",
"621 165 OFFCURVE",
"683 232 CURVE SMOOTH",
"768 323 OFFCURVE",
"827 379 OFFCURVE",
"881 407 CURVE SMOOTH",
"892 413 OFFCURVE",
"907 418 OFFCURVE",
"919 418 CURVE SMOOTH",
"935 418 OFFCURVE",
"948 410 OFFCURVE",
"948 386 CURVE SMOOTH",
"948 371 OFFCURVE",
"943 348 OFFCURVE",
"933 320 CURVE SMOOTH",
"923 293 OFFCURVE",
"903 253 OFFCURVE",
"886 221 CURVE SMOOTH",
"833 117 LINE SMOOTH",
"815 85 OFFCURVE",
"804 54 OFFCURVE",
"804 29 CURVE SMOOTH",
"804 -6 OFFCURVE",
"825 -30 OFFCURVE",
"875 -30 CURVE SMOOTH",
"893 -30 OFFCURVE",
"911 -24 OFFCURVE",
"932 -14 CURVE SMOOTH",
"952 -4 OFFCURVE",
"961 12 OFFCURVE",
"961 25 CURVE SMOOTH",
"961 28 OFFCURVE",
"961 30 OFFCURVE",
"958 30 CURVE SMOOTH",
"954 30 OFFCURVE",
"948 21 OFFCURVE",
"930 10 CURVE SMOOTH",
"912 -1 OFFCURVE",
"893 -4 OFFCURVE",
"881 -4 CURVE SMOOTH",
"859 -4 OFFCURVE",
"850 6 OFFCURVE",
"850 26 CURVE SMOOTH",
"851 51 OFFCURVE",
"883 114 OFFCURVE",
"929 199 CURVE SMOOTH",
"977 286 OFFCURVE",
"998 345 OFFCURVE",
"998 384 CURVE SMOOTH",
"998 429 OFFCURVE",
"972 451 OFFCURVE",
"918 451 CURVE SMOOTH",
"881 451 OFFCURVE",
"828 421 OFFCURVE",
"764 358 CURVE SMOOTH",
"718 313 OFFCURVE",
"681 265 OFFCURVE",
"637 220 CURVE",
"697 315 OFFCURVE",
"721 384 OFFCURVE",
"721 447 CURVE SMOOTH",
"721 531 OFFCURVE",
"662 581 OFFCURVE",
"542 581 CURVE SMOOTH",
"490 581 OFFCURVE",
"430 574 OFFCURVE",
"367 557 CURVE SMOOTH",
"290 536 OFFCURVE",
"203 496 OFFCURVE",
"137 457 CURVE SMOOTH",
"49 403 OFFCURVE",
"12 351 OFFCURVE",
"12 294 CURVE SMOOTH",
"12 238 OFFCURVE",
"57 210 OFFCURVE",
"138 210 CURVE SMOOTH",
"159 210 OFFCURVE",
"184 214 OFFCURVE",
"215 220 CURVE SMOOTH",
"254 228 OFFCURVE",
"274 238 OFFCURVE",
"274 249 CURVE SMOOTH",
"274 253 OFFCURVE",
"271 255 OFFCURVE",
"265 255 CURVE SMOOTH",
"263 255 OFFCURVE",
"259 254 OFFCURVE",
"254 253 CURVE SMOOTH",
"201 240 OFFCURVE",
"171 234 OFFCURVE",
"140 234 CURVE SMOOTH",
"86 234 OFFCURVE",
"56 252 OFFCURVE",
"56 287 CURVE SMOOTH",
"56 336 OFFCURVE",
"96 382 OFFCURVE",
"182 434 CURVE SMOOTH",
"287 498 OFFCURVE",
"451 554 OFFCURVE",
"564 554 CURVE SMOOTH",
"643 554 OFFCURVE",
"671 513 OFFCURVE",
"671 464 CURVE SMOOTH",
"671 453 OFFCURVE",
"669 442 OFFCURVE",
"667 431 CURVE SMOOTH",
"656 383 OFFCURVE",
"623 300 OFFCURVE",
"565 193 CURVE SMOOTH",
"511 93 OFFCURVE",
"469 35 OFFCURVE",
"426 -10 CURVE SMOOTH",
"423 -13 OFFCURVE",
"422 -18 OFFCURVE",
"422 -23 CURVE SMOOTH",
"422 -38 OFFCURVE",
"441 -49 OFFCURVE",
"457 -49 CURVE"
);
},
{
closed = 1;
nodes = (
"921 530 OFFCURVE",
"1007 583 OFFCURVE",
"1019 596 CURVE",
"1019 595 LINE",
"1021 603 LINE",
"1021 607 OFFCURVE",
"1014 611 OFFCURVE",
"1011 611 CURVE SMOOTH",
"997 611 OFFCURVE",
"938 574 OFFCURVE",
"921 565 CURVE",
"909 579 OFFCURVE",
"870 613 OFFCURVE",
"851 613 CURVE SMOOTH",
"846 613 OFFCURVE",
"836 610 OFFCURVE",
"836 603 CURVE SMOOTH",
"836 596 OFFCURVE",
"899 530 OFFCURVE",
"905 530 CURVE SMOOTH"
);
}
);
width = 985;
},
{
layerId = "AFE3E0A9-A514-4B93-8E4E-B7D18C88F31C";
paths = (
{
closed = 1;
nodes = (
"531 -46 OFFCURVE",
"558 2 OFFCURVE",
"571 21 CURVE SMOOTH",
"625 95 OFFCURVE",
"684 165 OFFCURVE",
"750 232 CURVE SMOOTH",
"841 323 OFFCURVE",
"905 379 OFFCURVE",
"963 407 CURVE SMOOTH",
"976 413 OFFCURVE",
"991 418 OFFCURVE",
"1006 418 CURVE SMOOTH",
"1024 418 OFFCURVE",
"1039 410 OFFCURVE",
"1039 384 CURVE SMOOTH",
"1039 369 OFFCURVE",
"1034 347 OFFCURVE",
"1024 320 CURVE SMOOTH",
"1015 293 OFFCURVE",
"994 253 OFFCURVE",
"977 221 CURVE SMOOTH",
"921 117 LINE SMOOTH",
"904 86 OFFCURVE",
"893 57 OFFCURVE",
"893 33 CURVE SMOOTH",
"893 -4 OFFCURVE",
"917 -30 OFFCURVE",
"975 -30 CURVE SMOOTH",
"994 -30 OFFCURVE",
"1013 -24 OFFCURVE",
"1037 -14 CURVE SMOOTH",
"1059 -4 OFFCURVE",
"1068 12 OFFCURVE",
"1068 25 CURVE SMOOTH",
"1068 28 OFFCURVE",
"1067 30 OFFCURVE",
"1063 30 CURVE SMOOTH",
"1059 30 OFFCURVE",
"1053 21 OFFCURVE",
"1033 10 CURVE SMOOTH",
"1015 -1 OFFCURVE",
"993 -4 OFFCURVE",
"980 -4 CURVE SMOOTH",
"956 -4 OFFCURVE",
"945 6 OFFCURVE",
"945 26 CURVE SMOOTH",
"945 51 OFFCURVE",
"978 114 OFFCURVE",
"1026 199 CURVE SMOOTH",
"1075 284 OFFCURVE",
"1094 342 OFFCURVE",
"1094 381 CURVE SMOOTH",
"1094 428 OFFCURVE",
"1064 451 OFFCURVE",
"1003 451 CURVE SMOOTH",
"962 451 OFFCURVE",
"905 421 OFFCURVE",
"836 358 CURVE SMOOTH",
"787 313 OFFCURVE",
"747 265 OFFCURVE",
"700 220 CURVE",
"761 312 OFFCURVE",
"784 380 OFFCURVE",
"784 441 CURVE SMOOTH",
"784 528 OFFCURVE",
"717 581 OFFCURVE",
"580 581 CURVE SMOOTH",
"522 581 OFFCURVE",
"456 574 OFFCURVE",
"387 557 CURVE SMOOTH",
"302 536 OFFCURVE",
"207 496 OFFCURVE",
"136 457 CURVE SMOOTH",
"41 404 OFFCURVE",
"2 353 OFFCURVE",
"2 298 CURVE SMOOTH",
"2 239 OFFCURVE",
"53 210 OFFCURVE",
"146 210 CURVE SMOOTH",
"169 210 OFFCURVE",
"197 214 OFFCURVE",
"231 220 CURVE SMOOTH",
"274 228 OFFCURVE",
"296 238 OFFCURVE",
"296 249 CURVE SMOOTH",
"296 253 OFFCURVE",
"292 255 OFFCURVE",
"286 255 CURVE SMOOTH",
"283 255 OFFCURVE",
"279 254 OFFCURVE",
"273 253 CURVE SMOOTH",
"215 240 OFFCURVE",
"181 234 OFFCURVE",
"147 234 CURVE SMOOTH",
"84 234 OFFCURVE",
"51 253 OFFCURVE",
"51 291 CURVE SMOOTH",
"51 338 OFFCURVE",
"94 383 OFFCURVE",
"186 434 CURVE SMOOTH",
"300 498 OFFCURVE",
"480 554 OFFCURVE",
"606 554 CURVE SMOOTH",
"695 554 OFFCURVE",
"727 511 OFFCURVE",
"727 460 CURVE SMOOTH",
"727 423 OFFCURVE",
"696 326 OFFCURVE",
"621 193 CURVE SMOOTH",
"565 93 OFFCURVE",
"520 35 OFFCURVE",
"474 -10 CURVE SMOOTH",
"471 -13 OFFCURVE",
"470 -17 OFFCURVE",
"470 -22 CURVE SMOOTH",
"470 -37 OFFCURVE",
"492 -49 OFFCURVE",
"510 -49 CURVE"
);
},
{
closed = 1;
nodes = (
"1005 530 OFFCURVE",
"1098 583 OFFCURVE",
"1110 596 CURVE",
"1110 595 LINE",
"1113 603 LINE",
"1113 607 OFFCURVE",
"1105 611 OFFCURVE",
"1101 611 CURVE SMOOTH",
"1086 611 OFFCURVE",
"1021 574 OFFCURVE",
"1003 565 CURVE",
"989 579 OFFCURVE",
"945 613 OFFCURVE",
"924 613 CURVE SMOOTH",
"918 613 OFFCURVE",
"907 610 OFFCURVE",
"907 603 CURVE SMOOTH",
"907 596 OFFCURVE",
"980 530 OFFCURVE",
"987 530 CURVE SMOOTH"
);
}
);
width = 1094;
}
);
unicode = 0147;
},
{
glyphname = Ncommaaccent;
lastChange = "2021-08-18 15:15:43 +0000";
layers = (
{
components = (
{
name = N;
},
{
name = commaaccentcomb;
transform = "{1, 0, 0, 1, 537, 0}";
}
);
layerId = "57DEED6F-9A00-47D0-BD9B-6FE09716AB2D";
width = 884;
},
{
layerId = "A9A9B55F-A222-44B0-A0B6-968BE501F3F8";
paths = (
{
closed = 1;
nodes = (
"476 -46 OFFCURVE",
"502 2 OFFCURVE",
"514 21 CURVE SMOOTH",
"565 95 OFFCURVE",
"621 165 OFFCURVE",
"683 232 CURVE SMOOTH",
"768 323 OFFCURVE",
"827 379 OFFCURVE",
"881 407 CURVE SMOOTH",
"892 413 OFFCURVE",
"907 418 OFFCURVE",
"919 418 CURVE SMOOTH",
"935 418 OFFCURVE",
"948 410 OFFCURVE",
"948 386 CURVE SMOOTH",
"948 371 OFFCURVE",
"943 348 OFFCURVE",
"933 320 CURVE SMOOTH",
"923 293 OFFCURVE",
"903 253 OFFCURVE",
"886 221 CURVE SMOOTH",
"833 117 LINE SMOOTH",
"815 85 OFFCURVE",
"804 54 OFFCURVE",
"804 29 CURVE SMOOTH",
"804 -6 OFFCURVE",
"825 -30 OFFCURVE",
"875 -30 CURVE SMOOTH",
"893 -30 OFFCURVE",
"911 -24 OFFCURVE",
"932 -14 CURVE SMOOTH",
"952 -4 OFFCURVE",
"961 12 OFFCURVE",
"961 25 CURVE SMOOTH",
"961 28 OFFCURVE",
"961 30 OFFCURVE",
"958 30 CURVE SMOOTH",
"954 30 OFFCURVE",
"948 21 OFFCURVE",
"930 10 CURVE SMOOTH",
"912 -1 OFFCURVE",
"893 -4 OFFCURVE",
"881 -4 CURVE SMOOTH",
"859 -4 OFFCURVE",
"850 6 OFFCURVE",
"850 26 CURVE SMOOTH",
"851 51 OFFCURVE",
"883 114 OFFCURVE",
"929 199 CURVE SMOOTH",
"977 286 OFFCURVE",
"998 345 OFFCURVE",
"998 384 CURVE SMOOTH",
"998 429 OFFCURVE",
"972 451 OFFCURVE",
"918 451 CURVE SMOOTH",
"881 451 OFFCURVE",
"828 421 OFFCURVE",
"764 358 CURVE SMOOTH",
"718 313 OFFCURVE",
"681 265 OFFCURVE",
"637 220 CURVE",
"697 315 OFFCURVE",
"721 384 OFFCURVE",
"721 447 CURVE SMOOTH",
"721 531 OFFCURVE",
"662 581 OFFCURVE",
"542 581 CURVE SMOOTH",
"490 581 OFFCURVE",
"430 574 OFFCURVE",
"367 557 CURVE SMOOTH",
"290 536 OFFCURVE",
"203 496 OFFCURVE",
"137 457 CURVE SMOOTH",
"49 403 OFFCURVE",
"12 351 OFFCURVE",
"12 294 CURVE SMOOTH",
"12 238 OFFCURVE",
"57 210 OFFCURVE",
"138 210 CURVE SMOOTH",
"159 210 OFFCURVE",
"184 214 OFFCURVE",
"215 220 CURVE SMOOTH",
"254 228 OFFCURVE",
"274 238 OFFCURVE",
"274 249 CURVE SMOOTH",
"274 253 OFFCURVE",
"271 255 OFFCURVE",
"265 255 CURVE SMOOTH",
"263 255 OFFCURVE",
"259 254 OFFCURVE",
"254 253 CURVE SMOOTH",
"201 240 OFFCURVE",
"171 234 OFFCURVE",
"140 234 CURVE SMOOTH",
"86 234 OFFCURVE",
"56 252 OFFCURVE",
"56 287 CURVE SMOOTH",
"56 336 OFFCURVE",
"96 382 OFFCURVE",
"182 434 CURVE SMOOTH",
"287 498 OFFCURVE",
"451 554 OFFCURVE",
"564 554 CURVE SMOOTH",
"643 554 OFFCURVE",
"671 513 OFFCURVE",
"671 464 CURVE SMOOTH",
"671 453 OFFCURVE",
"669 442 OFFCURVE",
"667 431 CURVE SMOOTH",
"656 383 OFFCURVE",
"623 300 OFFCURVE",
"565 193 CURVE SMOOTH",
"511 93 OFFCURVE",
"469 35 OFFCURVE",
"426 -10 CURVE SMOOTH",
"423 -13 OFFCURVE",
"422 -18 OFFCURVE",
"422 -23 CURVE SMOOTH",
"422 -38 OFFCURVE",
"441 -49 OFFCURVE",
"457 -49 CURVE"
);
},
{
closed = 1;
nodes = (
"624 -166 OFFCURVE",
"641 -153 OFFCURVE",
"657 -135 CURVE SMOOTH",
"683 -108 OFFCURVE",
"691 -90 OFFCURVE",
"691 -75 CURVE SMOOTH",
"691 -63 OFFCURVE",
"683 -54 OFFCURVE",
"669 -54 CURVE SMOOTH",
"651 -54 OFFCURVE",
"638 -70 OFFCURVE",
"637 -85 CURVE SMOOTH",
"637 -93 OFFCURVE",
"642 -100 OFFCURVE",
"652 -104 CURVE",
"644 -131 OFFCURVE",
"611 -160 OFFCURVE",
"610 -161 CURVE",
"604 -164 OFFCURVE",
"601 -167 OFFCURVE",
"601 -169 CURVE SMOOTH",
"601 -172 OFFCURVE",
"605 -173 OFFCURVE",
"609 -173 CURVE SMOOTH",
"611 -173 OFFCURVE",
"613 -173 OFFCURVE",
"615 -172 CURVE SMOOTH"
);
}
);
width = 985;
},
{
layerId = "AFE3E0A9-A514-4B93-8E4E-B7D18C88F31C";
paths = (
{
closed = 1;
nodes = (
"531 -46 OFFCURVE",
"558 2 OFFCURVE",
"571 21 CURVE SMOOTH",
"625 95 OFFCURVE",
"684 165 OFFCURVE",
"750 232 CURVE SMOOTH",
"841 323 OFFCURVE",
"905 379 OFFCURVE",
"963 407 CURVE SMOOTH",
"976 413 OFFCURVE",
"991 418 OFFCURVE",
"1006 418 CURVE SMOOTH",
"1024 418 OFFCURVE",
"1039 410 OFFCURVE",
"1039 384 CURVE SMOOTH",
"1039 369 OFFCURVE",
"1034 347 OFFCURVE",
"1024 320 CURVE SMOOTH",
"1015 293 OFFCURVE",
"994 253 OFFCURVE",
"977 221 CURVE SMOOTH",
"921 117 LINE SMOOTH",
"904 86 OFFCURVE",
"893 57 OFFCURVE",
"893 33 CURVE SMOOTH",
"893 -4 OFFCURVE",
"917 -30 OFFCURVE",
"975 -30 CURVE SMOOTH",
"994 -30 OFFCURVE",
"1013 -24 OFFCURVE",
"1037 -14 CURVE SMOOTH",
"1059 -4 OFFCURVE",
"1068 12 OFFCURVE",
"1068 25 CURVE SMOOTH",
"1068 28 OFFCURVE",
"1067 30 OFFCURVE",
"1063 30 CURVE SMOOTH",
"1059 30 OFFCURVE",
"1053 21 OFFCURVE",
"1033 10 CURVE SMOOTH",
"1015 -1 OFFCURVE",
"993 -4 OFFCURVE",
"980 -4 CURVE SMOOTH",
"956 -4 OFFCURVE",
"945 6 OFFCURVE",
"945 26 CURVE SMOOTH",
"945 51 OFFCURVE",
"978 114 OFFCURVE",
"1026 199 CURVE SMOOTH",
"1075 284 OFFCURVE",
"1094 342 OFFCURVE",
"1094 381 CURVE SMOOTH",
"1094 428 OFFCURVE",
"1064 451 OFFCURVE",
"1003 451 CURVE SMOOTH",
"962 451 OFFCURVE",
"905 421 OFFCURVE",
"836 358 CURVE SMOOTH",
"787 313 OFFCURVE",
"747 265 OFFCURVE",
"700 220 CURVE",
"761 312 OFFCURVE",
"784 380 OFFCURVE",
"784 441 CURVE SMOOTH",
"784 528 OFFCURVE",
"717 581 OFFCURVE",
"580 581 CURVE SMOOTH",
"522 581 OFFCURVE",
"456 574 OFFCURVE",
"387 557 CURVE SMOOTH",
"302 536 OFFCURVE",
"207 496 OFFCURVE",
"136 457 CURVE SMOOTH",
"41 404 OFFCURVE",
"2 353 OFFCURVE",
"2 298 CURVE SMOOTH",
"2 239 OFFCURVE",
"53 210 OFFCURVE",
"146 210 CURVE SMOOTH",
"169 210 OFFCURVE",
"197 214 OFFCURVE",
"231 220 CURVE SMOOTH",
"274 228 OFFCURVE",
"296 238 OFFCURVE",
"296 249 CURVE SMOOTH",
"296 253 OFFCURVE",
"292 255 OFFCURVE",
"286 255 CURVE SMOOTH",
"283 255 OFFCURVE",
"279 254 OFFCURVE",
"273 253 CURVE SMOOTH",
"215 240 OFFCURVE",
"181 234 OFFCURVE",
"147 234 CURVE SMOOTH",
"84 234 OFFCURVE",
"51 253 OFFCURVE",
"51 291 CURVE SMOOTH",
"51 338 OFFCURVE",
"94 383 OFFCURVE",
"186 434 CURVE SMOOTH",
"300 498 OFFCURVE",
"480 554 OFFCURVE",
"606 554 CURVE SMOOTH",
"695 554 OFFCURVE",
"727 511 OFFCURVE",
"727 460 CURVE SMOOTH",
"727 423 OFFCURVE",
"696 326 OFFCURVE",
"621 193 CURVE SMOOTH",
"565 93 OFFCURVE",
"520 35 OFFCURVE",
"474 -10 CURVE SMOOTH",
"471 -13 OFFCURVE",
"470 -17 OFFCURVE",
"470 -22 CURVE SMOOTH",
"470 -37 OFFCURVE",
"492 -49 OFFCURVE",
"510 -49 CURVE"
);
},
{
closed = 1;
nodes = (
"701 -166 OFFCURVE",
"719 -153 OFFCURVE",
"737 -135 CURVE SMOOTH",
"763 -109 OFFCURVE",
"772 -92 OFFCURVE",
"772 -77 CURVE SMOOTH",
"772 -64 OFFCURVE",
"763 -54 OFFCURVE",
"746 -54 CURVE SMOOTH",
"726 -54 OFFCURVE",
"712 -70 OFFCURVE",
"712 -85 CURVE SMOOTH",
"712 -93 OFFCURVE",
"718 -100 OFFCURVE",
"729 -104 CURVE",
"721 -131 OFFCURVE",
"685 -160 OFFCURVE",
"684 -161 CURVE",
"678 -164 OFFCURVE",
"675 -167 OFFCURVE",
"675 -169 CURVE SMOOTH",
"675 -171 OFFCURVE",
"679 -173 OFFCURVE",
"684 -173 CURVE SMOOTH",
"686 -173 OFFCURVE",
"689 -173 OFFCURVE",
"691 -172 CURVE SMOOTH"
);
}
);
width = 1094;
}
);
unicode = 0145;
},
{
glyphname = Eng;
lastChange = "2021-08-18 15:15:43 +0000";
layers = (
{
layerId = "57DEED6F-9A00-47D0-BD9B-6FE09716AB2D";
paths = (
{
closed = 1;
nodes = (
"113 -350 OFFCURVE",
"167 -289 OFFCURVE",
"224 -220 CURVE SMOOTH",
"287 -143 OFFCURVE",
"357 1 OFFCURVE",
"424 176 CURVE SMOOTH",
"455 257 OFFCURVE",
"484 333 OFFCURVE",
"484 385 CURVE SMOOTH",
"484 426 OFFCURVE",
"466 451 OFFCURVE",
"415 451 CURVE SMOOTH",
"382 451 OFFCURVE",
"336 421 OFFCURVE",
"280 358 CURVE SMOOTH",
"245 318 OFFCURVE",
"204 266 OFFCURVE",
"166 221 CURVE",
"215 313 OFFCURVE",
"239 389 OFFCURVE",
"239 450 CURVE SMOOTH",
"239 537 OFFCURVE",
"184 580 OFFCURVE",
"125 580 CURVE SMOOTH",
"115 580 OFFCURVE",
"111 576 OFFCURVE",
"111 571 CURVE SMOOTH",
"111 567 OFFCURVE",
"115 563 OFFCURVE",
"124 563 CURVE SMOOTH",
"158 563 OFFCURVE",
"196 520 OFFCURVE",
"196 448 CURVE SMOOTH",
"196 399 OFFCURVE",
"172 321 OFFCURVE",
"124 214 CURVE SMOOTH",
"76 107 OFFCURVE",
"37 40 OFFCURVE",
"2 -3 CURVE SMOOTH",
"0 -6 OFFCURVE",
"-1 -10 OFFCURVE",
"-1 -15 CURVE SMOOTH",
"-1 -30 OFFCURVE",
"6 -37 OFFCURVE",
"21 -37 CURVE",
"44 -9 OFFCURVE",
"61 17 OFFCURVE",
"70 33 CURVE SMOOTH",
"113 107 OFFCURVE",
"163 177 OFFCURVE",
"216 244 CURVE SMOOTH",
"287 333 OFFCURVE",
"349 392 OFFCURVE",
"397 414 CURVE SMOOTH",
"410 420 OFFCURVE",
"420 422 OFFCURVE",
"428 422 CURVE SMOOTH",
"437 422 OFFCURVE",
"440 414 OFFCURVE",
"440 399 CURVE SMOOTH",
"440 362 OFFCURVE",
"416 284 OFFCURVE",
"381 195 CURVE SMOOTH",
"323 45 OFFCURVE",
"238 -133 OFFCURVE",
"194 -195 CURVE SMOOTH",
"141 -270 OFFCURVE",
"82 -328 OFFCURVE",
"0 -328 CURVE SMOOTH",
"-36 -328 OFFCURVE",
"-55 -308 OFFCURVE",
"-55 -277 CURVE SMOOTH",
"-55 -256 OFFCURVE",
"-46 -230 OFFCURVE",
"-29 -202 CURVE SMOOTH",
"-13 -176 OFFCURVE",
"-12 -167 OFFCURVE",
"-17 -167 CURVE SMOOTH",
"-22 -167 OFFCURVE",
"-32 -175 OFFCURVE",
"-39 -182 CURVE SMOOTH",
"-59 -200 OFFCURVE",
"-87 -239 OFFCURVE",
"-87 -275 CURVE SMOOTH",
"-87 -324 OFFCURVE",
"-44 -350 OFFCURVE",
"0 -350 CURVE SMOOTH"
);
}
);
width = 494;
},
{
background = {
hints = (
{
horizontal = 1;
place = "{-407, 26}";
type = Stem;
},
{
horizontal = 1;
place = "{203, 36}";
type = Stem;
},
{
horizontal = 1;
place = "{410, 42}";
type = Stem;
},
{
horizontal = 1;
place = "{544, 37}";
type = Stem;
},
{
place = "{2, 41}";
type = Stem;
},
{
place = "{265, 45}";
type = Stem;
},
{
place = "{645, 61}";
type = Stem;
},
{
place = "{931, 52}";
type = Stem;
}
);
paths = (
{
closed = 1;
nodes = (
"999 423 OFFCURVE",
"972 446 OFFCURVE",
"917 446 CURVE SMOOTH",
"879 446 OFFCURVE",
"828 425 OFFCURVE",
"763 362 CURVE SMOOTH",
"718 317 OFFCURVE",
"673 261 OFFCURVE",
"629 216 CURVE",
"687 308 OFFCURVE",
"717 384 OFFCURVE",
"719 445 CURVE SMOOTH",
"722 532 OFFCURVE",
"662 575 OFFCURVE",
"538 575 CURVE SMOOTH",
"485 575 OFFCURVE",
"422 567 OFFCURVE",
"359 550 CURVE SMOOTH",
"282 529 OFFCURVE",
"210 498 OFFCURVE",
"145 459 CURVE SMOOTH",
"57 406 OFFCURVE",
"13 353 OFFCURVE",
"11 298 CURVE SMOOTH",
"9 239 OFFCURVE",
"49 210 OFFCURVE",
"134 210 CURVE SMOOTH",
"154 210 OFFCURVE",
"185 214 OFFCURVE",
"216 220 CURVE SMOOTH",
"254 228 OFFCURVE",
"275 238 OFFCURVE",
"275 249 CURVE SMOOTH",
"275 253 OFFCURVE",
"272 255 OFFCURVE",
"266 255 CURVE SMOOTH",
"264 255 OFFCURVE",
"260 254 OFFCURVE",
"255 253 CURVE SMOOTH",
"201 240 OFFCURVE",
"165 233 OFFCURVE",
"137 233 CURVE SMOOTH",
"81 233 OFFCURVE",
"52 252 OFFCURVE",
"54 290 CURVE SMOOTH",
"55 337 OFFCURVE",
"98 385 OFFCURVE",
"181 436 CURVE SMOOTH",
"242 475 OFFCURVE",
"305 504 OFFCURVE",
"373 524 CURVE SMOOTH",
"432 542 OFFCURVE",
"477 551 OFFCURVE",
"523 551 CURVE SMOOTH",
"616 551 OFFCURVE",
"660 515 OFFCURVE",
"658 443 CURVE SMOOTH",
"656 394 OFFCURVE",
"628 316 OFFCURVE",
"571 209 CURVE SMOOTH",
"518 109 OFFCURVE",
"473 37 OFFCURVE",
"430 -8 CURVE",
"428 -11 OFFCURVE",
"426 -15 OFFCURVE",
"426 -20 CURVE SMOOTH",
"425 -35 OFFCURVE",
"440 -42 OFFCURVE",
"457 -42 CURVE",
"482 -15 OFFCURVE",
"501 9 OFFCURVE",
"514 28 CURVE SMOOTH",
"565 102 OFFCURVE",
"624 172 OFFCURVE",
"686 239 CURVE SMOOTH",
"771 330 OFFCURVE",
"835 387 OFFCURVE",
"887 409 CURVE SMOOTH",
"900 415 OFFCURVE",
"911 417 OFFCURVE",
"920 417 CURVE SMOOTH",
"937 417 OFFCURVE",
"946 405 OFFCURVE",
"945 382 CURVE SMOOTH",
"943 330 OFFCURVE",
"923 259 OFFCURVE",
"900 203 CURVE SMOOTH",
"840 54 OFFCURVE",
"819 19 OFFCURVE",
"804 -5 CURVE",
"714 -14 OFFCURVE",
"603 -45 OFFCURVE",
"485 -98 CURVE SMOOTH",
"346 -162 OFFCURVE",
"268 -229 OFFCURVE",
"251 -301 CURVE SMOOTH",
"244 -331 OFFCURVE",
"251 -355 OFFCURVE",
"269 -373 CURVE SMOOTH",
"288 -391 OFFCURVE",
"330 -407 OFFCURVE",
"366 -407 CURVE SMOOTH",
"465 -407 OFFCURVE",
"555 -355 OFFCURVE",
"668 -253 CURVE SMOOTH",
"728 -199 OFFCURVE",
"786 -123 OFFCURVE",
"844 -25 CURVE",
"849 -24 OFFCURVE",
"857 -24 OFFCURVE",
"863 -25 CURVE",
"880 -25 OFFCURVE",
"892 -28 OFFCURVE",
"896 -31 CURVE",
"900 -32 OFFCURVE",
"902 -33 OFFCURVE",
"902 -33 CURVE",
"909 -33 OFFCURVE",
"911 -31 OFFCURVE",
"912 -26 CURVE SMOOTH",
"914 -19 OFFCURVE",
"906 -14 OFFCURVE",
"890 -10 CURVE SMOOTH",
"878 -7 OFFCURVE",
"860 -5 OFFCURVE",
"849 -5 CURVE",
"916 109 OFFCURVE",
"988 249 OFFCURVE",
"997 376 CURVE SMOOTH"
);
},
{
closed = 1;
nodes = (
"756 -108 OFFCURVE",
"707 -181 OFFCURVE",
"653 -239 CURVE SMOOTH",
"592 -303 OFFCURVE",
"469 -382 OFFCURVE",
"393 -378 CURVE SMOOTH",
"340 -376 OFFCURVE",
"281 -372 OFFCURVE",
"295 -305 CURVE SMOOTH",
"306 -256 OFFCURVE",
"348 -207 OFFCURVE",
"423 -158 CURVE SMOOTH",
"471 -129 OFFCURVE",
"531 -101 OFFCURVE",
"609 -72 CURVE SMOOTH",
"686 -44 OFFCURVE",
"750 -27 OFFCURVE",
"799 -22 CURVE"
);
}
);
};
layerId = "A9A9B55F-A222-44B0-A0B6-968BE501F3F8";
paths = (
{
closed = 1;
nodes = (
"124 -350 OFFCURVE",
"183 -287 OFFCURVE",
"242 -218 CURVE SMOOTH",
"305 -144 OFFCURVE",
"375 -12 OFFCURVE",
"452 179 CURVE SMOOTH",
"484 259 OFFCURVE",
"515 336 OFFCURVE",
"515 390 CURVE SMOOTH",
"515 433 OFFCURVE",
"495 461 OFFCURVE",
"438 461 CURVE SMOOTH",
"400 461 OFFCURVE",
"350 428 OFFCURVE",
"293 366 CURVE SMOOTH",
"280 351 OFFCURVE",
"245 312 OFFCURVE",
"224 287 CURVE SMOOTH",
"174 229 LINE",
"182 224 LINE",
"234 316 OFFCURVE",
"259 393 OFFCURVE",
"259 455 CURVE SMOOTH",
"259 535 OFFCURVE",
"209 590 OFFCURVE",
"135 590 CURVE SMOOTH",
"122 590 OFFCURVE",
"115 583 OFFCURVE",
"115 577 CURVE SMOOTH",
"115 570 OFFCURVE",
"122 563 OFFCURVE",
"134 563 CURVE SMOOTH",
"171 563 OFFCURVE",
"204 514 OFFCURVE",
"204 453 CURVE SMOOTH",
"204 405 OFFCURVE",
"179 327 OFFCURVE",
"129 221 CURVE SMOOTH",
"78 113 OFFCURVE",
"40 48 OFFCURVE",
"2 5 CURVE SMOOTH",
"-1 1 OFFCURVE",
"-2 -4 OFFCURVE",
"-2 -10 CURVE SMOOTH",
"-2 -28 OFFCURVE",
"8 -37 OFFCURVE",
"26 -37 CURVE",
"30 -35 LINE",
"52 -10 OFFCURVE",
"76 25 OFFCURVE",
"82 35 CURVE SMOOTH",
"127 109 OFFCURVE",
"179 179 OFFCURVE",
"234 246 CURVE SMOOTH",
"310 337 OFFCURVE",
"372 393 OFFCURVE",
"421 414 CURVE SMOOTH",
"437 421 OFFCURVE",
"441 422 OFFCURVE",
"451 422 CURVE SMOOTH",
"456 422 OFFCURVE",
"459 416 OFFCURVE",
"459 405 CURVE SMOOTH",
"459 375 OFFCURVE",
"438 303 OFFCURVE",
"397 202 CURVE SMOOTH",
"336 51 OFFCURVE",
"248 -126 OFFCURVE",
"203 -187 CURVE SMOOTH",
"147 -262 OFFCURVE",
"88 -318 OFFCURVE",
"4 -318 CURVE SMOOTH",
"-30 -318 OFFCURVE",
"-48 -300 OFFCURVE",
"-48 -271 CURVE SMOOTH",
"-48 -251 OFFCURVE",
"-40 -227 OFFCURVE",
"-23 -201 CURVE SMOOTH",
"-13 -185 OFFCURVE",
"-9 -174 OFFCURVE",
"-9 -167 CURVE SMOOTH",
"-9 -162 OFFCURVE",
"-11 -160 OFFCURVE",
"-15 -160 CURVE SMOOTH",
"-21 -160 OFFCURVE",
"-29 -164 OFFCURVE",
"-39 -173 CURVE SMOOTH",
"-60 -191 OFFCURVE",
"-92 -233 OFFCURVE",
"-92 -271 CURVE SMOOTH",
"-92 -275 OFFCURVE",
"-92 -280 OFFCURVE",
"-91 -284 CURVE SMOOTH",
"-82 -324 OFFCURVE",
"-45 -350 OFFCURVE",
"4 -350 CURVE SMOOTH"
);
}
);
width = 499;
},
{
background = {
hints = (
{
horizontal = 1;
place = "{-407, 26}";
type = Stem;
},
{
horizontal = 1;
place = "{203, 36}";
type = Stem;
},
{
horizontal = 1;
place = "{410, 42}";
type = Stem;
},
{
horizontal = 1;
place = "{544, 37}";
type = Stem;
},
{
place = "{2, 46}";
type = Stem;
},
{
place = "{295, 49}";
type = Stem;
},
{
place = "{717, 67}";
type = Stem;
},
{
place = "{1035, 57}";
type = Stem;
}
);
paths = (
{
closed = 1;
nodes = (
"1094 423 OFFCURVE",
"1063 446 OFFCURVE",
"1002 446 CURVE SMOOTH",
"960 446 OFFCURVE",
"904 425 OFFCURVE",
"834 362 CURVE SMOOTH",
"786 317 OFFCURVE",
"738 261 OFFCURVE",
"691 216 CURVE",
"752 308 OFFCURVE",
"782 384 OFFCURVE",
"782 445 CURVE SMOOTH",
"782 532 OFFCURVE",
"713 575 OFFCURVE",
"576 575 CURVE SMOOTH",
"517 575 OFFCURVE",
"448 567 OFFCURVE",
"378 550 CURVE SMOOTH",
"293 529 OFFCURVE",
"214 498 OFFCURVE",
"143 459 CURVE SMOOTH",
"48 406 OFFCURVE",
"1 353 OFFCURVE",
"1 298 CURVE SMOOTH",
"1 239 OFFCURVE",
"47 210 OFFCURVE",
"141 210 CURVE SMOOTH",
"163 210 OFFCURVE",
"198 214 OFFCURVE",
"232 220 CURVE SMOOTH",
"275 228 OFFCURVE",
"297 238 OFFCURVE",
"297 249 CURVE SMOOTH",
"297 253 OFFCURVE",
"293 255 OFFCURVE",
"287 255 CURVE SMOOTH",
"284 255 OFFCURVE",
"280 254 OFFCURVE",
"274 253 CURVE SMOOTH",
"215 240 OFFCURVE",
"175 233 OFFCURVE",
"143 233 CURVE SMOOTH",
"81 233 OFFCURVE",
"49 252 OFFCURVE",
"49 290 CURVE SMOOTH",
"49 337 OFFCURVE",
"94 385 OFFCURVE",
"184 436 CURVE SMOOTH",
"251 475 OFFCURVE",
"320 504 OFFCURVE",
"395 524 CURVE SMOOTH",
"460 542 OFFCURVE",
"509 551 OFFCURVE",
"560 551 CURVE SMOOTH",
"663 551 OFFCURVE",
"715 515 OFFCURVE",
"715 443 CURVE SMOOTH",
"715 394 OFFCURVE",
"686 316 OFFCURVE",
"627 209 CURVE SMOOTH",
"572 109 OFFCURVE",
"524 37 OFFCURVE",
"479 -8 CURVE",
"477 -11 OFFCURVE",
"475 -15 OFFCURVE",
"475 -20 CURVE SMOOTH",
"475 -35 OFFCURVE",
"491 -42 OFFCURVE",
"510 -42 CURVE",
"537 -15 OFFCURVE",
"557 9 OFFCURVE",
"571 28 CURVE SMOOTH",
"625 102 OFFCURVE",
"687 172 OFFCURVE",
"753 239 CURVE SMOOTH",
"844 330 OFFCURVE",
"913 387 OFFCURVE",
"970 409 CURVE SMOOTH",
"985 415 OFFCURVE",
"997 417 OFFCURVE",
"1007 417 CURVE SMOOTH",
"1026 417 OFFCURVE",
"1036 405 OFFCURVE",
"1036 382 CURVE SMOOTH",
"1036 330 OFFCURVE",
"1016 259 OFFCURVE",
"992 203 CURVE SMOOTH",
"932 54 OFFCURVE",
"910 19 OFFCURVE",
"894 -5 CURVE",
"794 -14 OFFCURVE",
"672 -45 OFFCURVE",
"543 -98 CURVE SMOOTH",
"391 -162 OFFCURVE",
"307 -229 OFFCURVE",
"291 -301 CURVE SMOOTH",
"284 -331 OFFCURVE",
"293 -355 OFFCURVE",
"314 -373 CURVE SMOOTH",
"336 -391 OFFCURVE",
"383 -407 OFFCURVE",
"423 -407 CURVE SMOOTH",
"533 -407 OFFCURVE",
"631 -355 OFFCURVE",
"752 -253 CURVE SMOOTH",
"817 -199 OFFCURVE",
"879 -123 OFFCURVE",
"939 -25 CURVE",
"945 -24 OFFCURVE",
"953 -24 OFFCURVE",
"960 -25 CURVE",
"979 -25 OFFCURVE",
"992 -28 OFFCURVE",
"998 -31 CURVE",
"1002 -32 OFFCURVE",
"1004 -33 OFFCURVE",
"1005 -33 CURVE SMOOTH",
"1012 -33 OFFCURVE",
"1014 -31 OFFCURVE",
"1015 -26 CURVE SMOOTH",
"1017 -19 OFFCURVE",
"1008 -14 OFFCURVE",
"990 -10 CURVE SMOOTH",
"977 -7 OFFCURVE",
"957 -5 OFFCURVE",
"945 -5 CURVE",
"1015 109 OFFCURVE",
"1089 249 OFFCURVE",
"1093 376 CURVE SMOOTH"
);
},
{
closed = 1;
nodes = (
"845 -108 OFFCURVE",
"793 -181 OFFCURVE",
"736 -239 CURVE SMOOTH",
"670 -303 OFFCURVE",
"537 -382 OFFCURVE",
"452 -378 CURVE SMOOTH",
"393 -376 OFFCURVE",
"327 -372 OFFCURVE",
"340 -305 CURVE SMOOTH",
"350 -256 OFFCURVE",
"396 -207 OFFCURVE",
"477 -158 CURVE SMOOTH",
"529 -129 OFFCURVE",
"595 -101 OFFCURVE",
"680 -72 CURVE SMOOTH",
"765 -44 OFFCURVE",
"835 -27 OFFCURVE",
"889 -22 CURVE"
);
}
);
};
layerId = "AFE3E0A9-A514-4B93-8E4E-B7D18C88F31C";
paths = (
{
closed = 1;
nodes = (
"142 -351 OFFCURVE",
"205 -288 OFFCURVE",
"268 -219 CURVE SMOOTH",
"335 -145 OFFCURVE",
"413 -7 OFFCURVE",
"493 179 CURVE SMOOTH",
"527 259 OFFCURVE",
"561 337 OFFCURVE",
"561 390 CURVE SMOOTH",
"561 434 OFFCURVE",
"539 462 OFFCURVE",
"477 462 CURVE SMOOTH",
"436 462 OFFCURVE",
"381 429 OFFCURVE",
"320 367 CURVE SMOOTH",
"299 345 OFFCURVE",
"275 318 OFFCURVE",
"246 287 CURVE SMOOTH",
"192 230 LINE",
"203 223 LINE",
"259 316 OFFCURVE",
"286 393 OFFCURVE",
"286 455 CURVE SMOOTH",
"286 536 OFFCURVE",
"231 591 OFFCURVE",
"152 591 CURVE SMOOTH",
"137 591 OFFCURVE",
"129 585 OFFCURVE",
"129 579 CURVE SMOOTH",
"129 574 OFFCURVE",
"137 568 OFFCURVE",
"151 568 CURVE SMOOTH",
"191 568 OFFCURVE",
"225 531 OFFCURVE",
"225 453 CURVE SMOOTH",
"225 405 OFFCURVE",
"199 328 OFFCURVE",
"145 221 CURVE SMOOTH",
"94 121 OFFCURVE",
"49 49 OFFCURVE",
"9 6 CURVE SMOOTH",
"5 2 OFFCURVE",
"4 -3 OFFCURVE",
"4 -10 CURVE SMOOTH",
"4 -28 OFFCURVE",
"15 -38 OFFCURVE",
"36 -38 CURVE",
"41 -36 LINE",
"60 -14 OFFCURVE",
"79 9 OFFCURVE",
"96 35 CURVE SMOOTH",
"138 100 OFFCURVE",
"196 174 OFFCURVE",
"259 245 CURVE SMOOTH",
"342 338 OFFCURVE",
"398 392 OFFCURVE",
"455 425 CURVE SMOOTH",
"465 431 OFFCURVE",
"482 435 OFFCURVE",
"489 435 CURVE SMOOTH",
"497 435 OFFCURVE",
"501 428 OFFCURVE",
"501 414 CURVE SMOOTH",
"501 378 OFFCURVE",
"476 302 OFFCURVE",
"432 202 CURVE SMOOTH",
"363 43 OFFCURVE",
"272 -126 OFFCURVE",
"223 -188 CURVE SMOOTH",
"152 -277 OFFCURVE",
"88 -330 OFFCURVE",
"12 -330 CURVE SMOOTH",
"-24 -330 OFFCURVE",
"-42 -307 OFFCURVE",
"-42 -275 CURVE SMOOTH",
"-42 -253 OFFCURVE",
"-34 -227 OFFCURVE",
"-16 -201 CURVE SMOOTH",
"-6 -186 OFFCURVE",
"-1 -174 OFFCURVE",
"-1 -167 CURVE SMOOTH",
"-1 -162 OFFCURVE",
"-4 -159 OFFCURVE",
"-9 -159 CURVE SMOOTH",
"-15 -159 OFFCURVE",
"-24 -164 OFFCURVE",
"-36 -173 CURVE SMOOTH",
"-58 -191 OFFCURVE",
"-93 -233 OFFCURVE",
"-93 -271 CURVE SMOOTH",
"-93 -319 OFFCURVE",
"-47 -351 OFFCURVE",
"12 -351 CURVE SMOOTH"
);
}
);
width = 571;
}
);
note = Eng;
unicode = 014A;
},
{
glyphname = O;
lastChange = "2021-08-19 13:51:06 +0000";
layers = (
{
anchors = (
{
name = bottom;
position = "{123, -8}";
},
{
name = center;
position = "{301, 268}";
},
{
name = ogonek;
position = "{154, -10}";
},
{
name = top;
position = "{580, 522}";
},
{
name = topleft;
position = "{-35, 535}";
},
{
name = topright;
position = "{650, 433}";
}
);
layerId = "57DEED6F-9A00-47D0-BD9B-6FE09716AB2D";
paths = (
{
closed = 1;
nodes = (
"260 -26 OFFCURVE",
"347 -3 OFFCURVE",
"436 42 CURVE SMOOTH",
"525 87 OFFCURVE",
"592 144 OFFCURVE",
"640 213 CURVE SMOOTH",
"677 266 OFFCURVE",
"696 317 OFFCURVE",
"696 364 CURVE SMOOTH",
"696 423 OFFCURVE",
"668 468 OFFCURVE",
"613 499 CURVE SMOOTH",
"569 523 OFFCURVE",
"515 535 OFFCURVE",
"450 535 CURVE SMOOTH",
"381 535 OFFCURVE",
"311 522 OFFCURVE",
"242 497 CURVE SMOOTH",
"177 474 OFFCURVE",
"123 443 OFFCURVE",
"79 405 CURVE SMOOTH",
"23 356 OFFCURVE",
"-5 303 OFFCURVE",
"-5 246 CURVE SMOOTH",
"-5 202 OFFCURVE",
"17 170 OFFCURVE",
"61 149 CURVE",
"51 124 OFFCURVE",
"46 100 OFFCURVE",
"46 79 CURVE SMOOTH",
"46 9 OFFCURVE",
"90 -26 OFFCURVE",
"177 -26 CURVE SMOOTH"
);
},
{
closed = 1;
nodes = (
"158 -5 OFFCURVE",
"134 2 OFFCURVE",
"115 17 CURVE SMOOTH",
"96 32 OFFCURVE",
"86 52 OFFCURVE",
"86 79 CURVE SMOOTH",
"86 98 OFFCURVE",
"92 119 OFFCURVE",
"103 141 CURVE",
"114 138 OFFCURVE",
"126 136 OFFCURVE",
"140 136 CURVE SMOOTH",
"183 136 OFFCURVE",
"226 149 OFFCURVE",
"269 174 CURVE SMOOTH",
"307 196 OFFCURVE",
"340 225 OFFCURVE",
"368 265 CURVE",
"368 270 OFFCURVE",
"366 273 OFFCURVE",
"361 273 CURVE SMOOTH",
"362 273 OFFCURVE",
"353 265 OFFCURVE",
"326 240 CURVE SMOOTH",
"266 184 OFFCURVE",
"206 156 OFFCURVE",
"147 156 CURVE SMOOTH",
"135 156 OFFCURVE",
"123 157 OFFCURVE",
"110 160 CURVE",
"117 185 OFFCURVE",
"144 224 OFFCURVE",
"195 276 CURVE SMOOTH",
"234 316 OFFCURVE",
"270 348 OFFCURVE",
"304 374 CURVE SMOOTH",
"336 399 OFFCURVE",
"364 418 OFFCURVE",
"387 430 CURVE SMOOTH",
"408 441 OFFCURVE",
"431 449 OFFCURVE",
"455 453 CURVE SMOOTH",
"465 455 OFFCURVE",
"470 458 OFFCURVE",
"470 466 CURVE SMOOTH",
"470 473 OFFCURVE",
"466 475 OFFCURVE",
"458 475 CURVE SMOOTH",
"456 475 LINE SMOOTH",
"436 475 OFFCURVE",
"412 467 OFFCURVE",
"384 456 CURVE SMOOTH",
"329 433 OFFCURVE",
"270 393 OFFCURVE",
"208 336 CURVE SMOOTH",
"149 281 OFFCURVE",
"101 224 OFFCURVE",
"70 170 CURVE",
"35 182 OFFCURVE",
"18 208 OFFCURVE",
"18 247 CURVE SMOOTH",
"18 292 OFFCURVE",
"47 338 OFFCURVE",
"107 384 CURVE SMOOTH",
"149 416 OFFCURVE",
"200 444 OFFCURVE",
"257 467 CURVE SMOOTH",
"333 497 OFFCURVE",
"404 512 OFFCURVE",
"471 512 CURVE SMOOTH",
"522 512 OFFCURVE",
"565 503 OFFCURVE",
"599 484 CURVE SMOOTH",
"642 461 OFFCURVE",
"663 426 OFFCURVE",
"663 379 CURVE SMOOTH",
"663 337 OFFCURVE",
"645 290 OFFCURVE",
"609 238 CURVE SMOOTH",
"561 169 OFFCURVE",
"500 112 OFFCURVE",
"425 67 CURVE SMOOTH",
"345 19 OFFCURVE",
"265 -5 OFFCURVE",
"185 -5 CURVE SMOOTH"
);
}
);
width = 656;
},
{
anchors = (
{
name = bottom;
position = "{176, 0}";
},
{
name = center;
position = "{401, 273}";
},
{
name = ogonek;
position = "{207, -8}";
},
{
name = top;
position = "{704, 531}";
},
{
name = topleft;
position = "{20, 545}";
},
{
name = topright;
position = "{801, 462}";
}
);
layerId = "A9A9B55F-A222-44B0-A0B6-968BE501F3F8";
paths = (
{
closed = 1;
nodes = (
"355 -27 OFFCURVE",
"451 2 OFFCURVE",
"553 47 CURVE SMOOTH",
"655 92 OFFCURVE",
"733 149 OFFCURVE",
"790 218 CURVE SMOOTH",
"837 274 OFFCURVE",
"851 328 OFFCURVE",
"851 377 CURVE SMOOTH",
"851 512 OFFCURVE",
"723 547 OFFCURVE",
"599 547 CURVE SMOOTH",
"581 547 OFFCURVE",
"563 546 OFFCURVE",
"546 545 CURVE SMOOTH",
"437 537 OFFCURVE",
"272 489 OFFCURVE",
"206 451 CURVE SMOOTH",
"106 395 OFFCURVE",
"55 329 OFFCURVE",
"55 246 CURVE SMOOTH",
"55 203 OFFCURVE",
"81 173 OFFCURVE",
"126 154 CURVE",
"113 127 OFFCURVE",
"106 101 OFFCURVE",
"106 79 CURVE SMOOTH",
"106 12 OFFCURVE",
"144 -27 OFFCURVE",
"261 -27 CURVE SMOOTH"
);
},
{
closed = 1;
nodes = (
"173 34 OFFCURVE",
"164 59 OFFCURVE",
"164 84 CURVE SMOOTH",
"164 107 OFFCURVE",
"171 131 OFFCURVE",
"181 146 CURVE",
"194 143 OFFCURVE",
"207 141 OFFCURVE",
"222 141 CURVE SMOOTH",
"271 141 OFFCURVE",
"321 154 OFFCURVE",
"369 179 CURVE SMOOTH",
"418 204 OFFCURVE",
"454 233 OFFCURVE",
"486 270 CURVE",
"486 275 OFFCURVE",
"483 278 OFFCURVE",
"478 278 CURVE SMOOTH",
"479 278 OFFCURVE",
"468 270 OFFCURVE",
"437 245 CURVE SMOOTH",
"367 189 OFFCURVE",
"298 161 OFFCURVE",
"232 161 CURVE SMOOTH",
"218 161 OFFCURVE",
"205 162 OFFCURVE",
"190 165 CURVE",
"274 297 OFFCURVE",
"447 429 OFFCURVE",
"591 450 CURVE SMOOTH",
"602 452 OFFCURVE",
"609 455 OFFCURVE",
"609 463 CURVE SMOOTH",
"609 470 OFFCURVE",
"605 472 OFFCURVE",
"596 472 CURVE SMOOTH",
"594 472 LINE SMOOTH",
"431 472 OFFCURVE",
"224 315 OFFCURVE",
"136 175 CURVE",
"99 187 OFFCURVE",
"87 210 OFFCURVE",
"87 247 CURVE SMOOTH",
"87 309 OFFCURVE",
"155 367 OFFCURVE",
"222 408 CURVE SMOOTH",
"281 443 OFFCURVE",
"444 510 OFFCURVE",
"595 510 CURVE SMOOTH",
"644 510 OFFCURVE",
"692 503 OFFCURVE",
"735 485 CURVE SMOOTH",
"771 470 OFFCURVE",
"804 437 OFFCURVE",
"804 386 CURVE SMOOTH",
"804 272 OFFCURVE",
"641 136 OFFCURVE",
"535 80 CURVE SMOOTH",
"471 46 OFFCURVE",
"368 5 OFFCURVE",
"281 5 CURVE SMOOTH",
"250 5 OFFCURVE",
"221 10 OFFCURVE",
"197 22 CURVE SMOOTH"
);
}
);
width = 801;
},
{
anchors = (
{
name = bottom;
position = "{199, 0}";
},
{
name = center;
position = "{436, 273}";
},
{
name = ogonek;
position = "{251, -13}";
},
{
name = top;
position = "{764, 532}";
},
{
name = topleft;
position = "{20, 545}";
},
{
name = topright;
position = "{892, 427}";
}
);
layerId = "AFE3E0A9-A514-4B93-8E4E-B7D18C88F31C";
paths = (
{
closed = 1;
nodes = (
"405 -27 OFFCURVE",
"510 2 OFFCURVE",
"622 47 CURVE SMOOTH",
"734 92 OFFCURVE",
"818 149 OFFCURVE",
"878 218 CURVE SMOOTH",
"925 271 OFFCURVE",
"941 322 OFFCURVE",
"941 369 CURVE SMOOTH",
"941 511 OFFCURVE",
"793 547 OFFCURVE",
"653 547 CURVE SMOOTH",
"633 547 OFFCURVE",
"614 546 OFFCURVE",
"595 545 CURVE SMOOTH",
"472 537 OFFCURVE",
"291 488 OFFCURVE",
"220 451 CURVE SMOOTH",
"133 406 OFFCURVE",
"60 343 OFFCURVE",
"60 251 CURVE SMOOTH",
"60 207 OFFCURVE",
"88 175 OFFCURVE",
"143 154 CURVE",
"130 129 OFFCURVE",
"124 105 OFFCURVE",
"124 84 CURVE SMOOTH",
"124 14 OFFCURVE",
"167 -27 OFFCURVE",
"301 -27 CURVE SMOOTH"
);
},
{
closed = 1;
nodes = (
"198 35 OFFCURVE",
"188 61 OFFCURVE",
"188 88 CURVE SMOOTH",
"188 110 OFFCURVE",
"195 132 OFFCURVE",
"205 146 CURVE",
"219 143 OFFCURVE",
"234 141 OFFCURVE",
"251 141 CURVE SMOOTH",
"305 141 OFFCURVE",
"359 154 OFFCURVE",
"413 179 CURVE SMOOTH",
"463 202 OFFCURVE",
"505 233 OFFCURVE",
"538 270 CURVE",
"538 275 OFFCURVE",
"535 278 OFFCURVE",
"529 278 CURVE SMOOTH",
"530 278 OFFCURVE",
"519 270 OFFCURVE",
"485 245 CURVE SMOOTH",
"409 189 OFFCURVE",
"334 161 OFFCURVE",
"260 161 CURVE SMOOTH",
"245 161 OFFCURVE",
"230 162 OFFCURVE",
"214 165 CURVE",
"305 300 OFFCURVE",
"489 429 OFFCURVE",
"650 450 CURVE SMOOTH",
"661 452 OFFCURVE",
"668 456 OFFCURVE",
"668 463 CURVE SMOOTH",
"668 470 OFFCURVE",
"663 472 OFFCURVE",
"653 472 CURVE SMOOTH",
"650 472 LINE SMOOTH",
"469 472 OFFCURVE",
"246 315 OFFCURVE",
"154 175 CURVE",
"110 187 OFFCURVE",
"96 212 OFFCURVE",
"96 251 CURVE SMOOTH",
"96 311 OFFCURVE",
"165 366 OFFCURVE",
"241 408 CURVE SMOOTH",
"304 443 OFFCURVE",
"483 510 OFFCURVE",
"650 510 CURVE SMOOTH",
"705 510 OFFCURVE",
"759 503 OFFCURVE",
"807 485 CURVE SMOOTH",
"848 470 OFFCURVE",
"887 436 OFFCURVE",
"887 384 CURVE SMOOTH",
"887 268 OFFCURVE",
"713 135 OFFCURVE",
"601 80 CURVE SMOOTH",
"531 46 OFFCURVE",
"418 5 OFFCURVE",
"321 5 CURVE SMOOTH",
"287 5 OFFCURVE",
"255 10 OFFCURVE",
"227 22 CURVE SMOOTH"
);
}
);
width = 921;
}
);
leftKerningGroup = O;
note = O;
rightKerningGroup = O;
unicode = 004F;
},
